<?xml version="1.0" encoding="UTF-8" standalone="no"?>
<svg width="213px" height="110px" viewBox="0 0 213 110" version="1.1" xmlns="http://www.w3.org/2000/svg" xmlns:xlink="http://www.w3.org/1999/xlink">
    <!-- Generator: sketchtool 40.2 (33826) - http://www.bohemiancoding.com/sketch -->
    <title>372E8CA5-4675-4883-BF95-56623A4A1849</title>
    <desc>Created with sketchtool.</desc>
    <defs>
        <radialGradient cx="50%" cy="50%" fx="50%" fy="50%" r="50%" id="radialGradient-1">
            <stop stop-color="#A2B0BA" offset="0%"></stop>
            <stop stop-color="#FFFFFF" offset="100%"></stop>
        </radialGradient>
        <polygon id="path-2" points="17.499792 0.138009031 0.328843868 0.138009031 0.328843868 17.3125296 17.499792 17.3125296 17.499792 0.138009031"></polygon>
    </defs>
    <g id="Page-1" stroke="none" stroke-width="1" fill="none" fill-rule="evenodd">
        <g id="LTR-logos" transform="translate(-58.000000, -68.000000)">
            <g id="lotto" transform="translate(58.000000, 68.000000)">
                <path d="M130.552925,106.580154 C136.752028,106.580154 141.775948,105.231552 141.775948,103.571088 C141.775948,101.908616 136.752028,100.562358 130.552925,100.562358 C124.35516,100.562358 119.332915,101.908616 119.332915,103.569414 C119.332915,105.231552 124.35516,106.580154 130.552925,106.580154 Z" id="Fill-1" fill="url(#radialGradient-1)"></path>
                <path d="M198.971472,106.985472 C205.168231,106.985472 210.19617,105.637539 210.19617,103.976741 C210.19617,102.316613 205.168231,100.967675 198.971472,100.967675 C192.774042,100.967675 187.749788,102.314268 187.749788,103.976741 C187.749788,105.637539 192.774042,106.985472 198.971472,106.985472 Z" id="Fill-3" fill="url(#radialGradient-1)"></path>
                <path d="M105.117275,77.236252 L105.068044,99.506957 L108.104633,99.506957 C113.418917,99.506957 117.36645,98.5964994 118.529242,97.4324669 C119.08686,98.0397736 119.238572,98.7482423 119.238572,99.7096159 C119.238572,102.898897 116.100841,105.531788 107.294162,105.531788 C97.4770722,105.531788 96.4144165,105.075554 96.0088458,103.000729 C95.8567986,101.684284 95.8068976,97.6850368 95.8068976,90.8016689 L95.8058929,79.2608311 C95.8058929,78.0458827 95.1980392,77.287168 92.5157797,77.5400729 C92.5157797,74.7055281 94.7931382,72.3265472 99.5504731,72.3265472 C103.295388,72.3265472 105.117275,73.7438196 105.117275,77.236252" id="Fill-5" fill="#ED1C24"></path>
                <path d="M127.510675,78.9608624 C124.181378,79.6020015 123.586585,82.1377499 124.542741,87.1090898 C125.489519,92.0301837 126.9765,93.599199 130.555302,92.9108287 C133.635765,92.3182608 134.704114,90.1024119 133.671934,84.7341286 C132.858783,80.5094444 131.337307,78.224591 127.510675,78.9608624 M131.108901,98.4740666 C123.157236,100.00389 117.428675,97.5488701 115.851269,89.3480519 C114.187458,80.6993743 118.340958,74.6943065 126.988557,73.0308287 C134.989118,71.4916261 140.547548,74.1332261 142.136005,82.3846253 C143.89426,91.5304035 139.160703,96.9251497 131.108901,98.4740666" id="Fill-7" fill="#ED1C24"></path>
                <path d="M147.640314,100.013135 C147.640314,95.0525145 147.740785,87.5615049 147.740785,87.5615049 L144.552149,87.5615049 C144.248389,87.1059411 144.097012,86.4480534 144.097012,85.8913276 C144.096007,83.9169945 145.260474,81.8418345 147.993639,81.6398455 C148.246493,78.0968321 150.06771,74.9072156 154.371248,74.9072156 C155.079573,74.9072156 155.940281,75.0090475 156.699512,75.2110365 C156.445988,77.3371125 156.395752,79.6152664 156.395752,81.7915885 L157.306026,81.7915885 C160.039526,81.7915885 161.760271,81.5376786 162.873833,80.8807958 C163.37954,81.5376786 163.582158,82.3486492 163.582158,83.1582798 C163.583163,86.1951485 160.69795,87.6120859 158.369686,87.6120859 L156.396422,87.6120859 L156.396422,98.7981868 C156.396422,100.316956 156.953035,100.772185 158.673781,100.772185 C160.64805,100.772185 162.571078,100.063716 164.240583,99.0008457 C164.645483,99.6088224 164.848101,100.215459 164.848101,101.126922 C164.848101,104.467276 161.407281,107.048916 156.093667,107.048916 C150.221097,107.048916 147.640314,105.226661 147.640314,100.013135" id="Fill-9" fill="#ED1C24"></path>
                <path d="M168.588931,98.7481753 C168.588931,93.7882245 168.689737,86.2968799 168.689737,86.2968799 L165.501435,86.2968799 C165.198346,85.8413161 165.045964,85.1827584 165.045964,84.6260327 C165.045964,82.6530395 166.209426,80.5765395 168.942256,80.3745506 C169.195445,76.8318721 171.017667,73.6425906 175.31953,73.6425906 C176.027185,73.6425906 176.888228,73.7440876 177.647459,73.9464115 C177.393935,76.0728225 177.344034,78.3503065 177.344034,80.5266285 L178.253973,80.5266285 C180.987808,80.5266285 182.708218,80.2723837 183.82111,79.6158359 C184.327487,80.2723837 184.530105,81.0830193 184.530105,81.8929849 C184.530105,84.9298535 181.645228,86.3474609 179.316964,86.3474609 L177.344034,86.3474609 L177.345039,97.5338968 C177.345039,99.0519962 177.900983,99.507225 179.620723,99.507225 C181.594992,99.507225 183.518355,98.7994262 185.187525,97.7362207 C185.593431,98.3435275 185.795379,98.9504992 185.795379,99.8619618 C185.796049,103.203321 182.355228,105.784961 177.04061,105.784961 C171.170049,105.784961 168.588931,103.962036 168.588931,98.7481753" id="Fill-11" fill="#ED1C24"></path>
                <path d="M199.893132,78.8480099 C196.521637,78.4919332 195.214165,80.7456341 194.681665,85.7789441 C194.154524,90.762343 195.120392,92.6968142 198.743736,93.0806937 C201.864052,93.4109775 203.530877,91.6024562 204.106245,86.1655033 C204.558368,81.8862184 203.767656,79.2583523 199.893132,78.8480099 M197.655292,98.5645429 C189.602486,97.7127056 184.837113,93.6953699 185.714566,85.3903749 C186.64192,76.6314911 192.362443,72.0962865 201.119557,73.0231578 C209.222264,73.8803547 213.770953,78.0266552 212.887472,86.3825661 C211.907873,95.64391 205.808906,99.4274343 197.655292,98.5645429" id="Fill-13" fill="#ED1C24"></path>
                <path d="M93.1773524,47.0878441 C92.1307722,46.7686145 88.5084325,46.5240839 79.3239797,46.8469982 C70.1428759,47.1695776 60.238041,47.491822 59.8344797,47.4104235 C59.4329278,47.3320397 52.0218005,39.3553187 45.9027392,34.2811419 C39.7809986,29.2073002 39.2176873,28.8847208 39.1359703,29.1262366 C39.1359703,29.1262366 36.8817203,47.491822 31.323291,52.48728 L0.157305189,60.1387419 C0.157305189,60.1387419 22.1428571,71.4172955 21.5788759,72.7859967 C21.0148948,74.1546979 16.6658099,82.4509836 9.98343726,90.5878219 C9.98343726,90.5878219 27.7816637,91.7970758 47.3528807,86.3999847 C47.3528807,86.3999847 57.4201448,90.7476042 74.0100316,105.812027 C74.0100316,105.812027 78.6816307,92.2791024 76.7465458,83.0961423 C74.814475,73.9131821 74.3322108,73.3497569 76.5871307,71.3358969 C78.8417156,69.321702 85.5267675,63.0389414 89.5536731,56.0296234 C93.5802439,49.0233203 94.2225929,47.4104235 93.1773524,47.0878441" id="Fill-336" fill="#BFD62F"></path>
                <path d="M37.4502226,74.6779933 C37.4502226,74.6779933 50.9576377,78.809555 65.4704396,75.236059 C65.4704396,75.236059 53.1907887,87.741955 37.4502226,74.6779933" id="Fill-338" fill="#40606F"></path>
                <path d="M57.0153778,54.4467737 C56.2534675,54.4702219 55.5150005,55.2121879 55.4329486,56.0864684 C55.3519014,56.9610839 55.6476231,62.3755936 55.942675,64.9468492 C56.2383967,67.5184398 56.8020429,69.8431551 58.3027552,70.1141485 C59.8064816,70.3884917 60.7438825,69.9513515 60.7438825,67.2169638 C60.7438825,64.4829111 60.1805712,60.406955 59.6443873,58.0825748 C59.1071986,55.7578595 58.264241,54.4042321 57.0153778,54.4467737" id="Fill-340" fill="#40606F"></path>
                <path d="M41.2336184,55.7006461 C40.4710382,55.7277789 39.733241,56.4663952 39.6511892,57.3436905 C39.5667929,58.2605126 40.0400146,62.8184954 40.3387505,65.4205686 C40.6338024,67.9914892 41.0196137,71.0970274 42.5209958,71.3713706 C44.0220429,71.6457138 44.9621231,71.2085736 44.9621231,68.4711711 C44.9621231,65.7367834 44.3988118,61.6638422 43.861958,59.3394619 C43.3254392,57.0154166 42.4818118,55.6617892 41.2336184,55.7006461" id="Fill-342" fill="#40606F"></path>
                <path d="M93.8118311,24.7512498 C93.8118311,18.3515835 88.6248123,13.1631808 82.2261047,13.1631808 C75.8277321,13.1631808 70.6403783,18.3515835 70.6403783,24.7512498 C70.6403783,31.1509162 75.8277321,36.3393189 82.2261047,36.3393189 C88.6248123,36.3393189 93.8118311,31.1509162 93.8118311,24.7512498" id="Fill-344" fill="#EB2026"></path>
                <g id="Group-348" transform="translate(47.556604, 0.196964)">
                    <mask id="mask-3" fill="white">
                        <use xlink:href="#path-2"></use>
                    </mask>
                    <g id="Clip-347"></g>
                    <path d="M17.499792,8.72515205 C17.499792,3.98259898 13.6560797,0.13777455 8.91415047,0.13777455 C4.17255613,0.13777455 0.328843868,3.98259898 0.328843868,8.72515205 C0.328843868,13.4677051 4.17255613,17.3125296 8.91415047,17.3125296 C13.6560797,17.3125296 17.499792,13.4677051 17.499792,8.72515205" id="Fill-346" fill="#BFD62F" mask="url(#mask-3)"></path>
                </g>
                <path d="M38.8434972,11.7605803 C38.8434972,7.45818225 35.3561245,3.97010447 31.0542613,3.97010447 C26.752733,3.97010447 23.2653604,7.45818225 23.2653604,11.7605803 C23.2653604,16.0633133 26.752733,19.5510561 31.0542613,19.5510561 C35.3561245,19.5510561 38.8434972,16.0633133 38.8434972,11.7605803" id="Fill-349" fill="#F4A71C"></path>
                <path d="M20.6153189,26.0800222 C20.6153189,22.2841039 17.5388755,19.2070385 13.7437245,19.2070385 C9.94857358,19.2070385 6.87246509,22.2841039 6.87246509,26.0800222 C6.87246509,29.8759406 9.94857358,32.953006 13.7437245,32.953006 C17.5388755,32.953006 20.6153189,29.8759406 20.6153189,26.0800222" id="Fill-351" fill="#059AC1"></path>
                <path d="M10.8523835,43.9932596 C10.8523835,40.9959178 8.42297783,38.5660209 5.42624198,38.5660209 C2.42950613,38.5660209 0.000100471698,40.9959178 0.000100471698,43.9932596 C0.000100471698,46.9906013 2.42950613,49.4204982 5.42624198,49.4204982 C8.42297783,49.4204982 10.8523835,46.9906013 10.8523835,43.9932596" id="Fill-353" fill="#BFD62F"></path>
                <g id="Group" transform="translate(14.066038, 99.152120)">
                    <path d="M60.1495775,6.72842504 C60.1495775,6.72842504 40.0031701,-1.61740986 5.66416567,0.679312143 C5.66416567,0.679312143 -6.56528294,0.776356735 5.5676174,7.82826374 C8.30315195,9.47802181 12.840921,11.4189136 38.6836769,9.41332541 C45.0558633,8.92810245 60.1495775,6.72842504 60.1495775,6.72842504 L60.1495775,6.72842504 Z" id="Shape" fill="#FFFFFF"></path>
                    <path d="M60.1173948,6.72842504 C60.1173948,6.72842504 40.0997184,-1.55271347 5.92162775,0.71166034 C5.92162775,0.71166034 -6.24345535,0.808704932 5.82507947,7.82826374 C8.56061403,9.44567361 13.0662004,11.4189136 38.7480425,9.38097721 C45.1202288,8.89575426 60.1173948,6.72842504 60.1173948,6.72842504 L60.1173948,6.72842504 Z" id="Shape" fill="#FDFEFE"></path>
                    <path d="M60.1173948,6.72842504 C60.1173948,6.72842504 40.1962666,-1.52036527 6.21127259,0.744008538 C6.21127259,0.744008538 -5.88944499,0.84105313 6.08254155,7.82826374 C8.78589335,9.44567361 13.2592969,11.3865654 38.8445907,9.38097721 C45.1845944,8.89575426 60.1173948,6.72842504 60.1173948,6.72842504 L60.1173948,6.72842504 Z" id="Shape" fill="#FBFCFD"></path>
                    <path d="M60.085212,6.72842504 C60.085212,6.72842504 40.2928149,-1.45566888 6.46873466,0.776356735 C6.46873466,0.776356735 -5.5676174,0.873401327 6.34000362,7.82826374 C9.04335542,9.44567361 13.4845762,11.3865654 38.9089562,9.38097721 C45.2489599,8.86340606 60.085212,6.72842504 60.085212,6.72842504 L60.085212,6.72842504 Z" id="Shape" fill="#FAFBFC"></path>
                    <path d="M60.085212,6.72842504 C60.085212,6.72842504 40.3893632,-1.42332068 6.7583795,0.808704932 C6.7583795,0.808704932 -5.18142428,0.905749524 6.62964846,7.82826374 C9.33300026,9.44567361 13.7420383,11.3542172 39.0376873,9.38097721 C45.3133254,8.86340606 60.085212,6.72842504 60.085212,6.72842504 L60.085212,6.72842504 Z" id="Shape" fill="#F8FAFB"></path>
                    <path d="M60.0530292,6.72842504 C60.0530292,6.72842504 40.4859115,-1.39097248 7.04802433,0.84105313 C7.04802433,0.84105313 -4.82741393,0.938097721 6.91929329,7.79591555 C9.59046233,9.38097721 13.9995004,11.2895209 39.1342356,9.34862902 C45.3776909,8.83105786 60.0530292,6.72842504 60.0530292,6.72842504 L60.0530292,6.72842504 Z" id="Shape" fill="#F7F9FA"></path>
                    <path d="M60.0530292,6.72842504 C60.0530292,6.72842504 40.5824597,-1.32627609 7.33766917,0.84105313 C7.33766917,0.84105313 -4.47340357,0.938097721 7.20893813,7.76356735 C9.88010717,9.34862902 14.2247797,11.2571727 39.2629666,9.28393262 C45.4420564,8.83105786 60.0530292,6.72842504 60.0530292,6.72842504 L60.0530292,6.72842504 Z" id="Shape" fill="#F5F8F9"></path>
                    <path d="M60.0208465,6.72842504 C60.0208465,6.72842504 40.679008,-1.29392789 7.59513124,0.873401327 C7.59513124,0.873401327 -4.15157598,0.970445919 7.46640021,7.76356735 C10.1053865,9.34862902 14.450059,11.2248245 39.3273321,9.28393262 C45.5064219,8.83105786 60.0208465,6.72842504 60.0208465,6.72842504 L60.0208465,6.72842504 Z" id="Shape" fill="#F4F7F8"></path>
                    <path d="M60.0208465,6.72842504 C60.0208465,6.72842504 40.7755563,-1.26157969 7.88477608,0.905749524 C7.88477608,0.905749524 -3.79756562,1.00279412 7.75604504,7.76356735 C10.3950313,9.34862902 14.7075211,11.2248245 39.4560632,9.28393262 C45.5707875,8.79870966 60.0208465,6.72842504 60.0208465,6.72842504 L60.0208465,6.72842504 Z" id="Shape" fill="#F3F6F8"></path>
                    <path d="M60.0208465,6.72842504 C60.0208465,6.72842504 40.9042873,-1.1968833 8.17442092,0.938097721 C8.17442092,0.938097721 -3.44355527,1.03514231 8.01350712,7.76356735 C10.6203106,9.31628082 14.9006177,11.1924763 39.5204287,9.28393262 C45.635153,8.79870966 60.0208465,6.72842504 60.0208465,6.72842504 L60.0208465,6.72842504 Z" id="Shape" fill="#F2F5F7"></path>
                    <path d="M59.9886637,6.72842504 C59.9886637,6.72842504 40.9686529,-1.1645351 8.43188299,0.970445919 C8.43188299,0.970445919 -3.12172767,1.06749051 8.27096919,7.76356735 C10.8777727,9.31628082 15.125897,11.1601281 39.616977,9.28393262 C45.6995185,8.76636147 59.9886637,6.72842504 59.9886637,6.72842504 L59.9886637,6.72842504 Z" id="Shape" fill="#F1F4F6"></path>
                    <path d="M59.9886637,6.72842504 C59.9886637,6.72842504 41.0973839,-1.13218691 8.75371059,1.00279412 C8.75371059,1.00279412 -2.73553456,1.06749051 8.59279679,7.73121915 C11.1674176,9.28393262 15.4155418,11.1277799 39.745708,9.21923623 C45.763884,8.76636147 59.9886637,6.72842504 59.9886637,6.72842504 L59.9886637,6.72842504 Z" id="Shape" fill="#EFF3F6"></path>
                    <path d="M59.956481,6.72842504 C59.956481,6.72842504 41.1939322,-1.06749051 9.01117266,1.03514231 C9.01117266,1.03514231 -2.41370696,1.09983871 8.85025887,7.73121915 C11.4248796,9.28393262 15.6408211,11.0954317 39.8422563,9.21923623 C45.8282495,8.73401327 59.956481,6.72842504 59.956481,6.72842504 L59.956481,6.72842504 Z" id="Shape" fill="#EEF3F5"></path>
                    <path d="M59.956481,6.69607684 C59.956481,6.69607684 41.2904805,-1.06749051 9.3008175,1.03514231 C9.3008175,1.03514231 -2.05969661,1.09983871 9.1399037,7.69887096 C11.6823417,9.21923623 15.8661004,11.0630835 39.9388046,9.18688803 C45.8926151,8.73401327 59.956481,6.69607684 59.956481,6.69607684 L59.956481,6.69607684 Z" id="Shape" fill="#EDF2F5"></path>
                    <path d="M59.9242982,6.69607684 C59.9242982,6.69607684 41.3870287,-1.03514231 9.55827957,1.06749051 C9.55827957,1.06749051 -1.73786901,1.13218691 9.39736578,7.69887096 C11.9398038,9.21923623 16.0913798,11.0307353 40.0353528,9.18688803 C45.9569806,8.70166507 59.9242982,6.69607684 59.9242982,6.69607684 L59.9242982,6.69607684 Z" id="Shape" fill="#ECF1F4"></path>
                    <path d="M59.9242982,6.69607684 C59.9242982,6.69607684 41.483577,-0.970445919 9.84792441,1.09983871 C9.84792441,1.09983871 -1.38385866,1.1645351 9.68701061,7.69887096 C12.1972659,9.21923623 16.3488418,11.0307353 40.1319011,9.18688803 C46.0213461,8.70166507 59.9242982,6.69607684 59.9242982,6.69607684 L59.9242982,6.69607684 Z" id="Shape" fill="#EBF0F3"></path>
                    <path d="M59.9242982,6.69607684 C59.9242982,6.69607684 41.612308,-0.938097721 10.1375692,1.13218691 C10.1375692,1.13218691 -1.0298483,1.1968833 9.94447269,7.66652276 C12.4547279,9.15453983 16.5419384,10.9660389 40.2284494,9.12219164 C46.0857116,8.66931687 59.9242982,6.69607684 59.9242982,6.69607684 L59.9242982,6.69607684 Z" id="Shape" fill="#EAF0F3"></path>
                    <path d="M59.8921154,6.69607684 C59.8921154,6.69607684 41.6766736,-0.905749524 10.4272141,1.1645351 C10.4272141,1.1645351 -0.67583795,1.2292315 10.2341175,7.66652276 C12.71219,9.15453983 16.7994005,10.9336907 40.3249977,9.12219164 C46.1500771,8.66931687 59.8921154,6.69607684 59.8921154,6.69607684 L59.8921154,6.69607684 Z" id="Shape" fill="#E9EFF2"></path>
                    <path d="M59.8921154,6.69607684 C59.8921154,6.69607684 41.8054046,-0.84105313 10.7168589,1.1645351 C10.7168589,1.1645351 -0.321827595,1.2292315 10.5237624,7.63417456 C13.0018348,9.12219164 17.0568625,10.9013425 40.4537287,9.08984344 C46.2144427,8.66931687 59.8921154,6.69607684 59.8921154,6.69607684 L59.8921154,6.69607684 Z" id="Shape" fill="#E8EEF2"></path>
                    <path d="M59.8599327,6.69607684 C59.8599327,6.69607684 41.8697701,-0.808704932 10.974321,1.1968833 C10.974321,1.1968833 6.52811138e-13,1.26157969 10.7812244,7.63417456 C13.2271142,9.12219164 17.2821419,10.8689943 40.5180942,9.08984344 C46.2788082,8.63696868 59.8599327,6.69607684 59.8599327,6.69607684 L59.8599327,6.69607684 Z" id="Shape" fill="#E8EEF1"></path>
                    <path d="M59.8599327,6.69607684 C59.8599327,6.69607684 41.9985012,-0.776356735 11.2639658,1.2292315 C11.2639658,1.2292315 0.354010355,1.29392789 11.0708693,7.63417456 C13.516759,9.08984344 17.5074212,10.8689943 40.6468253,9.05749524 C46.3431737,8.63696868 59.8599327,6.69607684 59.8599327,6.69607684 L59.8599327,6.69607684 Z" id="Shape" fill="#E7EDF1"></path>
                    <path d="M59.8277499,6.69607684 C59.8277499,6.69607684 42.0628667,-0.71166034 11.5214279,1.26157969 C11.5214279,1.26157969 0.67583795,1.32627609 11.3283313,7.60182636 C13.7420383,9.05749524 17.7327005,10.8042979 40.7111908,9.02514704 C46.4075392,8.60462048 59.8277499,6.69607684 59.8277499,6.69607684 L59.8277499,6.69607684 Z" id="Shape" fill="#E6ECF0"></path>
                    <path d="M59.8277499,6.69607684 C59.8277499,6.69607684 42.1915977,-0.679312143 11.8110727,1.29392789 C11.8110727,1.29392789 1.0298483,1.35862429 11.6179762,7.60182636 C14.0316831,9.05749524 17.9901626,10.7719497 40.8399218,9.02514704 C46.4719047,8.60462048 59.8277499,6.69607684 59.8277499,6.69607684 L59.8277499,6.69607684 Z" id="Shape" fill="#E5ECEF"></path>
                    <path d="M59.8277499,6.69607684 C59.8277499,6.69607684 42.288146,-0.646963946 12.1329003,1.32627609 C12.1329003,1.32627609 1.41604142,1.39097248 11.907621,7.60182636 C14.2891452,9.05749524 18.2154419,10.7719497 40.9364701,9.02514704 C46.5362703,8.57227228 59.8277499,6.69607684 59.8277499,6.69607684 L59.8277499,6.69607684 Z" id="Shape" fill="#E4EBEF"></path>
                    <path d="M59.7955672,6.69607684 C59.7955672,6.69607684 42.3846943,-0.582267551 12.3903624,1.35862429 C12.3903624,1.35862429 1.73786901,1.42332068 12.1650831,7.60182636 C14.5466073,9.02514704 18.4407212,10.7396015 41.0008356,9.02514704 C46.6006358,8.57227228 59.7955672,6.69607684 59.7955672,6.69607684 L59.7955672,6.69607684 Z" id="Shape" fill="#E3EAEE"></path>
                    <path d="M59.7955672,6.69607684 C59.7955672,6.69607684 42.4812426,-0.549919354 12.6800072,1.39097248 C12.6800072,1.39097248 2.09187937,1.45566888 12.4547279,7.60182636 C14.8040694,9.02514704 18.6981833,10.7396015 41.1295667,8.99279885 C46.6650013,8.53992409 59.7955672,6.69607684 59.7955672,6.69607684 L59.7955672,6.69607684 Z" id="Shape" fill="#E2EAEE"></path>
                    <path d="M59.7633844,6.69607684 C59.7633844,6.69607684 42.5777908,-0.517571157 12.9374693,1.42332068 C12.9374693,1.42332068 2.41370696,1.48801708 12.71219,7.60182636 C15.0615315,9.02514704 18.9234626,10.7072533 41.1939322,8.99279885 C46.7293668,8.53992409 59.7633844,6.69607684 59.7633844,6.69607684 L59.7633844,6.69607684 Z" id="Shape" fill="#E1E9ED"></path>
                    <path d="M59.7633844,6.69607684 C59.7633844,6.69607684 42.6743391,-0.452874762 13.2271142,1.45566888 C13.2271142,1.45566888 2.76771732,1.52036527 13.0018348,7.56947817 C15.3189935,8.99279885 19.1487419,10.6749051 41.3226632,8.96045065 C46.7937323,8.53992409 59.7633844,6.69607684 59.7633844,6.69607684 L59.7633844,6.69607684 Z" id="Shape" fill="#E1E9ED"></path>
                    <path d="M59.7312017,6.66372864 C59.7312017,6.66372864 42.7708874,-0.452874762 13.4845762,1.45566888 C13.4845762,1.45566888 3.08954491,1.52036527 13.2592969,7.53712997 C15.5764556,8.92810245 19.3740212,10.6102087 41.3870287,8.92810245 C46.8580978,8.50757589 59.7312017,6.66372864 59.7312017,6.66372864 L59.7312017,6.66372864 Z" id="Shape" fill="#E0E8ED"></path>
                    <path d="M59.7312017,6.66372864 C59.7312017,6.66372864 42.8674357,-0.388178368 13.7742211,1.48801708 C13.7742211,1.48801708 3.44355527,1.55271347 13.5489418,7.53712997 C15.8339177,8.92810245 19.6314833,10.5778605 41.5157598,8.92810245 C46.9224634,8.50757589 59.7312017,6.66372864 59.7312017,6.66372864 L59.7312017,6.66372864 Z" id="Shape" fill="#DFE8EC"></path>
                    <path d="M59.6990189,6.66372864 C59.6990189,6.66372864 42.9639839,-0.35583017 14.0638659,1.48801708 C14.0638659,1.48801708 3.79756562,1.55271347 13.8064038,7.50478177 C16.0913798,8.89575426 19.8245799,10.5455123 41.5801253,8.86340606 C46.9868289,8.47522769 59.6990189,6.66372864 59.6990189,6.66372864 L59.6990189,6.66372864 Z" id="Shape" fill="#DFE7EC"></path>
                    <path d="M59.6990189,6.66372864 C59.6990189,6.66372864 43.0605322,-0.323481973 14.3535107,1.52036527 C14.3535107,1.52036527 4.15157598,1.58506167 14.0960487,7.50478177 C16.3488418,8.86340606 20.0820419,10.5131641 41.7088563,8.86340606 C47.0511944,8.47522769 59.6990189,6.66372864 59.6990189,6.66372864 L59.6990189,6.66372864 Z" id="Shape" fill="#DEE6EB"></path>
                    <path d="M59.6990189,6.66372864 C59.6990189,6.66372864 43.1892633,-0.258785578 14.6431556,1.55271347 C14.6431556,1.55271347 4.50558633,1.61740986 14.3856935,7.47243357 C16.6384867,8.83105786 20.339504,10.4808159 41.8054046,8.83105786 C47.1155599,8.44287949 59.6990189,6.66372864 59.6990189,6.66372864 L59.6990189,6.66372864 Z" id="Shape" fill="#DDE6EA"></path>
                    <path d="M59.6668361,6.66372864 C59.6668361,6.66372864 43.2536288,-0.226437381 14.9006177,1.58506167 C14.9006177,1.58506167 4.82741393,1.64975806 14.6431556,7.47243357 C16.863766,8.83105786 20.5647833,10.4484677 41.9019529,8.83105786 C47.1799254,8.44287949 59.6668361,6.66372864 59.6668361,6.66372864 L59.6668361,6.66372864 Z" id="Shape" fill="#DCE5EA"></path>
                    <path d="M59.6668361,6.66372864 C59.6668361,6.66372864 43.3823598,-0.194089184 15.1902625,1.61740986 C15.1902625,1.61740986 5.18142428,1.68210626 14.9328004,7.47243357 C17.1534108,8.83105786 20.7900626,10.4161195 41.9985012,8.83105786 C47.2764737,8.4105313 59.6668361,6.66372864 59.6668361,6.66372864 L59.6668361,6.66372864 Z" id="Shape" fill="#DBE4E9"></path>
                    <path d="M59.6346534,6.66372864 C59.6346534,6.66372864 43.4467253,-0.129392789 15.4477246,1.64975806 C15.4477246,1.64975806 5.50325188,1.71445446 15.1902625,7.47243357 C17.3786901,8.79870966 21.015342,10.4161195 42.0950494,8.79870966 C47.3408392,8.4105313 59.6346534,6.66372864 59.6346534,6.66372864 L59.6346534,6.66372864 Z" id="Shape" fill="#DAE3E9"></path>
                    <path d="M59.6346534,6.66372864 C59.6346534,6.66372864 43.5754564,-0.0970445919 15.7695522,1.68210626 C15.7695522,1.68210626 5.88944499,1.74680265 15.5120901,7.47243357 C17.7005177,8.79870966 21.3049868,10.3837713 42.2237805,8.79870966 C47.4052048,8.4105313 59.6346534,6.66372864 59.6346534,6.66372864 L59.6346534,6.66372864 Z" id="Shape" fill="#D9E3E8"></path>
                    <path d="M59.6024706,6.66372864 C59.6024706,6.66372864 43.6720047,-0.0646963946 16.0270142,1.71445446 C16.0270142,1.71445446 6.21127259,1.77915085 15.7373694,7.47243357 C17.8936143,8.79870966 21.4659006,10.3837713 42.288146,8.79870966 C47.4695703,8.3781831 59.6024706,6.66372864 59.6024706,6.66372864 L59.6024706,6.66372864 Z" id="Shape" fill="#D8E2E8"></path>
                    <path d="M59.6024706,6.66372864 C59.6024706,6.66372864 43.7685529,3.24185123e-14 16.3166591,1.74680265 C16.3166591,1.74680265 6.56528294,1.77915085 16.0270142,7.44008538 C18.1832591,8.76636147 21.7233627,10.3190749 42.3846943,8.76636147 C47.5339358,8.3781831 59.6024706,6.66372864 59.6024706,6.66372864 L59.6024706,6.66372864 Z" id="Shape" fill="#D7E1E7"></path>
                    <path d="M59.6024706,6.66372864 C59.6024706,6.66372864 43.897284,0.0323481973 16.6063039,1.77915085 C16.6063039,1.77915085 6.91929329,1.81149905 16.3166591,7.44008538 C18.4407212,8.73401327 21.9808247,10.3190749 42.5134253,8.76636147 C47.5983013,8.3458349 59.6024706,6.66372864 59.6024706,6.66372864 L59.6024706,6.66372864 Z" id="Shape" fill="#D7E1E6"></path>
                    <path d="M59.5702879,6.66372864 C59.5702879,6.66372864 43.9616495,0.0646963946 16.863766,1.81149905 C16.863766,1.81149905 7.24112089,1.84384725 16.5741211,7.44008538 C18.6981833,8.73401327 22.2061041,10.2867267 42.5777908,8.73401327 C47.6626668,8.3458349 59.5702879,6.66372864 59.5702879,6.66372864 L59.5702879,6.66372864 Z" id="Shape" fill="#D6E0E6"></path>
                    <path d="M59.5702879,6.66372864 C59.5702879,6.66372864 44.0903805,0.129392789 17.1534108,1.84384725 C17.1534108,1.84384725 7.59513124,1.87619544 16.863766,7.44008538 C18.9556454,8.73401327 22.4313834,10.2543785 42.7065219,8.73401327 C47.7270324,8.3134867 59.5702879,6.66372864 59.5702879,6.66372864 L59.5702879,6.66372864 Z" id="Shape" fill="#D5DFE5"></path>
                    <path d="M59.5381051,6.66372864 C59.5381051,6.66372864 44.154746,0.161740986 17.4430557,1.84384725 C17.4430557,1.84384725 7.9491416,1.87619544 17.1534108,7.40773718 C19.2452902,8.70166507 22.6888455,10.2220303 42.8030701,8.70166507 C47.7913979,8.3134867 59.5381051,6.66372864 59.5381051,6.66372864 L59.5381051,6.66372864 Z" id="Shape" fill="#D4DFE5"></path>
                    <path d="M59.5381051,6.63138044 C59.5381051,6.63138044 44.2834771,0.161740986 17.7327005,1.84384725 C17.7327005,1.84384725 8.30315195,1.87619544 17.4430557,7.34304079 C19.5027523,8.60462048 22.9463075,10.1249858 42.9318012,8.63696868 C47.8557634,8.28113851 59.5381051,6.63138044 59.5381051,6.63138044 L59.5381051,6.63138044 Z" id="Shape" fill="#D3DEE4"></path>
                    <path d="M59.5059223,6.63138044 C59.5059223,6.63138044 44.3478426,0.226437381 17.9901626,1.87619544 C17.9901626,1.87619544 8.62497955,1.90854364 17.7005177,7.34304079 C19.7602143,8.60462048 23.1394041,10.1249858 42.9961667,8.60462048 C47.9201289,8.28113851 59.5059223,6.63138044 59.5059223,6.63138044 L59.5059223,6.63138044 Z" id="Shape" fill="#D2DDE4"></path>
                    <path d="M59.5059223,6.63138044 C59.5059223,6.63138044 44.4765736,0.258785578 18.2798074,1.90854364 C18.2798074,1.90854364 8.9789899,1.94089184 17.9579798,7.34304079 C19.9854937,8.60462048 23.3646834,10.0926376 43.092715,8.60462048 C47.9844944,8.24879031 59.5059223,6.63138044 59.5059223,6.63138044 L59.5059223,6.63138044 Z" id="Shape" fill="#D1DDE3"></path>
                    <path d="M59.5059223,6.63138044 C59.5059223,6.63138044 44.5731219,0.291133776 18.5694522,1.94089184 C18.5694522,1.94089184 9.33300026,1.97324003 18.2476246,7.34304079 C20.2751385,8.60462048 23.6221455,10.0602894 43.1892633,8.60462048 C48.0488599,8.24879031 59.5059223,6.63138044 59.5059223,6.63138044 L59.5059223,6.63138044 Z" id="Shape" fill="#D1DCE3"></path>
                    <path d="M59.4737396,6.63138044 C59.4737396,6.63138044 44.6696702,0.35583017 18.8269143,1.97324003 C18.8269143,1.97324003 9.65482785,2.00558823 18.5050867,7.34304079 C20.5004178,8.57227228 23.8474248,10.0602894 43.2536288,8.60462048 C48.1132255,8.24879031 59.4737396,6.63138044 59.4737396,6.63138044 L59.4737396,6.63138044 Z" id="Shape" fill="#D0DBE2"></path>
                    <path d="M59.4737396,6.63138044 C59.4737396,6.63138044 44.7662185,0.388178368 19.1487419,2.00558823 C19.1487419,2.00558823 10.041021,2.03793643 18.8269143,7.34304079 C20.8222454,8.57227228 24.1048869,10.0279412 43.4145426,8.60462048 C48.177591,8.21644211 59.4737396,6.63138044 59.4737396,6.63138044 L59.4737396,6.63138044 Z" id="Shape" fill="#CFDBE1"></path>
                    <path d="M59.4415568,6.63138044 C59.4415568,6.63138044 44.8627668,0.420526565 19.406204,2.03793643 C19.406204,2.03793643 10.3950313,2.07028463 19.0843764,7.31069259 C21.0475247,8.53992409 24.3301662,9.99559296 43.4789081,8.53992409 C48.2419565,8.21644211 59.4415568,6.63138044 59.4415568,6.63138044 L59.4415568,6.63138044 Z" id="Shape" fill="#CEDAE1"></path>
                    <path d="M59.4415568,6.63138044 C59.4415568,6.63138044 44.959315,0.485222959 19.6958488,2.07028463 C19.6958488,2.07028463 10.7490417,2.10263282 19.3740212,7.31069259 C21.3371696,8.50757589 24.5876283,9.96324477 43.6076391,8.53992409 C48.306322,8.18409391 59.4415568,6.63138044 59.4415568,6.63138044 L59.4415568,6.63138044 Z" id="Shape" fill="#CDD9E0"></path>
                    <path d="M59.4093741,6.63138044 C59.4093741,6.63138044 45.0558633,0.517571157 19.9533109,2.10263282 C19.9533109,2.10263282 11.0708693,2.13498102 19.6314833,7.31069259 C21.5624489,8.50757589 24.7807248,9.96324477 43.6720047,8.53992409 C48.3706875,8.18409391 59.4093741,6.63138044 59.4093741,6.63138044 L59.4093741,6.63138044 Z" id="Shape" fill="#CDD9E0"></path>
                    <path d="M59.4093741,6.63138044 C59.4093741,6.63138044 45.1524116,0.549919354 20.2429557,2.13498102 C20.2429557,2.13498102 11.4248796,2.16732922 19.8889454,7.31069259 C21.8199109,8.50757589 25.0060041,9.93089657 43.7685529,8.53992409 C48.4350531,8.15174572 59.4093741,6.63138044 59.4093741,6.63138044 L59.4093741,6.63138044 Z" id="Shape" fill="#CCD8DF"></path>
                    <path d="M59.3771913,6.63138044 C59.3771913,6.63138044 45.1845944,0.582267551 20.3716868,2.13498102 C20.3716868,2.13498102 11.5857934,2.16732922 20.0176764,7.27834439 C21.948642,8.47522769 25.1347352,9.89854837 43.8007357,8.50757589 C48.4350531,8.15174572 59.3771913,6.63138044 59.3771913,6.63138044 L59.3771913,6.63138044 Z" id="Shape" fill="#CBD8DF"></path>
                    <path d="M59.3771913,6.63138044 C59.3771913,6.63138044 45.2489599,0.614615749 20.5004178,2.16732922 C20.5004178,2.16732922 11.7467072,2.19967742 20.1464075,7.31069259 C22.0451903,8.50757589 25.2312835,9.89854837 43.8329185,8.53992409 C48.4672358,8.15174572 59.3771913,6.63138044 59.3771913,6.63138044 L59.3771913,6.63138044 Z" id="Shape" fill="#CAD7DE"></path>
                    <path d="M59.3450085,6.63138044 C59.3450085,6.63138044 45.2489599,0.646963946 20.6291488,2.16732922 C20.6291488,2.16732922 11.907621,2.19967742 20.2751385,7.27834439 C22.1739213,8.47522769 25.3278317,9.86620017 43.897284,8.47522769 C48.4994186,8.15174572 59.3450085,6.63138044 59.3450085,6.63138044 L59.3450085,6.63138044 Z" id="Shape" fill="#C9D6DE"></path>
                    <path d="M59.3450085,6.63138044 C59.3450085,6.63138044 45.3133254,0.646963946 20.7578799,2.19967742 C20.7578799,2.19967742 12.0685348,2.23202561 20.4360523,7.27834439 C22.3348351,8.44287949 25.4887455,9.86620017 43.9616495,8.47522769 C48.5316013,8.11939752 59.3450085,6.63138044 59.3450085,6.63138044 L59.3450085,6.63138044 Z" id="Shape" fill="#C8D6DD"></path>
                    <path d="M59.3128258,6.63138044 C59.3128258,6.63138044 45.3455082,0.679312143 20.8866109,2.19967742 C20.8866109,2.19967742 12.2294486,2.23202561 20.5647833,7.27834439 C22.4635661,8.44287949 25.5852938,9.83385198 43.9938323,8.47522769 C48.5316013,8.11939752 59.3128258,6.63138044 59.3128258,6.63138044 L59.3128258,6.63138044 Z" id="Shape" fill="#C8D5DC"></path>
                    <path d="M59.3128258,6.63138044 C59.3128258,6.63138044 45.3776909,0.71166034 21.015342,2.19967742 C21.015342,2.19967742 12.3903624,2.23202561 20.6935144,7.24599619 C22.5922972,8.4105313 25.7140248,9.80150378 44.026015,8.44287949 C48.5637841,8.11939752 59.3128258,6.63138044 59.3128258,6.63138044 L59.3128258,6.63138044 Z" id="Shape" fill="#C7D4DC"></path>
                    <path d="M59.280643,6.59903225 C59.280643,6.59903225 45.4098737,0.679312143 21.144073,2.19967742 C21.144073,2.19967742 12.5512762,2.23202561 20.8222454,7.24599619 C22.6888455,8.4105313 25.8105731,9.80150378 44.0903805,8.44287949 C48.5959669,8.11939752 59.280643,6.59903225 59.280643,6.59903225 L59.280643,6.59903225 Z" id="Shape" fill="#C6D4DB"></path>
                    <path d="M59.2484603,6.59903225 C59.2484603,6.59903225 45.4098737,0.71166034 21.2406213,2.19967742 C21.2406213,2.19967742 12.6800072,2.23202561 20.9187937,7.213648 C22.7853937,8.3781831 25.8749386,9.76915558 44.0903805,8.4105313 C48.5959669,8.08704932 59.2484603,6.59903225 59.2484603,6.59903225 L59.2484603,6.59903225 Z" id="Shape" fill="#C5D3DB"></path>
                    <path d="M59.2484603,6.59903225 C59.2484603,6.59903225 45.4742392,0.744008538 21.4015351,2.23202561 C21.4015351,2.23202561 12.8731038,2.26437381 21.0797075,7.213648 C22.9463075,8.3781831 26.0358524,9.73680738 44.154746,8.4105313 C48.6281496,8.08704932 59.2484603,6.59903225 59.2484603,6.59903225 L59.2484603,6.59903225 Z" id="Shape" fill="#C4D2DA"></path>
                    <path d="M59.2162775,6.59903225 C59.2162775,6.59903225 45.5064219,0.744008538 21.4980834,2.23202561 C21.4980834,2.23202561 13.0018348,2.26437381 21.1762558,7.213648 C23.0428558,8.3781831 26.100218,9.73680738 44.1869288,8.4105313 C48.6603324,8.08704932 59.2162775,6.59903225 59.2162775,6.59903225 L59.2162775,6.59903225 Z" id="Shape" fill="#C4D2DA"></path>
                    <path d="M59.2162775,6.59903225 C59.2162775,6.59903225 45.5386047,0.776356735 21.6589972,2.26437381 C21.6589972,2.26437381 13.1949314,2.29672201 21.3371696,7.213648 C23.1715868,8.3458349 26.2611318,9.73680738 44.2512943,8.4105313 C48.6603324,8.08704932 59.2162775,6.59903225 59.2162775,6.59903225 L59.2162775,6.59903225 Z" id="Shape" fill="#C3D1D9"></path>
                    <path d="M59.1840947,6.59903225 C59.1840947,6.59903225 45.5707875,0.808704932 21.7555454,2.26437381 C21.7555454,2.26437381 13.3236624,2.29672201 21.4337178,7.213648 C23.2681351,8.3458349 26.3254973,9.70445919 44.2512943,8.3781831 C48.6925151,8.05470113 59.1840947,6.59903225 59.1840947,6.59903225 L59.1840947,6.59903225 Z" id="Shape" fill="#C2D0D9"></path>
                    <path d="M59.1840947,6.59903225 C59.1840947,6.59903225 45.635153,0.808704932 21.9164592,2.29672201 C21.9164592,2.29672201 13.516759,2.32907021 21.5946316,7.213648 C23.4290489,8.3458349 26.4864111,9.70445919 44.3156598,8.3781831 C48.7246979,8.05470113 59.1840947,6.59903225 59.1840947,6.59903225 L59.1840947,6.59903225 Z" id="Shape" fill="#C1D0D8"></path>
                    <path d="M59.151912,6.59903225 C59.151912,6.59903225 45.635153,0.84105313 22.0130075,2.29672201 C22.0130075,2.29672201 13.64549,2.32907021 21.6911799,7.213648 C23.5255972,8.3458349 26.5507766,9.70445919 44.3478426,8.3781831 C48.7568807,8.05470113 59.151912,6.59903225 59.151912,6.59903225 L59.151912,6.59903225 Z" id="Shape" fill="#C0CFD7"></path>
                    <path d="M59.151912,6.59903225 C59.151912,6.59903225 45.6995185,0.873401327 22.1739213,2.32907021 C22.1739213,2.32907021 13.8385866,2.3614184 21.8520937,7.213648 C23.686511,8.3458349 26.6795076,9.70445919 44.4122081,8.3781831 C48.7568807,8.05470113 59.151912,6.59903225 59.151912,6.59903225 L59.151912,6.59903225 Z" id="Shape" fill="#C0CFD7"></path>
                    <path d="M59.1197292,6.59903225 C59.1197292,6.59903225 45.7317013,0.873401327 22.2704696,2.32907021 C22.2704696,2.32907021 13.9673176,2.3614184 21.948642,7.1812998 C23.7508765,8.3134867 26.7760559,9.63976279 44.4122081,8.3458349 C48.7890634,8.02235293 59.1197292,6.59903225 59.1197292,6.59903225 L59.1197292,6.59903225 Z" id="Shape" fill="#BFCED6"></path>
                    <path d="M59.0875465,6.59903225 C59.0875465,6.59903225 45.7317013,0.905749524 22.3992006,2.3614184 C22.3992006,2.3614184 14.1282314,2.3937666 22.077373,7.213648 C23.8796076,8.3458349 26.8726042,9.67211099 44.4443909,8.3781831 C48.8212462,8.02235293 59.0875465,6.59903225 59.0875465,6.59903225 L59.0875465,6.59903225 Z" id="Shape" fill="#BECDD6"></path>
                    <path d="M59.0875465,6.59903225 C59.0875465,6.59903225 45.7960668,0.938097721 22.5279317,2.3614184 C22.5279317,2.3614184 14.2891452,2.3937666 22.2061041,7.1812998 C24.0083386,8.3134867 27.0013352,9.63976279 44.5087564,8.3458349 C48.8212462,8.02235293 59.0875465,6.59903225 59.0875465,6.59903225 L59.0875465,6.59903225 Z" id="Shape" fill="#BDCDD5"></path>
                    <path d="M59.0553637,6.59903225 C59.0553637,6.59903225 45.7960668,0.938097721 22.6566627,2.3937666 C22.6566627,2.3937666 14.450059,2.4261148 22.3348351,7.213648 C24.1370696,8.3134867 27.0978835,9.63976279 44.5409392,8.3781831 C48.8534289,8.02235293 59.0553637,6.59903225 59.0553637,6.59903225 L59.0553637,6.59903225 Z" id="Shape" fill="#BCCCD5"></path>
                    <path d="M59.0553637,6.59903225 C59.0553637,6.59903225 45.8604323,0.970445919 22.7853937,2.3937666 C22.7853937,2.3937666 14.6109728,2.4261148 22.4635661,7.1812998 C24.2336179,8.28113851 27.1944318,9.6074146 44.5731219,8.3458349 C48.8856117,7.99000473 59.0553637,6.59903225 59.0553637,6.59903225 L59.0553637,6.59903225 Z" id="Shape" fill="#BCCBD4"></path>
                    <path d="M59.0231809,6.59903225 C59.0231809,6.59903225 45.8926151,1.00279412 22.9141248,2.4261148 C22.9141248,2.4261148 14.7718866,2.45846299 22.5922972,7.1812998 C24.3623489,8.28113851 27.3231628,9.6074146 44.6053047,8.3134867 C48.8856117,7.99000473 59.0231809,6.59903225 59.0231809,6.59903225 L59.0231809,6.59903225 Z" id="Shape" fill="#BBCBD4"></path>
                    <path d="M59.0231809,6.59903225 C59.0231809,6.59903225 45.9247978,1.00279412 23.0428558,2.4261148 C23.0428558,2.4261148 14.9328004,2.45846299 22.7210282,7.1812998 C24.49108,8.28113851 27.4197111,9.5750664 44.6696702,8.3134867 C48.9177945,7.99000473 59.0231809,6.59903225 59.0231809,6.59903225 L59.0231809,6.59903225 Z" id="Shape" fill="#BACAD3"></path>
                    <path d="M58.9909982,6.56668405 C58.9909982,6.56668405 45.9569806,1.00279412 23.1715868,2.4261148 C23.1715868,2.4261148 15.0937142,2.45846299 22.8497593,7.1489516 C24.619811,8.24879031 27.5484421,9.5427182 44.701853,8.28113851 C48.9499772,7.99000473 58.9909982,6.56668405 58.9909982,6.56668405 L58.9909982,6.56668405 Z" id="Shape" fill="#B9C9D2"></path>
                    <path d="M58.9909982,6.56668405 C58.9909982,6.56668405 46.0213461,1.03514231 23.3003179,2.4261148 C23.3003179,2.4261148 15.254628,2.45846299 22.9784903,7.1489516 C24.7485421,8.24879031 27.6449904,9.5427182 44.7340357,8.28113851 C48.98216,7.95765653 58.9909982,6.56668405 58.9909982,6.56668405 L58.9909982,6.56668405 Z" id="Shape" fill="#B8C9D2"></path>
                    <path d="M58.9588154,6.56668405 C58.9588154,6.56668405 46.0213461,1.03514231 23.4290489,2.45846299 C23.4290489,2.45846299 15.4155418,2.49081119 23.1072213,7.1489516 C24.8450903,8.24879031 27.7415387,9.5427182 44.7662185,8.28113851 C48.98216,7.95765653 58.9588154,6.56668405 58.9588154,6.56668405 L58.9588154,6.56668405 Z" id="Shape" fill="#B8C8D1"></path>
                    <path d="M58.9266327,6.56668405 C58.9266327,6.56668405 46.0535289,1.06749051 23.5255972,2.45846299 C23.5255972,2.45846299 15.5442728,2.49081119 23.2037696,7.1166034 C24.9416386,8.18409391 27.838087,9.47802181 44.7984012,8.24879031 C49.0143427,7.95765653 58.9266327,6.56668405 58.9266327,6.56668405 L58.9266327,6.56668405 Z" id="Shape" fill="#B7C7D1"></path>
                    <path d="M58.9266327,6.56668405 C58.9266327,6.56668405 46.1178944,1.09983871 23.686511,2.45846299 C23.686511,2.45846299 15.7373694,2.49081119 23.3646834,7.1166034 C25.1025524,8.18409391 27.966818,9.47802181 44.8627668,8.24879031 C49.0465255,7.95765653 58.9266327,6.56668405 58.9266327,6.56668405 L58.9266327,6.56668405 Z" id="Shape" fill="#B6C7D0"></path>
                    <path d="M58.8944499,6.56668405 C58.8944499,6.56668405 46.1178944,1.09983871 23.7830593,2.49081119 C23.7830593,2.49081119 15.8661004,2.52315939 23.4612317,7.1166034 C25.1991007,8.18409391 28.0633663,9.47802181 44.8627668,8.24879031 C49.0465255,7.92530834 58.8944499,6.56668405 58.8944499,6.56668405 L58.8944499,6.56668405 Z" id="Shape" fill="#B5C6D0"></path>
                    <path d="M58.8944499,6.56668405 C58.8944499,6.56668405 46.1822599,1.13218691 23.9439731,2.49081119 C23.9439731,2.49081119 16.059197,2.52315939 23.6221455,7.1166034 C25.3278317,8.18409391 28.1920973,9.44567361 44.959315,8.21644211 C49.0787083,7.92530834 58.8944499,6.56668405 58.8944499,6.56668405 L58.8944499,6.56668405 Z" id="Shape" fill="#B4C6CF"></path>
                    <path d="M58.8622671,6.56668405 C58.8622671,6.56668405 46.1822599,1.1645351 24.0405214,2.52315939 C24.0405214,2.52315939 16.187928,2.55550759 23.7186938,7.1166034 C25.42438,8.18409391 28.2564629,9.44567361 44.959315,8.21644211 C49.110891,7.92530834 58.8622671,6.56668405 58.8622671,6.56668405 L58.8622671,6.56668405 Z" id="Shape" fill="#B4C5CF"></path>
                    <path d="M58.8622671,6.56668405 C58.8622671,6.56668405 46.2466254,1.1968833 24.2014352,2.52315939 C24.2014352,2.52315939 16.3810246,2.55550759 23.8796076,7.08425521 C25.5852938,8.15174572 28.4173766,9.41332541 45.0236806,8.18409391 C49.110891,7.92530834 58.8622671,6.56668405 58.8622671,6.56668405 L58.8622671,6.56668405 Z" id="Shape" fill="#B3C4CE"></path>
                    <path d="M58.8300844,6.56668405 C58.8300844,6.56668405 46.2788082,1.1968833 24.2979834,2.55550759 C24.2979834,2.55550759 16.5097556,2.58785578 23.9761558,7.1166034 C25.6818421,8.18409391 28.4817422,9.44567361 45.0236806,8.21644211 C49.1430738,7.89296014 58.8300844,6.56668405 58.8300844,6.56668405 L58.8300844,6.56668405 Z" id="Shape" fill="#B2C4CD"></path>
                    <path d="M58.7979016,6.56668405 C58.7979016,6.56668405 46.2788082,1.2292315 24.3945317,2.55550759 C24.3945317,2.55550759 16.6384867,2.58785578 24.0727041,7.08425521 C25.7783904,8.11939752 28.5782904,9.38097721 45.0558633,8.18409391 C49.1752565,7.89296014 58.7979016,6.56668405 58.7979016,6.56668405 L58.7979016,6.56668405 Z" id="Shape" fill="#B1C3CD"></path>
                    <path d="M58.7979016,6.56668405 C58.7979016,6.56668405 46.3431737,1.26157969 24.5554455,2.58785578 C24.5554455,2.58785578 16.8315832,2.62020398 24.2658007,7.1166034 C25.9393042,8.15174572 28.7392042,9.41332541 45.1524116,8.21644211 C49.1752565,7.89296014 58.7979016,6.56668405 58.7979016,6.56668405 L58.7979016,6.56668405 Z" id="Shape" fill="#B0C2CC"></path>
                    <path d="M58.7657189,6.56668405 C58.7657189,6.56668405 46.3753565,1.26157969 24.6519938,2.58785578 C24.6519938,2.58785578 16.9603143,2.62020398 24.3623489,7.08425521 C26.0358524,8.11939752 28.8357525,9.38097721 45.1524116,8.18409391 C49.2074393,7.89296014 58.7657189,6.56668405 58.7657189,6.56668405 L58.7657189,6.56668405 Z" id="Shape" fill="#B0C2CC"></path>
                    <path d="M58.7657189,6.56668405 C58.7657189,6.56668405 46.4075392,1.29392789 24.8129076,2.62020398 C24.8129076,2.62020398 17.1534108,2.65255218 24.5232627,7.1166034 C26.1967662,8.15174572 28.9644836,9.38097721 45.2167771,8.21644211 C49.2396221,7.89296014 58.7657189,6.56668405 58.7657189,6.56668405 L58.7657189,6.56668405 Z" id="Shape" fill="#AFC1CB"></path>
                    <path d="M58.7335361,6.56668405 C58.7335361,6.56668405 46.439722,1.32627609 24.9094559,2.62020398 C24.9094559,2.62020398 17.2821419,2.62020398 24.619811,7.08425521 C26.2933145,8.11939752 29.0288491,9.34862902 45.2489599,8.18409391 C49.2718048,7.86061194 58.7335361,6.56668405 58.7335361,6.56668405 L58.7335361,6.56668405 Z" id="Shape" fill="#AEC0CB"></path>
                    <path d="M58.7335361,6.56668405 C58.7335361,6.56668405 46.5040875,1.32627609 25.0703697,2.65255218 C25.0703697,2.65255218 17.4752384,2.65255218 24.7807248,7.08425521 C26.4220456,8.11939752 29.1897629,9.34862902 45.3133254,8.15174572 C49.2718048,7.86061194 58.7335361,6.56668405 58.7335361,6.56668405 L58.7335361,6.56668405 Z" id="Shape" fill="#ADC0CA"></path>
                    <path d="M58.7013533,6.56668405 C58.7013533,6.56668405 46.5040875,1.35862429 25.1669179,2.65255218 C25.1669179,2.65255218 17.6039695,2.65255218 24.8772731,7.08425521 C26.5185938,8.11939752 29.2541284,9.31628082 45.3133254,8.15174572 C49.3039876,7.86061194 58.7013533,6.56668405 58.7013533,6.56668405 L58.7013533,6.56668405 Z" id="Shape" fill="#ADBFC9"></path>
                    <path d="M58.7013533,6.53433585 C58.7013533,6.53433585 46.568453,1.35862429 25.3278317,2.65255218 C25.3278317,2.65255218 17.797066,2.65255218 25.0381869,7.05190701 C26.6795076,8.08704932 29.4150422,9.28393262 45.3776909,8.11939752 C49.3361703,7.86061194 58.7013533,6.53433585 58.7013533,6.53433585 L58.7013533,6.53433585 Z" id="Shape" fill="#ACBFC9"></path>
                    <path d="M58.6691706,6.53433585 C58.6691706,6.53433585 46.6006358,1.35862429 25.42438,2.65255218 C25.42438,2.65255218 17.925797,2.65255218 25.1347352,7.05190701 C26.7760559,8.05470113 29.4794077,9.28393262 45.4098737,8.11939752 C49.3361703,7.82826374 58.6691706,6.53433585 58.6691706,6.53433585 L58.6691706,6.53433585 Z" id="Shape" fill="#ABBEC8"></path>
                    <path d="M58.6369878,6.53433585 C58.6369878,6.53433585 46.6006358,1.39097248 25.5531111,2.68490038 C25.5531111,2.68490038 18.0867108,2.68490038 25.2634662,7.05190701 C26.904787,8.05470113 29.575956,9.28393262 45.4420564,8.11939752 C49.3683531,7.82826374 58.6369878,6.53433585 58.6369878,6.53433585 L58.6369878,6.53433585 Z" id="Shape" fill="#AABDC8"></path>
                    <path d="M58.6369878,6.53433585 C58.6369878,6.53433585 46.6650013,1.42332068 25.6818421,2.68490038 C25.6818421,2.68490038 18.2476246,2.68490038 25.3921973,7.01955881 C27.0013352,8.02235293 29.704687,9.21923623 45.4742392,8.08704932 C49.4005358,7.82826374 58.6369878,6.53433585 58.6369878,6.53433585 L58.6369878,6.53433585 Z" id="Shape" fill="#AABDC7"></path>
                    <path d="M58.6048051,6.53433585 C58.6048051,6.53433585 46.6650013,1.42332068 25.8105731,2.71724857 C25.8105731,2.71724857 18.4085384,2.71724857 25.5209283,7.05190701 C27.1300663,8.05470113 29.8012353,9.25158443 45.5064219,8.11939752 C49.4005358,7.82826374 58.6048051,6.53433585 58.6048051,6.53433585 L58.6048051,6.53433585 Z" id="Shape" fill="#A9BCC7"></path>
                    <path d="M58.6048051,6.53433585 C58.6048051,6.53433585 46.7293668,1.45566888 25.9393042,2.71724857 C25.9393042,2.71724857 18.5694522,2.71724857 25.6496593,7.01955881 C27.2587973,8.02235293 29.9299663,9.21923623 45.5707875,8.08704932 C49.4327186,7.79591555 58.6048051,6.53433585 58.6048051,6.53433585 L58.6048051,6.53433585 Z" id="Shape" fill="#A8BBC6"></path>
                    <path d="M58.5726223,6.53433585 C58.5726223,6.53433585 46.7615496,1.48801708 26.0680352,2.74959677 C26.0680352,2.74959677 18.730366,2.74959677 25.7783904,7.05190701 C27.3875283,8.05470113 30.0265146,9.21923623 45.6029702,8.08704932 C49.4649014,7.79591555 58.5726223,6.53433585 58.5726223,6.53433585 L58.5726223,6.53433585 Z" id="Shape" fill="#A7BBC5"></path>
                    <path d="M58.5726223,6.53433585 C58.5726223,6.53433585 46.7937323,1.48801708 26.1967662,2.74959677 C26.1967662,2.74959677 18.8912798,2.74959677 25.9071214,7.01955881 C27.4840766,8.02235293 30.1230629,9.18688803 45.635153,8.05470113 C49.4970841,7.79591555 58.5726223,6.53433585 58.5726223,6.53433585 L58.5726223,6.53433585 Z" id="Shape" fill="#A6BAC5"></path>
                    <path d="M58.5404396,6.53433585 C58.5404396,6.53433585 46.8259151,1.52036527 26.3254973,2.74959677 C26.3254973,2.74959677 19.0521936,2.74959677 26.0358524,6.98721062 C27.6128077,7.95765653 30.2517939,9.15453983 45.6995185,8.02235293 C49.4970841,7.79591555 58.5404396,6.53433585 58.5404396,6.53433585 L58.5404396,6.53433585 Z" id="Shape" fill="#A6BAC4"></path>
                    <path d="M58.5404396,6.53433585 C58.5404396,6.53433585 46.8902806,1.55271347 26.4542283,2.78194497 C26.4542283,2.78194497 19.2131074,2.78194497 26.1645835,7.01955881 C27.7415387,7.99000473 30.3483422,9.18688803 45.7317013,8.05470113 C49.5292669,7.76356735 58.5404396,6.53433585 58.5404396,6.53433585 L58.5404396,6.53433585 Z" id="Shape" fill="#A5B9C4"></path>
                    <path d="M58.5082568,6.53433585 C58.5082568,6.53433585 46.8902806,1.55271347 26.5829594,2.78194497 C26.5829594,2.78194497 19.3740212,2.78194497 26.2933145,6.98721062 C27.8702697,7.95765653 30.4770733,9.12219164 45.763884,8.02235293 C49.5614496,7.76356735 58.5082568,6.53433585 58.5082568,6.53433585 L58.5082568,6.53433585 Z" id="Shape" fill="#A4B8C3"></path>
                    <path d="M58.476074,6.53433585 C58.476074,6.53433585 46.9224634,1.58506167 26.6795076,2.81429316 C26.6795076,2.81429316 19.5027523,2.81429316 26.3898628,7.01955881 C27.966818,7.99000473 30.5414388,9.15453983 45.763884,8.05470113 C49.5614496,7.76356735 58.476074,6.53433585 58.476074,6.53433585 L58.476074,6.53433585 Z" id="Shape" fill="#A3B8C3"></path>
                    <path d="M58.476074,6.53433585 C58.476074,6.53433585 46.9868289,1.61740986 26.8404214,2.81429316 C26.8404214,2.81429316 19.6958488,2.81429316 26.5507766,6.98721062 C28.0955491,7.95765653 30.7023526,9.12219164 45.8604323,8.02235293 C49.5936324,7.76356735 58.476074,6.53433585 58.476074,6.53433585 L58.476074,6.53433585 Z" id="Shape" fill="#A3B8C3"></path>
                    <path d="M58.4438913,6.53433585 C58.4438913,6.53433585 46.9868289,1.61740986 26.9369697,2.84664136 C26.9369697,2.84664136 19.8245799,2.84664136 26.6473249,6.98721062 C28.1920973,7.95765653 30.7667181,9.08984344 45.8604323,8.02235293 C49.6258152,7.73121915 58.4438913,6.53433585 58.4438913,6.53433585 L58.4438913,6.53433585 Z" id="Shape" fill="#A3B7C2"></path>
                    <path d="M58.4438913,6.53433585 C58.4438913,6.53433585 47.0511944,1.64975806 27.0978835,2.84664136 C27.0978835,2.84664136 20.0176764,2.84664136 26.8082387,6.98721062 C28.3530111,7.95765653 30.8954491,9.08984344 45.9247978,8.02235293 C49.6258152,7.73121915 58.4438913,6.53433585 58.4438913,6.53433585 L58.4438913,6.53433585 Z" id="Shape" fill="#A2B6C1"></path>
                    <path d="M58.4117085,6.53433585 C58.4117085,6.53433585 47.0511944,1.68210626 27.1944318,2.87898956 C27.1944318,2.87898956 20.1464075,2.87898956 26.904787,6.98721062 C28.4495594,7.95765653 30.9919974,9.08984344 45.9247978,7.99000473 C49.6579979,7.73121915 58.4117085,6.53433585 58.4117085,6.53433585 L58.4117085,6.53433585 Z" id="Shape" fill="#A1B6C1"></path>
                    <path d="M58.4117085,6.53433585 C58.4117085,6.53433585 47.1155599,1.68210626 27.3553456,2.87898956 C27.3553456,2.87898956 20.339504,2.87898956 27.0657007,6.98721062 C28.5782904,7.92530834 31.1207284,9.05749524 46.0213461,7.99000473 C49.6901807,7.73121915 58.4117085,6.53433585 58.4117085,6.53433585 L58.4117085,6.53433585 Z" id="Shape" fill="#A0B5C0"></path>
                    <path d="M58.3795258,6.50198766 C58.3795258,6.50198766 47.1477427,1.68210626 27.4518939,2.87898956 C27.4518939,2.87898956 20.468235,2.87898956 27.162249,6.95486242 C28.6748387,7.89296014 31.2172767,9.02514704 46.0213461,7.95765653 C49.7223634,7.69887096 58.3795258,6.50198766 58.3795258,6.50198766 L58.3795258,6.50198766 Z" id="Shape" fill="#A0B4C0"></path>
                    <path d="M58.3795258,6.50198766 C58.3795258,6.50198766 47.1799254,1.71445446 27.6128077,2.87898956 C27.6128077,2.87898956 20.6613316,2.87898956 27.3231628,6.95486242 C28.8357525,7.89296014 31.3460078,9.02514704 46.0857116,7.95765653 C49.7223634,7.69887096 58.3795258,6.50198766 58.3795258,6.50198766 L58.3795258,6.50198766 Z" id="Shape" fill="#9FB4BF"></path>
                    <path d="M58.347343,6.50198766 C58.347343,6.50198766 47.2121082,1.74680265 27.7093559,2.91133776 C27.7093559,2.91133776 20.7900626,2.91133776 27.4197111,6.95486242 C28.9323008,7.89296014 31.4103733,9.02514704 46.0857116,7.95765653 C49.7545462,7.69887096 58.347343,6.50198766 58.347343,6.50198766 L58.347343,6.50198766 Z" id="Shape" fill="#9EB3BF"></path>
                    <path d="M58.3151602,6.50198766 C58.3151602,6.50198766 47.244291,1.74680265 27.838087,2.91133776 C27.838087,2.91133776 20.9509764,2.91133776 27.5484421,6.92251422 C29.0610318,7.86061194 31.5391043,8.96045065 46.1500771,7.92530834 C49.786729,7.69887096 58.3151602,6.50198766 58.3151602,6.50198766 L58.3151602,6.50198766 Z" id="Shape" fill="#9DB3BE"></path>
                    <path d="M58.3151602,6.50198766 C58.3151602,6.50198766 47.2764737,1.77915085 27.966818,2.94368595 C27.966818,2.94368595 21.1118902,2.94368595 27.6771732,6.95486242 C29.1575801,7.89296014 31.6356526,8.99279885 46.1822599,7.95765653 C49.786729,7.66652276 58.3151602,6.50198766 58.3151602,6.50198766 L58.3151602,6.50198766 Z" id="Shape" fill="#9DB2BD"></path>
                    <path d="M58.2829775,6.50198766 C58.2829775,6.50198766 47.3086565,1.81149905 28.0955491,2.94368595 C28.0955491,2.94368595 21.272804,2.94368595 27.8059042,6.92251422 C29.2863112,7.86061194 31.7643836,8.96045065 46.2144427,7.92530834 C49.8189117,7.66652276 58.2829775,6.50198766 58.2829775,6.50198766 L58.2829775,6.50198766 Z" id="Shape" fill="#9CB1BD"></path>
                    <path d="M58.2829775,6.50198766 C58.2829775,6.50198766 47.373022,1.81149905 28.2242801,2.97603415 C28.2242801,2.97603415 21.4337178,2.97603415 27.9346353,6.95486242 C29.4150422,7.86061194 31.8609319,8.96045065 46.2466254,7.95765653 C49.8510945,7.66652276 58.2829775,6.50198766 58.2829775,6.50198766 L58.2829775,6.50198766 Z" id="Shape" fill="#9BB1BC"></path>
                    <path d="M58.2507947,6.50198766 C58.2507947,6.50198766 47.373022,1.84384725 28.3530111,2.97603415 C28.3530111,2.97603415 21.5946316,2.97603415 28.0955491,6.92251422 C29.575956,7.82826374 31.989663,8.92810245 46.3431737,7.89296014 C49.8510945,7.66652276 58.2507947,6.50198766 58.2507947,6.50198766 L58.2507947,6.50198766 Z" id="Shape" fill="#9AB0BC"></path>
                    <path d="M58.2507947,6.50198766 C58.2507947,6.50198766 47.4373875,1.87619544 28.4817422,3.00838235 C28.4817422,3.00838235 21.7555454,3.00838235 28.2242801,6.92251422 C29.6725043,7.82826374 32.118394,8.92810245 46.3753565,7.89296014 C49.8832772,7.63417456 58.2507947,6.50198766 58.2507947,6.50198766 L58.2507947,6.50198766 Z" id="Shape" fill="#9AAFBB"></path>
                    <path d="M58.218612,6.50198766 C58.218612,6.50198766 47.4373875,1.87619544 28.6104732,3.00838235 C28.6104732,3.00838235 21.9164592,3.00838235 28.3530111,6.92251422 C29.8012353,7.82826374 32.2149423,8.92810245 46.4075392,7.89296014 C49.91546,7.63417456 58.218612,6.50198766 58.218612,6.50198766 L58.218612,6.50198766 Z" id="Shape" fill="#99AFBB"></path>
                    <path d="M58.1864292,6.50198766 C58.1864292,6.50198766 47.4695703,1.90854364 28.7070215,3.04073055 C28.7070215,3.04073055 22.0451903,3.04073055 28.4495594,6.92251422 C29.8977836,7.82826374 32.3114905,8.89575426 46.439722,7.89296014 C49.91546,7.63417456 58.1864292,6.50198766 58.1864292,6.50198766 L58.1864292,6.50198766 Z" id="Shape" fill="#98AEBA"></path>
                    <path d="M58.1864292,6.50198766 C58.1864292,6.50198766 47.5339358,1.94089184 28.8679353,3.04073055 C28.8679353,3.04073055 22.2382868,3.04073055 28.6104732,6.92251422 C30.0586974,7.82826374 32.4402216,8.89575426 46.5040875,7.89296014 C49.9476428,7.63417456 58.1864292,6.50198766 58.1864292,6.50198766 L58.1864292,6.50198766 Z" id="Shape" fill="#98AEB9"></path>
                    <path d="M58.1542464,6.50198766 C58.1542464,6.50198766 47.5339358,1.94089184 28.9644836,3.04073055 C28.9644836,3.04073055 22.3670179,3.04073055 28.7070215,6.89016602 C30.1552457,7.79591555 32.5367699,8.86340606 46.5040875,7.86061194 C49.9798255,7.60182636 58.1542464,6.50198766 58.1542464,6.50198766 L58.1542464,6.50198766 Z" id="Shape" fill="#97ADB9"></path>
                    <path d="M58.1542464,6.50198766 C58.1542464,6.50198766 47.5983013,1.97324003 29.1253974,3.07307874 C29.1253974,3.07307874 22.5601144,3.07307874 28.8679353,6.89016602 C30.2839767,7.79591555 32.6655009,8.83105786 46.568453,7.86061194 C50.0120083,7.60182636 58.1542464,6.50198766 58.1542464,6.50198766 L58.1542464,6.50198766 Z" id="Shape" fill="#96ACB8"></path>
                    <path d="M58.1220637,6.50198766 C58.1220637,6.50198766 47.6304841,2.00558823 29.2219456,3.07307874 C29.2219456,3.07307874 22.6888455,3.07307874 28.9644836,6.89016602 C30.380525,7.76356735 32.7298664,8.83105786 46.6006358,7.86061194 C50.0120083,7.60182636 58.1220637,6.50198766 58.1220637,6.50198766 L58.1220637,6.50198766 Z" id="Shape" fill="#95ACB8"></path>
                    <path d="M58.1220637,6.50198766 C58.1220637,6.50198766 47.6626668,2.00558823 29.3828594,3.10542694 C29.3828594,3.10542694 22.881942,3.10542694 29.1253974,6.89016602 C30.5414388,7.76356735 32.8907802,8.83105786 46.6650013,7.82826374 C50.044191,7.60182636 58.1220637,6.50198766 58.1220637,6.50198766 L58.1220637,6.50198766 Z" id="Shape" fill="#95ABB7"></path>
                    <path d="M58.0898809,6.50198766 C58.0898809,6.50198766 47.6948496,2.03793643 29.4794077,3.10542694 C29.4794077,3.10542694 23.0106731,3.10542694 29.2219456,6.89016602 C30.6379871,7.76356735 32.9551457,8.79870966 46.6650013,7.82826374 C50.0763738,7.56947817 58.0898809,6.50198766 58.0898809,6.50198766 L58.0898809,6.50198766 Z" id="Shape" fill="#94AAB7"></path>
                    <path d="M58.0898809,6.46963946 C58.0898809,6.46963946 47.7592151,2.03793643 29.6403215,3.10542694 C29.6403215,3.10542694 23.2037696,3.10542694 29.3828594,6.85781783 C30.7667181,7.73121915 33.1160595,8.76636147 46.7293668,7.79591555 C50.0763738,7.56947817 58.0898809,6.46963946 58.0898809,6.46963946 L58.0898809,6.46963946 Z" id="Shape" fill="#93AAB6"></path>
                    <path d="M58.0576982,6.46963946 C58.0576982,6.46963946 47.7592151,2.03793643 29.7368698,3.10542694 C29.7368698,3.10542694 23.3325006,3.10542694 29.4794077,6.85781783 C30.8632664,7.73121915 33.1804251,8.76636147 46.7615496,7.79591555 C50.1085566,7.56947817 58.0576982,6.46963946 58.0576982,6.46963946 L58.0576982,6.46963946 Z" id="Shape" fill="#92A9B6"></path>
                    <path d="M58.0255154,6.46963946 C58.0255154,6.46963946 47.7913979,2.07028463 29.8656008,3.13777514 C29.8656008,3.13777514 23.4934144,3.13777514 29.6081388,6.85781783 C30.9919974,7.73121915 33.2769733,8.76636147 46.7937323,7.79591555 C50.1407393,7.56947817 58.0255154,6.46963946 58.0255154,6.46963946 L58.0255154,6.46963946 Z" id="Shape" fill="#92A9B5"></path>
                    <path d="M58.0255154,6.46963946 C58.0255154,6.46963946 47.8235806,2.10263282 29.9943319,3.13777514 C29.9943319,3.13777514 23.6543282,3.13777514 29.7368698,6.82546963 C31.1207284,7.69887096 33.4057044,8.70166507 46.8259151,7.76356735 C50.1407393,7.53712997 58.0255154,6.46963946 58.0255154,6.46963946 L58.0255154,6.46963946 Z" id="Shape" fill="#91A8B4"></path>
                    <path d="M57.9933326,6.46963946 C57.9933326,6.46963946 47.8557634,2.10263282 30.1230629,3.17012333 C30.1230629,3.17012333 23.815242,3.17012333 29.8656008,6.85781783 C31.2494595,7.69887096 33.5022527,8.73401327 46.8580978,7.79591555 C50.1729221,7.53712997 57.9933326,6.46963946 57.9933326,6.46963946 L57.9933326,6.46963946 Z" id="Shape" fill="#90A7B4"></path>
                    <path d="M57.9933326,6.46963946 C57.9933326,6.46963946 47.9201289,2.13498102 30.2517939,3.17012333 C30.2517939,3.17012333 23.9761558,3.17012333 29.9943319,6.82546963 C31.3460078,7.66652276 33.6309837,8.70166507 46.9224634,7.76356735 C50.2051048,7.53712997 57.9933326,6.46963946 57.9933326,6.46963946 L57.9933326,6.46963946 Z" id="Shape" fill="#90A7B3"></path>
                    <path d="M57.9611499,6.46963946 C57.9611499,6.46963946 47.9201289,2.16732922 30.380525,3.20247153 C30.380525,3.20247153 24.1692524,3.20247153 30.1230629,6.85781783 C31.4747388,7.69887096 33.727532,8.70166507 46.9546461,7.79591555 C50.2372876,7.53712997 57.9611499,6.46963946 57.9611499,6.46963946 L57.9611499,6.46963946 Z" id="Shape" fill="#8FA6B3"></path>
                    <path d="M57.9611499,6.46963946 C57.9611499,6.46963946 47.9844944,2.16732922 30.509256,3.20247153 C30.509256,3.20247153 24.3301662,3.20247153 30.2517939,6.82546963 C31.6034698,7.66652276 33.8240802,8.66931687 46.9868289,7.73121915 C50.2372876,7.50478177 57.9611499,6.46963946 57.9611499,6.46963946 L57.9611499,6.46963946 Z" id="Shape" fill="#8EA6B2"></path>
                    <path d="M57.9289671,6.46963946 C57.9289671,6.46963946 48.0166772,2.19967742 30.6379871,3.23481973 C30.6379871,3.23481973 24.49108,3.23481973 30.380525,6.82546963 C31.7322009,7.66652276 33.9528113,8.66931687 47.0190116,7.73121915 C50.2694704,7.50478177 57.9289671,6.46963946 57.9289671,6.46963946 L57.9289671,6.46963946 Z" id="Shape" fill="#8DA5B2"></path>
                    <path d="M57.9289671,6.46963946 C57.9289671,6.46963946 48.0488599,2.23202561 30.7667181,3.23481973 C30.7667181,3.23481973 24.6519938,3.23481973 30.509256,6.82546963 C31.8287492,7.66652276 34.0493596,8.66931687 47.0833772,7.73121915 C50.3016531,7.50478177 57.9289671,6.46963946 57.9289671,6.46963946 L57.9289671,6.46963946 Z" id="Shape" fill="#8DA4B1"></path>
                    <path d="M57.8967844,6.46963946 C57.8967844,6.46963946 48.0810427,2.23202561 30.8954491,3.26716793 C30.8954491,3.26716793 24.8129076,3.26716793 30.6379871,6.82546963 C31.9574802,7.66652276 34.1780906,8.63696868 47.1155599,7.73121915 C50.3016531,7.50478177 57.8967844,6.46963946 57.8967844,6.46963946 L57.8967844,6.46963946 Z" id="Shape" fill="#8CA4B0"></path>
                    <path d="M57.8646016,6.46963946 C57.8646016,6.46963946 48.1132255,2.26437381 30.9919974,3.26716793 C30.9919974,3.26716793 24.9416386,3.26716793 30.7345353,6.82546963 C32.0540285,7.66652276 34.2424561,8.63696868 47.1155599,7.73121915 C50.3338359,7.47243357 57.8646016,6.46963946 57.8646016,6.46963946 L57.8646016,6.46963946 Z" id="Shape" fill="#8BA3B0"></path>
                    <path d="M57.8646016,6.46963946 C57.8646016,6.46963946 48.1454082,2.29672201 31.1529112,3.29951612 C31.1529112,3.29951612 25.1347352,3.29951612 30.8954491,6.82546963 C32.2149423,7.63417456 34.4033699,8.63696868 47.2121082,7.73121915 C50.3660186,7.47243357 57.8646016,6.46963946 57.8646016,6.46963946 L57.8646016,6.46963946 Z" id="Shape" fill="#8BA3AF"></path>
                    <path d="M57.8324188,6.46963946 C57.8324188,6.46963946 48.177591,2.29672201 31.2494595,3.29951612 C31.2494595,3.29951612 25.2634662,3.29951612 30.9919974,6.79312143 C32.3114905,7.60182636 34.4677354,8.57227228 47.2121082,7.69887096 C50.3660186,7.47243357 57.8324188,6.46963946 57.8324188,6.46963946 L57.8324188,6.46963946 Z" id="Shape" fill="#8AA2AF"></path>
                    <path d="M57.8324188,6.46963946 C57.8324188,6.46963946 48.2419565,2.32907021 31.4103733,3.33186432 C31.4103733,3.33186432 25.4565628,3.33186432 31.1529112,6.82546963 C32.4402216,7.63417456 34.5964665,8.60462048 47.2764737,7.73121915 C50.3982014,7.47243357 57.8324188,6.46963946 57.8324188,6.46963946 L57.8324188,6.46963946 Z" id="Shape" fill="#89A1AE"></path>
                    <path d="M57.8002361,6.46963946 C57.8002361,6.46963946 48.2419565,2.3614184 31.5069216,3.33186432 C31.5069216,3.33186432 25.5852938,3.33186432 31.2494595,6.79312143 C32.5367699,7.60182636 34.6930148,8.57227228 47.2764737,7.69887096 C50.4303842,7.47243357 57.8002361,6.46963946 57.8002361,6.46963946 L57.8002361,6.46963946 Z" id="Shape" fill="#89A1AE"></path>
                    <path d="M57.8002361,6.46963946 C57.8002361,6.46963946 48.306322,2.3937666 31.6678354,3.33186432 C31.6678354,3.33186432 25.7783904,3.33186432 31.4103733,6.79312143 C32.6976837,7.60182636 34.8217458,8.53992409 47.373022,7.66652276 C50.4625669,7.44008538 57.8002361,6.46963946 57.8002361,6.46963946 L57.8002361,6.46963946 Z" id="Shape" fill="#88A0AD"></path>
                    <path d="M57.7680533,6.43729126 C57.7680533,6.43729126 48.306322,2.3614184 31.7643836,3.33186432 C31.7643836,3.33186432 25.9071214,3.33186432 31.5069216,6.76077323 C32.7942319,7.56947817 34.9182941,8.50757589 47.373022,7.63417456 C50.4625669,7.44008538 57.7680533,6.43729126 57.7680533,6.43729126 L57.7680533,6.43729126 Z" id="Shape" fill="#87A0AD"></path>
                    <path d="M57.7358706,6.43729126 C57.7358706,6.43729126 48.3385048,2.3937666 31.8931147,3.33186432 C31.8931147,3.33186432 26.0680352,3.33186432 31.6356526,6.72842504 C32.8907802,7.53712997 35.0148423,8.47522769 47.4052048,7.60182636 C50.4947497,7.44008538 57.7358706,6.43729126 57.7358706,6.43729126 L57.7358706,6.43729126 Z" id="Shape" fill="#869FAC"></path>
                    <path d="M57.7358706,6.43729126 C57.7358706,6.43729126 48.4028703,2.4261148 32.0218457,3.36421252 C32.0218457,3.36421252 26.228949,3.36421252 31.7643836,6.76077323 C33.0195113,7.53712997 35.1113906,8.50757589 47.4373875,7.63417456 C50.5269324,7.44008538 57.7358706,6.43729126 57.7358706,6.43729126 L57.7358706,6.43729126 Z" id="Shape" fill="#869EAB"></path>
                    <path d="M57.7036878,6.43729126 C57.7036878,6.43729126 48.4028703,2.4261148 32.118394,3.36421252 C32.118394,3.36421252 26.35768,3.36421252 31.8931147,6.72842504 C33.1482423,7.50478177 35.2401217,8.44287949 47.501753,7.60182636 C50.5269324,7.40773718 57.7036878,6.43729126 57.7036878,6.43729126 L57.7036878,6.43729126 Z" id="Shape" fill="#859EAB"></path>
                    <path d="M57.7036878,6.43729126 C57.7036878,6.43729126 48.4672358,2.45846299 32.2793078,3.39656072 C32.2793078,3.39656072 26.5507766,3.39656072 32.0540285,6.76077323 C33.3091561,7.53712997 35.3688527,8.47522769 47.5661186,7.63417456 C50.5591152,7.40773718 57.7036878,6.43729126 57.7036878,6.43729126 L57.7036878,6.43729126 Z" id="Shape" fill="#849DAA"></path>
                    <path d="M57.671505,6.43729126 C57.671505,6.43729126 48.4994186,2.49081119 32.3758561,3.39656072 C32.3758561,3.39656072 26.6795076,3.39656072 32.1505768,6.72842504 C33.4057044,7.50478177 35.465401,8.44287949 47.5661186,7.60182636 C50.591298,7.40773718 57.671505,6.43729126 57.671505,6.43729126 L57.671505,6.43729126 Z" id="Shape" fill="#849DAA"></path>
                    <path d="M57.671505,6.43729126 C57.671505,6.43729126 48.5316013,2.49081119 32.5367699,3.42890891 C32.5367699,3.42890891 26.8726042,3.42890891 32.3114905,6.76077323 C33.5344354,7.53712997 35.594132,8.44287949 47.6304841,7.63417456 C50.591298,7.40773718 57.671505,6.43729126 57.671505,6.43729126 L57.671505,6.43729126 Z" id="Shape" fill="#839CA9"></path>
                    <path d="M57.6393223,6.43729126 C57.6393223,6.43729126 48.5637841,2.52315939 32.6333181,3.42890891 C32.6333181,3.42890891 27.0013352,3.42890891 32.4080388,6.72842504 C33.6309837,7.50478177 35.6584975,8.4105313 47.6626668,7.56947817 C50.6234807,7.37538898 57.6393223,6.43729126 57.6393223,6.43729126 L57.6393223,6.43729126 Z" id="Shape" fill="#829BA9"></path>
                    <path d="M57.6393223,6.43729126 C57.6393223,6.43729126 48.6281496,2.55550759 32.7942319,3.46125711 C32.7942319,3.46125711 27.1944318,3.46125711 32.5689526,6.72842504 C33.7918975,7.50478177 35.8194113,8.4105313 47.7270324,7.56947817 C50.6556635,7.37538898 57.6393223,6.43729126 57.6393223,6.43729126 L57.6393223,6.43729126 Z" id="Shape" fill="#829BA8"></path>
                    <path d="M57.6071395,6.43729126 C57.6071395,6.43729126 48.6281496,2.55550759 32.8907802,3.46125711 C32.8907802,3.46125711 27.3231628,3.46125711 32.6655009,6.72842504 C33.8884458,7.50478177 35.8837769,8.4105313 47.7270324,7.56947817 C50.6878462,7.37538898 57.6071395,6.43729126 57.6071395,6.43729126 L57.6071395,6.43729126 Z" id="Shape" fill="#819AA8"></path>
                    <path d="M57.5749568,6.43729126 C57.5749568,6.43729126 48.6603324,2.58785578 33.0195113,3.49360531 C33.0195113,3.49360531 27.4840766,3.49360531 32.7942319,6.72842504 C33.984994,7.47243357 36.0125079,8.3781831 47.7592151,7.56947817 C50.6878462,7.37538898 57.5749568,6.43729126 57.5749568,6.43729126 L57.5749568,6.43729126 Z" id="Shape" fill="#809AA7"></path>
                    <path d="M57.5749568,6.43729126 C57.5749568,6.43729126 48.6925151,2.62020398 33.1482423,3.49360531 C33.1482423,3.49360531 27.6449904,3.49360531 32.922963,6.72842504 C34.1137251,7.47243357 36.1090562,8.3781831 47.8235806,7.56947817 C50.720029,7.34304079 57.5749568,6.43729126 57.5749568,6.43729126 L57.5749568,6.43729126 Z" id="Shape" fill="#8099A6"></path>
                    <path d="M57.542774,6.43729126 C57.542774,6.43729126 48.7246979,2.62020398 33.2769733,3.5259535 C33.2769733,3.5259535 27.8059042,3.5259535 33.051694,6.72842504 C34.2424561,7.47243357 36.2056044,8.3781831 47.8557634,7.56947817 C50.7522117,7.34304079 57.542774,6.43729126 57.542774,6.43729126 L57.542774,6.43729126 Z" id="Shape" fill="#7F98A6"></path>
                </g>
            </g>
        </g>
    </g>
</svg>