<?xml version="1.0" encoding="utf-8"?>
<!-- Generator: Adobe Illustrator 23.0.1, SVG Export Plug-In . SVG Version: 6.00 Build 0)  -->
<svg version="1.1" id="Layer_1" xmlns="http://www.w3.org/2000/svg" xmlns:xlink="http://www.w3.org/1999/xlink" x="0px" y="0px"
	 viewBox="0 0 320 110" style="enable-background:new 0 0 320 110;" xml:space="preserve">
<style type="text/css">
	.st0{fill:none;}
	.st1{fill:#C1D82F;}
	.st2{fill-rule:evenodd;clip-rule:evenodd;fill:#F47B20;}
	.st3{fill:#FFFFFF;}
	.st4{fill-rule:evenodd;clip-rule:evenodd;fill:#FFFFFF;}
	.st5{fill:#F47B20;}
	.st6{fill:#54B948;}
	.st7{fill-rule:evenodd;clip-rule:evenodd;fill:#54B948;}
</style>
<title>Lotto_logo-orangeR</title>
<desc>Created with Sketch.</desc>
<g transform="translate(30.000000, 214.000000)">
	<g id="Lotto_logo-orangeR" transform="translate(33.000000, 43.000000)">
		<g id="Group" transform="translate(0.759099, 34.991453)">
			<path id="Path" class="st0" d="M67.1-222.2c-2.4,0-4.6,2.9-4.6,6.2c0,1.9,0.7,4,2.7,4c2.4,0,4.6-2.9,4.6-6.2
				C69.8-219.9,69-222.2,67.1-222.2z"/>
			<path class="st0" d="M175.9-222.2c-2.4,0-4.6,2.9-4.6,6.2c0,1.9,0.7,4,2.7,4c2.4,0,4.6-2.9,4.6-6.2
				C178.7-219.9,177.9-222.2,175.9-222.2z"/>
			<path id="Shape" class="st1" d="M177.9-238.7c-7,0-13.5,2.2-18.4,6.4c-5.4,4.5-8.2,10.7-8.2,18c0,0.8,0,1.6,0.1,2.3
				c0,0.2-0.1,0.4-0.3,0.5l-2.7,0.6c-0.7,0.1-1.4,0.3-2.4,0.3c-0.9,0-1.6-0.2-1.9-0.6c-0.3-0.3-0.4-0.9-0.3-1.7l1.2-8.5
				c0-0.2,0.2-0.3,0.4-0.3h4.6l2.3-15.9h-4.4c-0.1,0-0.2,0-0.3-0.2c-0.1-0.1-0.1-0.2-0.1-0.3l1.2-8.4h-21l-1.2,8.6
				c0,0.2-0.2,0.3-0.4,0.3h-9.1c-0.1,0-0.2,0-0.3-0.2c-0.1-0.1-0.1-0.2-0.1-0.3l1.2-8.4H97.2l-1.2,8.6c0,0.2-0.2,0.3-0.4,0.3h-3.8
				L89.9-225c0,0.2-0.2,0.3-0.4,0.3c-0.2,0-0.4-0.1-0.4-0.3c-2.4-8.4-10.1-13.6-20.2-13.6c-7,0-13.5,2.2-18.4,6.4
				c-5.4,4.5-8.2,10.7-8.2,18v0.1c0,0.2,0,0.4,0,0.6c0,0.1,0,0.2-0.1,0.3c-0.1-0.1-0.2-0.1-0.3-0.1H26.9l0,0c-0.1,0-0.2,0-0.3-0.2
				c-0.1-0.1-0.1-0.2-0.1-0.3l4.9-34.7H10.2l-7.3,52.1h38.6l1.5-10.3c0-0.2,0.2-0.3,0.3-0.3c0.2,0,0.4,0.1,0.5,0.3
				c3,7.1,10.3,11.4,19.5,11.4c12.9,0,26.5-8.5,26.5-24.3c0-0.7,0-1.3-0.1-1.9c0-0.1,0-0.2,0.1-0.3s0.2-0.2,0.3-0.2h3l0,0
				c0.1,0,0.2,0,0.3,0.2c0.1,0.1,0.1,0.2,0.1,0.3l-1.8,12.4c-0.6,4.3,0.1,7.6,2.1,10c2.2,2.6,5.8,3.8,11,3.8c4.4,0,9.2-0.9,12.6-2.4
				l0.8-0.3l1.9-13.5l-2.5,0.5c-0.7,0.1-1.4,0.3-2.4,0.3c-0.9,0-1.6-0.2-1.9-0.6c-0.3-0.3-0.4-0.9-0.3-1.7l1.2-8.5
				c0-0.2,0.2-0.3,0.4-0.3h9c0.1,0,0.2,0,0.3,0.2c0.1,0.1,0.1,0.2,0.1,0.3l-1.8,12.4c-0.6,4.3,0.1,7.6,2.1,10
				c2.2,2.6,5.8,3.8,11,3.8c4.4,0,9.2-0.9,12.6-2.4l0.8-0.3l1.6-11.8c0.1-0.5,0.2-0.6,0.5-0.6c0.3-0.1,0.4,0,0.5,0.5c0,0,0,0,0,0.1
				c2,9,9.8,14.6,20.6,14.6c12.9,0,26.5-8.5,26.5-24.3C198.9-230.8,190.2-238.7,177.9-238.7z M65.2-211.9c-2,0-2.7-2.2-2.7-4
				c0-3.3,2.1-6.2,4.6-6.2c2,0,2.7,2.2,2.7,4C69.8-214.8,67.6-211.9,65.2-211.9z M174.1-211.9c-2,0-2.7-2.2-2.7-4
				c0-3.3,2.1-6.2,4.6-6.2c2,0,2.7,2.2,2.7,4C178.7-214.8,176.6-211.9,174.1-211.9z"/>
		</g>
		<g id="Extra-shot" transform="translate(153.000000, 0.000000)">
			<path class="st2" d="M58.8-248.2c-0.2-0.1-0.4,0-0.5,0.1l-2.9,3.5c-1.7,2-4.2,3.3-6.6,3.4c-1.5,0-3.1,0.1-4.9,0.1
				c-3.5,0-6.9-0.1-10.2-0.2h-0.2c-3.3-0.1-6.7-0.2-10.1-0.2c-2.8,0-5.3,0-7.7,0.2c-2.7,0-5.1,1.3-6.8,3.4C7.8-236.5,7.2-235,7-233
				c-0.9,6.6-1.6,13.3-2.2,19.8v0.2c-0.1,1-0.3,2.6-0.5,4.2l-0.2,1.4c-0.2,1.3-0.3,2.5-0.4,3.3l-0.4,3.8c0,0.2,0.1,0.3,0.2,0.4
				c0.1,0,0.1,0,0.2,0s0.2,0,0.3-0.1l2.7-2.7c0.1-0.1,7.1-6.8,26-6.5c1.7,0,2.9,0,5.7,0h1.3c1.7,0,3.9,0,7,0c2.8,0,5.5-1.3,7.1-3.3
				c1.1-1.4,1.7-2.9,1.9-4.9c0.9-6.7,1.6-13.4,2.2-20c0.2-2,0.4-4.1,0.6-6.1L59-248C59.1-248,58.8-248.2,58.8-248.2z"/>
			<path class="st0" d="M53.6-217.6c0.9-6.7,1.6-13.4,2.2-19.9c0.2-1.6,0.3-3.2,0.5-4.8c-2,2-4.7,3.2-7.4,3.2c-1.6,0-3.2,0.1-5,0.1
				c-3.5,0-7-0.1-10.4-0.2c-3.3-0.1-6.8-0.2-10.2-0.2c-2.8,0-5.3,0-7.7,0.2c-2,0-3.8,1-5.1,2.6c-0.8,1.1-1.3,2.2-1.5,3.8
				c-0.9,6.6-1.6,13.3-2.2,19.9c-0.1,1.2-0.3,3.1-0.5,4.9c-0.1,1.1-0.2,2.1-0.3,3c2.4-1.9,10.2-6.7,26.8-6.4c1.7,0,2.9,0,5.7,0
				c1.9,0,4.4,0,8.3,0.1c2.2,0,4.2-1,5.4-2.5C52.8-214.8,53.3-216,53.6-217.6z"/>
			<path class="st2" d="M43.9-239c-3.5,0-7-0.1-10.4-0.2c-3.3-0.1-6.8-0.2-10.2-0.2c-2.8,0-5.3,0-7.7,0.2c-2,0-3.8,1-5.1,2.6
				c-0.8,1.1-1.3,2.2-1.5,3.8c-0.9,6.6-1.6,13.3-2.2,19.9c-0.1,1.2-0.3,3.1-0.5,4.9c-0.1,1.1-0.2,2.1-0.3,3
				c2.4-1.9,10.2-6.7,26.8-6.4c1.7,0,2.9,0,5.7,0c1.9,0,4.4,0,8.3,0.1c2.2,0,4.2-1,5.4-2.5c0.8-1.1,1.3-2.2,1.5-3.8
				c0.9-6.7,1.6-13.4,2.2-19.9c0.2-1.6,0.3-3.2,0.5-4.8c-2,2-4.7,3.2-7.4,3.2C47.2-239,45.7-239,43.9-239z"/>
			<path class="st3" d="M56.5-243.8c-1.9,2.3-4.9,3.8-7.6,3.9c-1.6,0-3.2,0.1-4.9,0.1c-3.5,0-7-0.1-10.3-0.2s-6.8-0.2-10.2-0.2
				c-2.8,0-5.3,0-7.7,0.2c-2.3,0-4.3,1.1-5.7,2.9c-0.9,1.2-1.4,2.5-1.7,4.2c-0.9,6.6-1.6,13.4-2.2,20c-0.1,1.2-0.3,3-0.5,4.9
				c-0.2,1.6-0.3,3.1-0.5,4.1L5-202.7l0.8-0.9c0.1-0.1,7.2-7.2,27-6.9c1.7,0,2.9,0,5.7,0c1.9,0,4.4,0,8.3,0.1c2.4,0,4.7-1.1,6-2.9
				c0.9-1.2,1.4-2.5,1.7-4.2c0.9-6.7,1.6-13.4,2.2-19.9c0.2-2,0.4-4.1,0.6-6.1l0.2-1.4L56.5-243.8z M46.7-211.2
				c-3.9,0-6.5,0-8.3-0.1c-2.7,0-4,0-5.7,0c-16.6-0.3-24.4,4.5-26.8,6.4c0.1-0.9,0.2-1.9,0.3-3c0.2-1.8,0.4-3.7,0.5-4.9
				c0.6-6.5,1.3-13.3,2.2-19.9c0.2-1.6,0.7-2.7,1.5-3.8c1.3-1.6,3.1-2.5,5.1-2.6c2.4-0.1,4.9-0.2,7.7-0.2c3.5,0,6.9,0.1,10.2,0.2
				c3.3,0.1,6.8,0.2,10.4,0.2c1.8,0,3.4,0,5-0.1c2.7-0.1,5.4-1.3,7.4-3.2c-0.2,1.6-0.3,3.2-0.5,4.8c-0.6,6.5-1.3,13.2-2.2,19.9
				c-0.2,1.6-0.7,2.7-1.5,3.8C50.9-212.2,48.8-211.2,46.7-211.2z"/>
			<path class="st4" d="M13.3-230.4c0,0,0-0.2-0.1-0.3c-0.2-0.1-0.3-0.3-0.3-0.6s0.2-0.5,0.4-0.6c0.2-0.1,0.2-0.3,0.2-0.3l0.4-3.8
				c0-0.3,0.3-0.5,0.6-0.5h4.9l-0.2,1.4h-3.8l-0.3,3.1h3.2l-0.2,1.4h-3.2l-0.2,1.6c0,0.1,0.1,0.2,0.2,0.2h3.6l-0.2,1.4h-4
				c-0.9,0-1.5-0.7-1.4-1.6L13.3-230.4z"/>
			<polygon class="st4" points="24.6,-231.9 26.9,-227.4 24.8,-227.4 23.5,-230.2 21.5,-227.4 19.4,-227.4 22.7,-231.9 20.4,-236.5 
				22.4,-236.5 23.8,-233.5 25.8,-236.5 27.8,-236.5 			"/>
			<path class="st4" d="M30.5-234.8c0-0.1-0.1-0.2-0.2-0.2h-2l0.2-1.4h6.1l-0.2,1.4h-2c-0.1,0-0.3,0.1-0.3,0.2l-0.8,7.5h-1.7
				L30.5-234.8z"/>
			<path class="st3" d="M35.4-230.4c0-0.1,0-0.2-0.1-0.3c-0.2-0.1-0.3-0.3-0.3-0.6s0.2-0.5,0.4-0.6c0.2-0.1,0.2-0.3,0.2-0.3L36-236
				c0-0.3,0.3-0.5,0.6-0.5h2.2c2.5-0.1,3.4,1.1,3.2,2.9c-0.1,1.1-0.6,2.1-1.7,2.6c0.2,1.3,0.5,1.9,0.6,2.2c0,0.1,0.1,0.1,0.2,0.1
				c0.1,0,0.3,0,0.4,0c0.5,0,0.6,0.4,0.6,0.7c-0.1,0.7-0.9,0.8-1.4,0.8c-1.4,0-1.7-1.6-2-3.3h-1.5l-0.3,3.2h-1.7L35.4-230.4z
				 M38.2-232c1.3,0,1.9-0.6,2-1.6c0.1-1-0.3-1.5-1.7-1.5h-1l-0.3,3.1H38.2z"/>
			<path class="st3" d="M43.7-230.4c0-0.1,0-0.2-0.1-0.3c-0.2-0.1-0.3-0.3-0.3-0.6s0.2-0.5,0.4-0.6c0.2-0.1,0.2-0.3,0.2-0.3l0.1-1.1
				c0.2-2,1.6-3.3,3.5-3.3c2,0,3,1.3,2.8,3.3l-0.5,4.4c0,0.2,0,0.3,0.1,0.3c0.1,0,0.3-0.1,0.5-0.1c0.5,0,0.6,0.4,0.6,0.7
				c-0.1,0.7-1,0.8-1.5,0.8c-0.9,0-1.5-0.5-1.4-1.6l0.2-1.7h-3l-0.3,3.2h-1.6L43.7-230.4z M48.7-233.3c0.1-1.1-0.4-1.9-1.3-1.9
				c-0.9,0-1.6,0.8-1.7,1.9l-0.2,1.3h3L48.7-233.3z"/>
			<path class="st4" d="M12.7-217.2c0.2,0.6,0.8,1.4,2.2,1.4c1.1,0,1.8-0.4,1.9-1.3c0.2-2.3-5.1-1.1-4.7-5.2c0.2-1.6,1.6-3,3.7-3
				c1.9,0,3.3,1,3.2,2.6c-0.1,0.7-0.5,1.4-1.4,1.4c-0.5,0-0.9-0.3-0.9-0.9c0-0.5,0.2-0.5,0.3-0.8c0-0.4-0.6-0.7-1.4-0.7
				c-0.9,0-1.5,0.6-1.6,1.3c-0.2,2.1,5.1,1.4,4.7,5c-0.2,2.2-2,3.3-4,3.3c-1.6,0-3-0.7-3.5-1.9L12.7-217.2z"/>
			<path class="st4" d="M22.8-214.1h-2l1-9.1c0-0.2,0-0.3-0.2-0.3s-0.3,0.1-0.6,0.1c-0.5,0-0.7-0.4-0.7-0.8c0.1-0.8,1.1-1,1.8-1
				c1.1,0,1.9,0.6,1.7,2l-0.4,3.7h3.5l0.6-5.5h2l-1.2,11h-2l0.4-3.8h-3.5L22.8-214.1z"/>
			<path class="st3" d="M36.6-225.3c3.3,0,5.2,2.3,4.9,5.7c-0.3,3.3-2.7,5.7-6.1,5.7c-3.4,0-5.2-2.3-4.9-5.7
				C30.9-223,33.2-225.3,36.6-225.3z M35.6-215.7c2.1,0,3.6-1.6,3.8-3.9c0.2-2.3-0.9-3.9-3-3.9c-2.1,0-3.6,1.6-3.8,3.9
				C32.2-217.3,33.5-215.7,35.6-215.7z"/>
			<path class="st4" d="M45.5-223.1c0-0.2-0.1-0.3-0.3-0.3h-2.4l0.2-1.7h7.6l-0.2,1.7h-2.5c-0.2,0-0.3,0.2-0.3,0.3l-0.9,9h-2.1
				L45.5-223.1z"/>
			<path class="st5" d="M67.3-240.9c-0.7,0.7-1.6,1-2.5,1c-1,0-1.9-0.3-2.6-1.1c-0.7-0.7-1.1-1.6-1.1-2.6c0-1.1,0.4-1.9,1.1-2.7
				c0.7-0.6,1.6-1,2.5-1c1,0,1.9,0.3,2.6,1.1c0.7,0.7,1.1,1.6,1.1,2.6C68.3-242.5,68.1-241.7,67.3-240.9z M62.7-245.7
				c-0.6,0.6-0.9,1.3-0.9,2.1s0.3,1.6,0.9,2.1c0.6,0.6,1.3,0.9,2.1,0.9c0.8,0,1.5-0.3,2.1-0.9c0.6-0.6,0.9-1.3,0.9-2.1
				s-0.3-1.5-0.9-2.1c-0.6-0.6-1.3-0.9-2.1-0.9C64-246.6,63.2-246.3,62.7-245.7z M63.2-241.6v-4c0.3,0,0.6,0,1.1,0s0.8,0,0.8,0
				c0.3,0,0.6,0.1,0.8,0.2c0.3,0.2,0.5,0.5,0.5,1c0,0.3-0.1,0.6-0.3,0.7c-0.2,0.2-0.4,0.2-0.7,0.3c0.3,0,0.5,0.1,0.6,0.2
				c0.2,0.2,0.3,0.5,0.3,0.9v0.3v0.1v0.1v0.1h-1c0-0.1,0-0.3-0.1-0.6c0-0.2,0-0.4-0.1-0.5c0-0.2-0.2-0.2-0.3-0.3
				c-0.1,0-0.2,0-0.3-0.1h0.1h-0.2v1.4L63.2-241.6L63.2-241.6z M65.1-244.8c-0.2,0-0.3-0.1-0.6-0.1h-0.3v1.2h0.4
				c0.2,0,0.5,0,0.6-0.2c0.2-0.1,0.2-0.3,0.2-0.5C65.4-244.6,65.3-244.7,65.1-244.8z"/>
		</g>
		<g transform="translate(155.235702, 3.423077)">
		</g>
		<g transform="translate(169.279029, 61.235043)">
			<path class="st0" d="M7.5-247.6c-2,0-3.7,2.5-3.7,5.4c0,0.3,0,3.2,1.8,3.2c2,0,3.7-2.5,3.7-5.4C9.3-244.7,9.3-247.6,7.5-247.6z"
				/>
			<path class="st6" d="M7.5-248.4c-2.4,0-4.6,2.9-4.6,6.2c0,1.9,0.7,4,2.7,4c2.4,0,4.6-2.9,4.6-6.2C10.2-246.2,9.5-248.4,7.5-248.4
				z M5.6-239c-1.8,0-1.8-2.9-1.8-3.2c0-2.9,1.7-5.4,3.7-5.4c1.8,0,1.8,2.9,1.8,3.2C9.3-241.5,7.6-239,5.6-239z"/>
		</g>
		<g transform="translate(60.348354, 61.235043)">
			<path class="st0" d="M7.5-247.6c-2,0-3.7,2.5-3.7,5.4c0,0.3,0,3.2,1.8,3.2c2,0,3.7-2.5,3.7-5.4C9.3-244.7,9.3-247.6,7.5-247.6z"
				/>
			<path class="st6" d="M7.5-248.4c-2.4,0-4.6,2.9-4.6,6.2c0,1.9,0.7,4,2.7,4c2.4,0,4.6-2.9,4.6-6.2C10.2-246.2,9.5-248.4,7.5-248.4
				z M5.6-239c-1.8,0-1.8-2.9-1.8-3.2c0-2.9,1.7-5.4,3.7-5.4c1.8,0,1.8,2.9,1.8,3.2C9.3-241.5,7.6-239,5.6-239z"/>
		</g>
		<path class="st0" d="M176.8-188.3c-3.1,0-5.7,3.4-5.7,7.3c0,2.6,1.2,5.2,3.8,5.2c3.1,0,5.7-3.4,5.7-7.3
			C180.6-185.7,179.4-188.3,176.8-188.3z"/>
		<path class="st0" d="M67.8-188.3c-3.1,0-5.7,3.4-5.7,7.3c0,2.6,1.2,5.2,3.8,5.2c3.1,0,5.7-3.4,5.7-7.3
			C71.6-185.7,70.5-188.3,67.8-188.3z"/>
		<polygon class="st7" points="24.8,-176.1 29.7,-211.3 12.8,-211.3 6,-163.3 40.5,-163.3 42.4,-176.1 		"/>
		<path class="st3" d="M30.8-212.2H11.9l-7,49.9h36.5l2.1-14.7H25.9L30.8-212.2z M6-163.3l6.8-48h17l-4.9,35.2h17.5l-1.8,12.8H6
			L6-163.3z"/>
		<path class="st6" d="M69.8-201.7c-12.2,0-24.6,7.6-24.6,22.3c0,10.2,7.6,17,19,17c11.8,0,24.5-7.8,24.5-22.2
			C88.6-194.8,81.1-201.7,69.8-201.7z M65.9-174.8c-2.8,0-4.7-2.5-4.7-6.1c0-4.5,3-8.3,6.6-8.3c2.8,0,4.7,2.5,4.7,6.1
			C72.6-178.6,69.5-174.8,65.9-174.8z"/>
		<path class="st3" d="M83.8-197.9c-3.5-3-8.5-4.7-14-4.7c-6.7,0-13,2.2-17.7,6.1c-5.1,4.3-7.8,10.2-7.8,17.1c0,10.8,8,18,19.9,18
			c6.6,0,12.9-2.2,17.6-6.1c5.1-4.3,7.8-10.2,7.8-17C89.5-190,87.6-194.6,83.8-197.9z M64.1-162.4c-11.3,0-19-6.8-19-17
			c0-14.6,12.4-22.3,24.6-22.3c11.3,0,18.8,6.9,18.8,17.1C88.6-170.1,76-162.4,64.1-162.4z"/>
		<path class="st3" d="M67.8-189.2c-3.6,0-6.6,3.8-6.6,8.3c0,3.7,1.9,6.1,4.7,6.1c3.6,0,6.6-3.8,6.6-8.3
			C72.6-186.7,70.7-189.2,67.8-189.2z M65.9-175.8c-2.6,0-3.8-2.6-3.8-5.2c0-4,2.6-7.3,5.7-7.3c2.6,0,3.8,2.6,3.8,5.2
			C71.6-179.1,69-175.8,65.9-175.8z"/>
		<path class="st7" d="M116.1-173.7c-1.5,0-2.7-0.5-3.5-1.3c-0.7-0.8-1-1.9-0.8-3.3l1.5-10.6h5.5l1.7-11.8h-5.5l1.2-8.9H99.8
			l-1.2,8.9h-4.2l-1.7,11.8h4.2l-2.2,15.3c-0.5,3.7,0,6.4,1.6,8.3c1.8,2.1,5,3.1,9.5,3.1c4.7,0,9-1.1,11.6-2.1l1.3-9.5
			C118-173.9,117.2-173.7,116.1-173.7z"/>
		<path class="st3" d="M118.8-175c-0.7,0.2-1.5,0.3-2.7,0.3s-2.2-0.3-2.7-1c-0.5-0.6-0.7-1.5-0.6-2.6l1.4-9.8h5.5l1.9-13.6h-5.5
			l1.2-8.9H98.8l-1.2,8.9h-4.2l-1.9,13.6h4.2l-2,14.1c-0.6,3.9,0,7,1.9,9.1c2,2.3,5.4,3.4,10.2,3.4c5,0,9.6-1.2,12.2-2.3l0.2-0.1
			l1.6-11.3l-0.6,0.1C119-175,118.9-175,118.8-175z M105.8-162.4c-4.5,0-7.7-1.1-9.5-3.1c-1.6-1.9-2.2-4.7-1.6-8.3l2.2-15.3h-4.3
			l1.7-11.8h4.2l1.2-8.9h16.5l-1.2,8.9h5.5l-1.7,11.8h-5.5l-1.5,10.6c-0.2,1.4,0.1,2.5,0.8,3.3c0.8,0.9,2,1.3,3.5,1.3
			c1.1,0,1.9-0.1,2.5-0.3l-1.3,9.5C114.8-163.4,110.5-162.4,105.8-162.4z"/>
		<path class="st7" d="M146.6-173.7c-1.5,0-2.7-0.5-3.5-1.3c-0.7-0.8-1-1.9-0.8-3.3l1.5-10.6h4.9l1.7-11.8h-4.9l1.2-8.9h-16.5
			l-1.2,8.9h-5.2l-1.7,11.8h5.1l-2.2,15.3c-0.5,3.7,0,6.4,1.6,8.3c1.8,2.1,5,3.1,9.5,3.1c4.7,0,9-1.1,11.6-2.1l1.3-9.5
			C148.6-173.9,147.8-173.7,146.6-173.7z"/>
		<path class="st3" d="M144.8-188.1h4.9l1.9-13.6h-4.9l1.2-8.9h-18.4l-1.2,8.9h-5.2l-1.9,13.6h5.1l-2,14.1c-0.6,3.9,0,7,1.9,9.1
			c2,2.3,5.4,3.4,10.2,3.4c5,0,9.6-1.2,12.2-2.3l0.2-0.1l1.6-11.3l-0.6,0.1c-0.1,0-0.2,0-0.4,0.1c-0.7,0.2-1.5,0.3-2.7,0.3
			s-2.2-0.3-2.7-1c-0.5-0.6-0.7-1.5-0.6-2.6L144.8-188.1z M136.4-162.4c-4.5,0-7.7-1.1-9.5-3.1c-1.6-1.9-2.2-4.7-1.6-8.3l2.2-15.3
			h-5.1l1.7-11.8h5.2l1.2-8.9h16.5l-1.2,8.9h4.9l-1.7,11.8h-4.9l-1.5,10.6c-0.2,1.4,0.1,2.5,0.8,3.3c0.8,0.9,2,1.3,3.5,1.3
			c1.1,0,1.9-0.1,2.5-0.3l-1.3,9.5C145.4-163.4,141.1-162.4,136.4-162.4z"/>
		<path class="st6" d="M178.7-201.7c-12.2,0-24.6,7.6-24.6,22.3c0,10.2,7.6,17,19,17c11.8,0,24.5-7.8,24.5-22.2
			C197.6-194.8,189.9-201.7,178.7-201.7z M174.9-174.8c-2.8,0-4.7-2.5-4.7-6.1c0-4.5,3-8.3,6.6-8.3c2.8,0,4.7,2.5,4.7,6.1
			C181.4-178.6,178.4-174.8,174.9-174.8z"/>
		<path class="st3" d="M192.7-197.9c-3.5-3-8.5-4.7-14-4.7c-6.7,0-13,2.2-17.7,6.1c-5.1,4.3-7.8,10.2-7.8,17.1c0,10.8,8,18,19.9,18
			c6.6,0,12.9-2.2,17.6-6.1c5.1-4.3,7.8-10.2,7.8-17C198.4-190,196.4-194.6,192.7-197.9z M173.1-162.4c-11.3,0-19-6.8-19-17
			c0-14.6,12.4-22.3,24.6-22.3c11.3,0,18.8,6.9,18.8,17.1C197.6-170.1,184.9-162.4,173.1-162.4z"/>
		<path class="st3" d="M176.8-189.2c-3.6,0-6.6,3.8-6.6,8.3c0,3.7,1.9,6.1,4.7,6.1c3.6,0,6.6-3.8,6.6-8.3
			C181.4-186.7,179.6-189.2,176.8-189.2z M174.9-175.8c-2.6,0-3.8-2.6-3.8-5.2c0-4,2.6-7.3,5.7-7.3c2.6,0,3.8,2.6,3.8,5.2
			C180.6-179.1,177.9-175.8,174.9-175.8z"/>
		<g transform="translate(161.308492, 11.790598)">
		</g>
		<path class="st0" d="M178.7-203.7c-7,0-13.5,2.2-18.4,6.4c-5.4,4.5-8.2,10.7-8.2,18c0,0.8,0,1.6,0.1,2.3c0,0.2-0.1,0.4-0.3,0.5
			l-2.7,0.6c-0.7,0.1-1.4,0.3-2.4,0.3c-0.9,0-1.6-0.2-1.9-0.6c-0.3-0.3-0.4-0.9-0.3-1.7l1.2-8.5c0-0.2,0.2-0.3,0.4-0.3h4.6l2.3-15.9
			h-4.5c-0.1,0-0.2,0-0.3-0.2c-0.1-0.1-0.1-0.2-0.1-0.3l1.2-8.4h-20.8l-1.2,8.6c0,0.2-0.2,0.3-0.4,0.3h-9.1c-0.1,0-0.2,0-0.3-0.2
			c-0.1-0.1-0.1-0.2-0.1-0.3l1.2-8.4H98l-1.2,8.6c0,0.2-0.2,0.3-0.4,0.3h-3.8L90.8-190c0,0.2-0.2,0.3-0.4,0.3
			c-0.2,0-0.4-0.1-0.4-0.3c-2.4-8.4-10.1-13.6-20.2-13.6c-7,0-13.5,2.2-18.4,6.4c-5.4,4.5-8.2,10.7-8.2,18v0.1c0,0.2,0,0.4,0,0.6
			c0,0.1,0,0.2-0.1,0.3c-0.1,0.1-0.2-0.1-0.4-0.1H27.6l0,0c-0.1,0-0.2,0-0.3-0.2c-0.1-0.1-0.1-0.2-0.1-0.3l4.9-34.7H11l-7.4,52.2
			h38.8l1.5-10.3c0-0.2,0.2-0.3,0.3-0.3c0.2,0,0.4,0.1,0.5,0.3c3,7.1,10.3,11.4,19.5,11.4c12.9,0,26.5-8.5,26.5-24.3
			c0-0.7,0-1.3-0.1-1.9c0-0.1,0-0.2,0.1-0.3s0.2-0.2,0.3-0.2h3l0,0c0.1,0,0.2,0,0.3,0.2c0.1,0.1,0.1,0.2,0.1,0.3l-1.8,12.3
			c-0.6,4.3,0.1,7.6,2.1,10c2.2,2.6,5.8,3.8,11,3.8c4.4,0,9.2-0.9,12.6-2.4l0.8-0.3l1.9-13.5l-2.5,0.5c-0.7,0.1-1.4,0.3-2.4,0.3
			c-0.9,0-1.6-0.2-1.9-0.6c-0.3-0.3-0.4-0.9-0.3-1.7l1.2-8.5c0-0.2,0.2-0.3,0.4-0.3h9c0.1,0,0.2,0,0.3,0.2c0.1,0.1,0.1,0.2,0.1,0.3
			l-1.8,12.4c-0.6,4.3,0.1,7.6,2.1,10c2.2,2.6,5.8,3.8,11,3.8c4.4,0,9.2-0.9,12.6-2.4l0.8-0.3l1.6-11.8v-0.3v-0.7l0.2-0.2l0.7-0.1
			l0.3,1.1c0,0-0.1,0.5-0.2,0.2c2,9,9.8,14.6,20.6,14.6c12.9,0,26.5-8.5,26.5-24.3C199.6-195.8,190.9-203.7,178.7-203.7z"/>
		<path class="st6" d="M178.7-204.6c-7.2,0-13.9,2.3-19,6.5c-5.6,4.7-8.5,11.1-8.5,18.6c0,0.5,0,1.3,0.1,2.1l-1.9,0.4l-0.4,0.1
			c-0.6,0.1-1.3,0.3-2.3,0.3c-0.7,0-1.1-0.2-1.3-0.3c-0.1-0.1-0.2-0.5-0.1-1l1.1-8.1h4.5c0.2,0,0.4-0.2,0.4-0.3l2.4-16.7
			c0-0.1,0-0.2-0.1-0.3c-0.1-0.1-0.2-0.2-0.3-0.2h-4.4l1.2-8.4c0-0.1,0-0.2-0.1-0.3c-0.1-0.1-0.2-0.2-0.3-0.2h-21.5
			c-0.2,0-0.4,0.2-0.4,0.3l-1.2,8.6h-8.2l1.1-8.4c0-0.1,0-0.2-0.1-0.3s-0.2-0.2-0.3-0.2H97.6c-0.2,0-0.4,0.2-0.4,0.3l-1.2,8.6h-3.8
			c-0.2,0-0.4,0.2-0.4,0.3L90.2-192c-3-7.8-10.6-12.6-20.4-12.6c-7.2,0-13.9,2.3-19,6.5c-5.6,4.7-8.5,11.1-8.5,18.6v0.1
			c0,0.1,0,0.2,0,0.2H28l4.9-34.7c0-0.1,0-0.2-0.1-0.3s-0.2-0.2-0.3-0.2h-22c-0.2,0-0.4,0.2-0.4,0.3l-7.4,53c0,0.1,0,0.2,0.1,0.3
			s0.2,0.2,0.3,0.2h39.5c0.2,0,0.4-0.2,0.4-0.3l1.3-9.3c3.4,6.7,10.7,10.6,19.7,10.6c13.3,0,27.4-8.8,27.4-25.1c0-0.5,0-1,0-1.5h2
			l-1.7,11.9c-0.6,4.5,0.1,8.1,2.3,10.6c2.4,2.8,6.2,4.1,11.7,4.1c4.4,0,9.4-1,12.9-2.4l1.1-0.5c0.2-0.1,0.2-0.2,0.3-0.3l2-14.3
			c0-0.1,0-0.3-0.1-0.3c-0.1-0.1-0.2-0.2-0.4-0.1l-2.7,0.5l-0.4,0.1c-0.6,0.1-1.3,0.3-2.3,0.3c-0.7,0-1.1-0.2-1.3-0.3
			c-0.1-0.1-0.2-0.5-0.1-1l1.1-8.1h8.2l-1.7,11.9c-0.6,4.5,0.1,8.1,2.3,10.6c2.4,2.8,6.2,4.1,11.7,4.1c4.4,0,9.4-1,12.9-2.4l1.1-0.5
			c0.2-0.1,0.2-0.2,0.3-0.3l1.5-10.6c2.5,8.6,10.4,13.8,21,13.8c13.3,0,27.4-8.8,27.4-25.1C200.4-196.3,191.4-204.6,178.7-204.6z
			 M173.1-160.3c-10.8,0-18.6-5.6-20.6-14.6c0,0,0,0,0-0.1c-0.1-0.5-0.2-0.6-0.5-0.5s-0.5,0.1-0.5,0.6l-1.6,11.8l-0.8,0.3
			c-3.5,1.4-8.3,2.4-12.6,2.4c-5.2,0-8.8-1.3-11-3.8c-2-2.4-2.7-5.7-2.1-10l1.8-12.4c0-0.1,0-0.2-0.1-0.3s-0.2-0.2-0.3-0.2h-9
			c-0.2,0-0.4,0.2-0.4,0.3l-1.2,8.5c-0.1,0.8,0,1.3,0.3,1.7s1,0.6,1.9,0.6c1.1,0,1.8-0.2,2.4-0.3l2.5-0.5l-1.9,13.5l-0.8,0.3
			c-3.5,1.4-8.3,2.4-12.6,2.4c-5.2,0-8.8-1.3-11-3.8c-2-2.3-2.7-5.7-2.1-10l1.8-12.4c0-0.1,0-0.2-0.1-0.3s-0.2-0.2-0.3-0.2l0,0h-3
			c-0.1,0-0.2,0-0.3,0.2c-0.1,0.1-0.1,0.2-0.1,0.3c0.1,0.7,0.1,1.2,0.1,1.9c0,15.7-13.7,24.3-26.5,24.3c-9.3,0-16.6-4.3-19.5-11.4
			c-0.1-0.2-0.3-0.3-0.5-0.3c-0.2,0-0.3,0.2-0.3,0.3l-1.5,10.3H4l7.3-52.1h21.1l-4.9,34.7c0,0.1,0,0.2,0.1,0.3
			c0.1,0.1,0.2,0.2,0.3,0.2l0,0H43c0.1,0,0.2,0,0.3-0.1c0.1-0.1,0.1-0.2,0.1-0.3c0-0.2,0-0.4,0-0.6v-0.1c0-7.2,2.8-13.5,8.2-18
			c4.9-4.1,11.5-6.4,18.4-6.4c10,0,17.8,5.2,20.2,13.6c0,0.2,0.2,0.3,0.4,0.3c0.2,0,0.3-0.2,0.4-0.3l1.8-12.6h3.8
			c0.2,0,0.4-0.2,0.4-0.3l1.2-8.6h20.4l-1.2,8.4c0,0.1,0,0.2,0.1,0.3s0.2,0.2,0.3,0.2h9.1c0.2,0,0.4-0.2,0.4-0.3l1.2-8.6h20.7
			l-1.2,8.4c0,0.1,0,0.2,0.1,0.3c0.1,0.1,0.2,0.2,0.3,0.2h4.4l-2.3,15.9h-4.4c-0.2,0-0.4,0.2-0.4,0.3l-1.2,8.5
			c-0.1,0.8,0,1.3,0.3,1.7s1,0.6,1.9,0.6c1.1,0,1.7-0.2,2.4-0.3l2.7-0.6c0.2,0,0.3-0.2,0.3-0.5c-0.1-0.7-0.1-1.5-0.1-2.3
			c0-7.2,2.8-13.5,8.2-18c4.9-4.1,11.5-6.4,18.4-6.4c12.3,0,20.9,7.9,20.9,19.2C199.6-168.8,185.9-160.3,173.1-160.3z"/>
	</g>
</g>
</svg>
