<svg id="112739d7-2d46-4091-9c67-465c498c08ea" data-name="Layer 1" xmlns="http://www.w3.org/2000/svg" xmlns:xlink="http://www.w3.org/1999/xlink" viewBox="0 0 221.67 227.25">
  <defs>
    <clipPath id="8ac1e6c8-ec14-4e52-ab79-a3cffd19f1cb" transform="translate(-9.5)">
      <rect y="27.08" width="226.01" height="207.02" style="fill: none"/>
    </clipPath>
    <clipPath id="4db200a0-a0c7-4d9f-936f-fba319aeb3de" transform="translate(-9.5)">
      <rect x="9.5" y="27.08" width="216.51" height="200.17" style="fill: none"/>
    </clipPath>
    <clipPath id="9028a20e-be1a-4449-b252-ef2fda8ea3e6" transform="translate(-9.5)">
      <path d="M61.45,126.4c4.93.34,14-.48,26.17-2.81C79.21,20.55,211.33,62.13,223,27.08,205.84,58.22,52.58,7.13,61.45,126.4" style="fill: none"/>
    </clipPath>
    <radialGradient id="e33b24bb-9649-48c3-adb8-6290938c04c6" cx="-278.21" cy="432.11" r="1.83" gradientTransform="matrix(0, 151.03, 114.62, 0, -49285.82, 42141.79)" gradientUnits="userSpaceOnUse">
      <stop offset="0" stop-color="#f8981d"/>
      <stop offset="0.56" stop-color="#f8981d"/>
      <stop offset="0.56" stop-color="#f7961d"/>
      <stop offset="0.62" stop-color="#e97322"/>
      <stop offset="0.68" stop-color="#dd5726"/>
      <stop offset="0.74" stop-color="#d44128"/>
      <stop offset="0.81" stop-color="#ce312a"/>
      <stop offset="0.89" stop-color="#ca282c"/>
      <stop offset="1" stop-color="#c9252c"/>
    </radialGradient>
    <clipPath id="9a40fb0c-5210-4996-8168-4e1f1290ddd8" transform="translate(-9.5)">
      <path d="M87.62,123.59c7.38-1.41,15.91-3.38,25.36-6-9.42-88.8,103.79-51.38,110-90.52C211.33,62.13,79.21,20.55,87.62,123.59" style="fill: none"/>
    </clipPath>
    <radialGradient id="9efcf015-b13b-4e67-9872-4ff92f13ecb9" cx="-278.21" cy="432.11" r="1.83" gradientTransform="matrix(0, 151.03, 114.62, 0, -49267.45, 42133.09)" gradientUnits="userSpaceOnUse">
      <stop offset="0" stop-color="#ffd200"/>
      <stop offset="0.56" stop-color="#ffd200"/>
      <stop offset="0.6" stop-color="#fdc407"/>
      <stop offset="0.66" stop-color="#fbb111"/>
      <stop offset="0.74" stop-color="#f9a318"/>
      <stop offset="0.84" stop-color="#f89a1c"/>
      <stop offset="1" stop-color="#f8981d"/>
    </radialGradient>
    <clipPath id="d84179c3-9c32-473c-9fc1-af006c21912e" transform="translate(-9.5)">
      <path d="M113,117.6c1.32-.36,2.65-.73,4-1.12,8.27-2.37,15.26-4.64,21.17-6.77C129.55,37.61,222.25,70,223,27.08c-6.21,39.14-119.42,1.72-110,90.52" style="fill: none"/>
    </clipPath>
    <radialGradient id="93512a8b-235a-41f2-aa18-5ec876eebd3c" cx="-278.21" cy="432.11" r="1.83" gradientTransform="matrix(0, 151.03, 114.62, 0, -49255.52, 42121.18)" gradientUnits="userSpaceOnUse">
      <stop offset="0" stop-color="#bed730"/>
      <stop offset="0.56" stop-color="#bed730"/>
      <stop offset="0.59" stop-color="#97ce36"/>
      <stop offset="0.64" stop-color="#6fc43d"/>
      <stop offset="0.68" stop-color="#4dbc42"/>
      <stop offset="0.73" stop-color="#31b547"/>
      <stop offset="0.78" stop-color="#1bb04b"/>
      <stop offset="0.84" stop-color="#0cac4d"/>
      <stop offset="0.9" stop-color="#03aa4f"/>
      <stop offset="1" stop-color="#00a94f"/>
    </radialGradient>
    <clipPath id="5ea54ae7-26cb-4039-ab77-1e5bbe319994" transform="translate(-9.5)">
      <path d="M138.15,109.71c12.62-4.55,20.21-8.43,24.38-11.2C153.34,41.25,227.72,74.08,223,27.08c-.73,42.94-93.43,10.53-84.83,82.63" style="fill: none"/>
    </clipPath>
    <radialGradient id="906007f4-c338-4794-9633-8be4f3a6c47b" cx="-278.21" cy="432.11" r="1.83" gradientTransform="matrix(0, 151.03, 114.62, 0, -49245.21, 42102.38)" gradientUnits="userSpaceOnUse">
      <stop offset="0" stop-color="#00aeef"/>
      <stop offset="0.56" stop-color="#00aeef"/>
      <stop offset="0.58" stop-color="#04a1e5"/>
      <stop offset="0.63" stop-color="#0f7fc9"/>
      <stop offset="0.69" stop-color="#1862b3"/>
      <stop offset="0.75" stop-color="#1e4da1"/>
      <stop offset="0.81" stop-color="#233d95"/>
      <stop offset="0.89" stop-color="#26348d"/>
      <stop offset="1" stop-color="#27318b"/>
    </radialGradient>
  </defs>
  <title>illinois-logo</title>
  <g style="clip-path: url(#8ac1e6c8-ec14-4e52-ab79-a3cffd19f1cb)">
    <path d="M201.56,136.51a52.15,52.15,0,0,0-6.39-20.32,34.88,34.88,0,0,0-14.3-14.1,39.93,39.93,0,0,0-5.51-2.44,19.44,19.44,0,0,0,.19-2.28,8.35,8.35,0,0,0-2.42-6c-2.48-2.53-6.53-3.75-12.37-3.77h-.09c-13.38,0-36.42,4.92-52.09,9.12-29.69,8-53.36,18.38-58.9,25.9a9,9,0,0,0,.76,11.8c.38.39.77.76,1.15,1.1a40.1,40.1,0,0,0-6.85,37.75,51.36,51.36,0,0,0,14,22.17c12.3,11.6,31.21,16.26,38.56,17.7,4.36,9,14.94,14.1,29.62,14.1a65.79,65.79,0,0,0,18-2.56c21.68-6.33,32.79-17.84,38.29-26.38a28.32,28.32,0,0,0,4.43-19.26c2.2-2.77,5.57-8.1,9.85-18.19a50.22,50.22,0,0,0,4.11-24.35" transform="translate(-9.5)" style="fill: #f8971d"/>
    <path d="M59.85,172a19.67,19.67,0,0,1,9.88,2.92,4.17,4.17,0,0,1,3.61-2.58c1.77-.1,3.56-.24,5.34-.41-.06-.3,56.95-15.55,56.95-15.87L172,138.63c1-.64,2.07-1.29,3.09-1.95a25.08,25.08,0,0,1,10.41-4.17,3.64,3.64,0,0,1-.05-.74,4.17,4.17,0,0,1,1.74-3.32c2-1.44,4-2.92,6-4.43a57.36,57.36,0,0,0-2.55-5.37,30.49,30.49,0,0,0-16.43-13.89,15.4,15.4,0,0,1-3.41,5.55,29.83,29.83,0,0,1-13.63,7.21,15.24,15.24,0,0,1-3.37.39s8.49-4.34,12.18-8.62a24.37,24.37,0,0,0,3.15-5.94h0s0,0,0,0c.13-.34.26-.68.38-1a20.12,20.12,0,0,0,.87-5c0-2.66-3-4.46-9.59-4.48-12,0-33.51,4.3-50.82,9-32.8,8.8-52.34,18.9-56.06,23.95a3.9,3.9,0,0,0,.26,5.06,30.67,30.67,0,0,0,3.22,2.78,46.81,46.81,0,0,0,9.78,4.81c6.53,1.94,21.33-.41,21.33-.41s-7.76,6.33-21.84,4.7c-5.82-.68-8.9-2.32-11-3.82a35.14,35.14,0,0,0-6.44,12.5c-2.05,6.87-1.6,15,1.33,22.82A18.72,18.72,0,0,1,59.85,172m-2.62-44.46c-.58-3.24,7.64-7.47,8.72-8.05s-4.32,4.14-4.07,5.47,11.53,0,17.18-.91,11.53-2.57,11.53-2.57,4.65-2.91,24.73-8.88S144,107,144,107a91.8,91.8,0,0,0,11-4.81c4.32-2.41,6.3-3.82,6.39-4.73s-5.56-2.82-5.56-2.82c3-.17,12.61.25,10.7,3.06s-14,11.21-49.61,21.41-59.17,11.7-59.75,8.47" transform="translate(-9.5)" style="fill: #ffd200"/>
    <path d="M78.28,190.23a19,19,0,0,1-3,10.2c1.53.76,3.07,1.45,4.59,2.08l.06-15.87-2,.17a18.36,18.36,0,0,1,.3,3.42" transform="translate(-9.5)" style="fill: #ffd200"/>
    <path d="M178.9,187.42h0a34.74,34.74,0,0,1-14.11,17.95c-15.53,10.21-29.92,7.82-29.92,7.82a74.27,74.27,0,0,0,21.49-7.52c7.6-4.07,11.53-8,13.89-11-17.4,12.91-30.62,12.34-30.62,12.34s16.88-3.07,33.29-19.49A112.55,112.55,0,0,0,182,177.5v0l.06-.05a69,69,0,0,0,8.29-13.5c-1.55,1.1-3.11,2.19-4.68,3.25a4.15,4.15,0,0,1-3.6.53q-2.34-.73-4.67-1.52l-.26.16.53,3a4.17,4.17,0,0,1-1.92,4.28c-3.5,2.16-7.09,4.27-10.65,6.25a4.15,4.15,0,0,1-3.57.24,4.24,4.24,0,0,1-2.16,2.87,248.61,248.61,0,0,1-23,10.63,4.17,4.17,0,0,1-5.73-3.89l0-15q-2,.76-4.08,1.47l0,18.07a4.18,4.18,0,0,1-2.86,4c-3.3,1.1-6.64,2.13-9.93,3a4.18,4.18,0,0,1-5.31-4l0-15.61c-1.4.35-2.8.69-4.19,1l-.36.08c-2,.47-4.05.9-6.07,1.29l0,17.56a4.21,4.21,0,0,1-3.45,4.14l-3.47.58A90.67,90.67,0,0,0,101,208.53v0c3.39.54,8.12,1,8.12,1a17,17,0,0,0,3,2.07c3.35,1.66,9.18,2.17,9.18,2.17a97.77,97.77,0,0,1-17,.65c8,8.9,26.21,9,39,5.24,18.24-5.33,29.32-14.8,35.37-24.21a23.53,23.53,0,0,0,3.85-11.89c-1.17,1.29-2.41,2.57-3.74,3.82" transform="translate(-9.5)" style="fill: #ffd200"/>
    <path d="M48.39,66.55l-.13-.06a5.45,5.45,0,0,1-2.79-3.22c-1.06-2.93-.5-7.21,1.5-11.44,3.1-6.55,8.16-10.1,12-8.45l.13.07a4.76,4.76,0,0,1,1.1.7L63.05,46a5.37,5.37,0,0,1,2.49,3c1,2.78.47,6.81-1.41,10.8-2.91,6.14-7.67,9.49-11.35,8l-3.28-.94a5.44,5.44,0,0,1-1.11-.33" transform="translate(-9.5)" style="fill: #f8971d"/>
    <path d="M49.62,63.55h0l.16.05.27.07c1.91.32,5.21-2.25,7.43-7,1.59-3.36,2.13-6.88,1.38-8.95a2.67,2.67,0,0,0-.71-1.12,1.66,1.66,0,0,0-.39-.26c-1.89-.81-5.46,1.76-7.85,6.82-1.6,3.37-2.14,6.88-1.39,9a2.26,2.26,0,0,0,1.1,1.38" transform="translate(-9.5)" style="fill: #ffd200"/>
    <path d="M62.48,50.14a2.06,2.06,0,0,0-1-1.26l-.11-.06-.69-.46c.43,2.46-.2,5.8-1.74,9A16,16,0,0,1,53,64.51l.86.25.06,0h0c1.69.73,5.06-1.71,7.26-6.34,1.47-3.13,2-6.39,1.28-8.31" transform="translate(-9.5)" style="fill: #ffd200"/>
    <path d="M192.93,84l1.4-1.77a3.42,3.42,0,0,0,.68-.93c.67-1.31,1.11-4-3.48-7.72a23.38,23.38,0,0,0-4-2.58,21,21,0,0,0-7-2.26c-3.84-.43-5.27,1.18-5.78,2.19a3.39,3.39,0,0,0-.36,1.1l-.61,2.16c-.54,1.29-.72,3.84,3.41,7.14A22.43,22.43,0,0,0,181,83.72a19.7,19.7,0,0,0,6.55,2.14c3.4.37,4.84-1,5.4-1.88" transform="translate(-9.5)" style="fill: #f8971d"/>
    <path d="M190.43,82.21l.18-.23a8.56,8.56,0,0,1-1.21,0A19.45,19.45,0,0,1,183,79.82a22.25,22.25,0,0,1-3.76-2.4,14.59,14.59,0,0,1-1.7-1.58,8.91,8.91,0,0,1-.76-1l-.12.43c-.3.58.46,2,2.47,3.62A20.15,20.15,0,0,0,182.37,81a16.69,16.69,0,0,0,5.49,1.81c1.57.17,2.32-.15,2.5-.49Z" transform="translate(-9.5)" style="fill: #ffd200"/>
  </g>
  <g style="clip-path: url(#4db200a0-a0c7-4d9f-936f-fba319aeb3de)">
    <path d="M177.42,72.5c-.07.45.22,1.24,1.2,2.33a20.1,20.1,0,0,0,10.95,5.6c1.45.17,2.26-.06,2.59-.38a.7.7,0,0,0,.14-.16c.32-.64-.49-2.2-2.67-4a21,21,0,0,0-3.52-2.24,17.82,17.82,0,0,0-5.91-2c-1.7-.19-2.52.16-2.72.55a.47.47,0,0,0-.06.2" transform="translate(-9.5)" style="fill: #ffd200"/>
    <path d="M16.83,137.88h0a4.9,4.9,0,0,1-3.12-1.95l-2.59-2.81a4.76,4.76,0,0,1-1-1.13c-.75-1.23-1.51-3.93,1.79-8.15a32.64,32.64,0,0,1,8.63-7.3c5.71-3.46,11.51-5.13,15.11-4.34a5.06,5.06,0,0,1,3.4,2.26,4.54,4.54,0,0,1,.55,1.39l1.3,3.59c.66,1.27,1.13,3.78-1.81,7.54A30.48,30.48,0,0,1,31,133.82c-5.37,3.25-10.82,4.81-14.21,4.06" transform="translate(-9.5)" style="fill: #f8971d"/>
  </g>
  <g style="clip-path: url(#8ac1e6c8-ec14-4e52-ab79-a3cffd19f1cb)">
    <path d="M12.73,130.43h0a1.8,1.8,0,0,0,.26.3s0,0,0,.05c.78.66,2.45.83,4.62.43a29.65,29.65,0,0,0,9.45-3.88c6.51-4,10-8.66,9.56-10.85,0,0,0-.07,0-.09a1.29,1.29,0,0,0-.14-.36,2.15,2.15,0,0,0-1.46-.88c-2.79-.61-8,1-12.91,4a29.16,29.16,0,0,0-7.81,6.57c-1.57,2-2.16,3.77-1.59,4.73" transform="translate(-9.5)" style="fill: #ffd200"/>
  </g>
  <g style="clip-path: url(#4db200a0-a0c7-4d9f-936f-fba319aeb3de)">
    <path d="M38.22,120.77l-.07-.14-.51-1.41c-1.32,2.92-4.83,6.42-9.75,9.41a31.57,31.57,0,0,1-10,4.07,12.69,12.69,0,0,1-2.91.21l1.12,1.23a2,2,0,0,0,1.34.8c2.58.56,7.41-.92,12-3.7a27.42,27.42,0,0,0,7.27-6.12c1.45-1.86,2-3.48,1.48-4.35" transform="translate(-9.5)" style="fill: #ffd200"/>
    <path d="M213.06,93.16h0c-2.77,1.56-4.69,1.22-5.86.58l-3.54-1.34a4.45,4.45,0,0,1-1.37-.56c-4.53-2.83-2-11.5,2.31-18.35,2.75-4.4,6.07-7.9,9.12-9.63s5.18-1.23,6.37-.49a4.5,4.5,0,0,1,1.11,1L224,67c1.16.83,2.7,2.86,1.78,7.5a30.41,30.41,0,0,1-4.11,9.68c-2.57,4.11-5.69,7.4-8.56,9" transform="translate(-9.5)" style="fill: #f8971d"/>
  </g>
  <g style="clip-path: url(#8ac1e6c8-ec14-4e52-ab79-a3cffd19f1cb)">
    <path d="M203.89,89.28a1.84,1.84,0,0,0,.35.15l.1,0c2.17.52,6.88-2.92,10.88-9.33s5-12.14,3.62-13.87l-.06-.07a1.13,1.13,0,0,0-.29-.25h0c-.7-.44-1.87-.24-3.28.56-2.59,1.46-5.6,4.68-8.05,8.6-4.3,6.88-5.17,13-3.27,14.19" transform="translate(-9.5)" style="fill: #ffd200"/>
    <path d="M222,69.27l-1.07-1c.13,3.18-1.42,7.84-4.44,12.68-2.71,4.33-5.82,7.55-8.53,9.08a9.86,9.86,0,0,1-.92.46l1.52.58c.63.4,1.71.21,3-.52,2.4-1.36,5.2-4.36,7.48-8a26.7,26.7,0,0,0,3.7-8.66c.46-2.28.22-4-.63-4.5Z" transform="translate(-9.5)" style="fill: #ffd200"/>
    <path d="M35.15,96.51h0c-3.85-3.38-5.31-7.44-3.75-10.4l1.52-3.81A6.31,6.31,0,0,1,33.44,81c2.31-4,9-4.23,15.57-.48a22.35,22.35,0,0,1,3.58,2.54c4.15,3.65,5.67,8,3.89,11.12a5.76,5.76,0,0,1-.82,1.09l-2.52,3.24c-2.27,3.69-8.51,3.85-14.62.35a20.21,20.21,0,0,1-3.37-2.39" transform="translate(-9.5)" style="fill: #f8971d"/>
    <path d="M36.07,82.54a3.17,3.17,0,0,0-.19.42l0,.13c-.73,2.48,2.09,6.43,6.57,9a16,16,0,0,0,7.26,2.27,5,5,0,0,0,3.85-1.18l.08-.1a2.8,2.8,0,0,0,.25-.35c1-1.78-.29-4.74-3.26-7.35a19.65,19.65,0,0,0-3.09-2.19c-4.82-2.76-10.06-3.05-11.44-.64" transform="translate(-9.5)" style="fill: #ffd200"/>
    <path d="M50.68,96.81l.82-1.07a9.29,9.29,0,0,1-1.87.12,17.63,17.63,0,0,1-8-2.47A20.09,20.09,0,0,1,38.31,91a12.89,12.89,0,0,1-3.65-4.91l-.55,1.36c-.94,1.64.28,4.37,3,6.78h0a17.23,17.23,0,0,0,2.87,2c4.48,2.56,9.33,2.84,10.6.61Z" transform="translate(-9.5)" style="fill: #ffd200"/>
  </g>
  <g style="clip-path: url(#9028a20e-be1a-4449-b252-ef2fda8ea3e6)">
    <rect x="74.46" y="-20.7" width="126.64" height="175.26" transform="translate(55.63 201.79) rotate(-87.6)" style="fill: url(#e33b24bb-9649-48c3-adb8-6290938c04c6)"/>
  </g>
  <g style="clip-path: url(#9a40fb0c-5210-4996-8168-4e1f1290ddd8)">
    <rect x="96.61" y="-1.91" width="108.97" height="147.96" transform="translate(63.26 220.01) rotate(-87.6)" style="fill: url(#9efcf015-b13b-4e67-9872-4ff92f13ecb9)"/>
  </g>
  <g style="clip-path: url(#d84179c3-9c32-473c-9fc1-af006c21912e)">
    <rect x="115.54" y="10.78" width="95.45" height="123.11" transform="matrix(0.04, -1, 1, 0.04, 74.65, 232.43)" style="fill: url(#93512a8b-235a-41f2-aa18-5ec876eebd3c)"/>
  </g>
  <g style="clip-path: url(#5ea54ae7-26cb-4039-ab77-1e5bbe319994)">
    <rect x="135.3" y="17.62" width="86.67" height="101.54" transform="translate(93.32 244) rotate(-87.6)" style="fill: url(#906007f4-c338-4794-9633-8be4f3a6c47b)"/>
  </g>
  <g style="clip-path: url(#8ac1e6c8-ec14-4e52-ab79-a3cffd19f1cb)">
    <path d="M222.89,104.29a4.45,4.45,0,0,0-7.21-4.84c-3,2.91-6.2,5.8-9.38,8.58a4.43,4.43,0,0,0-1.2,1.7c-1.17,2.94-2.37,5.92-3.58,8.91l-1.28-1a4.45,4.45,0,0,0-5.5,0c-3.26,2.57-6.59,5.08-9.89,7.45a4.46,4.46,0,0,0-1.85,3.53c0,.17,0,.34,0,.51a26,26,0,0,0-10.25,4.18c-4.89,3.14-9.91,6.13-14.91,8.89a4.44,4.44,0,0,0-2.28,3.55l-.21-.11a4.43,4.43,0,0,0-4,0c-7,3.6-14.16,6.85-21.27,9.66a4.27,4.27,0,0,0-1.28.78,4.46,4.46,0,0,0-1.48.28,207.17,207.17,0,0,1-28.22,8.54l-.29.06a177.61,177.61,0,0,1-27.64,3.95,4.39,4.39,0,0,0-3.2,1.65,4.3,4.3,0,0,0-.52.81,19.9,19.9,0,0,0-9.76-2.81C47.2,168.34,39.12,176,39,186.32a20.13,20.13,0,0,0,.12,2.2l-.52-.09,0-17.32a4.46,4.46,0,0,0-3.6-4.37c-3.17-.61-6.28-1.33-9.25-2.14a4.44,4.44,0,0,0-5.57,4.89l.8,5.77,0,21.31a4.44,4.44,0,0,0,3.31,4.3A141.09,141.09,0,0,0,44,204.58a4.42,4.42,0,0,0,3.7-1.33,1.8,1.8,0,0,0,.19-.2,17.89,17.89,0,0,0,9.49,3.06h.5a18.13,18.13,0,0,0,12.9-5.46,19.21,19.21,0,0,0,5.62-13.53,18.88,18.88,0,0,0-.25-3.21l1.38-.13-.06,16.1a4.44,4.44,0,0,0,5,4.42c3.3-.4,6.61-.9,9.84-1.47A4.44,4.44,0,0,0,96,198.46l0-17.37c1.93-.38,3.88-.79,5.83-1.24l.39-.09c1.3-.3,2.59-.61,3.88-.93l0,15.27a4.45,4.45,0,0,0,5.64,4.3c3.27-.92,6.61-2,9.94-3.05a4.45,4.45,0,0,0,3-4.21l0-17.89c1.18-.41,2.37-.84,3.56-1.28l0,14.59a4.45,4.45,0,0,0,6.1,4.13,246.46,246.46,0,0,0,23-10.64,4.44,4.44,0,0,0,2.22-2.75,4.45,4.45,0,0,0,3.51-.35c3.52-2,7.11-4.06,10.66-6.26a4.46,4.46,0,0,0,2.05-4.55l-.5-2.81h0c1.51.51,3,1,4.56,1.49a4.45,4.45,0,0,0,3.83-.56c4-2.71,8-5.58,11.88-8.53a4.45,4.45,0,0,0,1.74-4,4.45,4.45,0,0,0,4.34-.68c3.36-2.68,6.73-5.49,10-8.35a4.47,4.47,0,0,0,1.46-4.1l-.8-4.72v-3.11c3.59-8.74,7.15-17.63,10.59-26.43" transform="translate(-9.5)" style="fill: #27318b"/>
    <path d="M34.19,192.15q4.62.9,9.34,1.48c.32,2.18.65,4.36,1,6.53a135.23,135.23,0,0,1-19.06-3.58q0-10.82,0-21.63-.41-3-.83-6.06,4.71,1.28,9.57,2.22,0,10.51,0,21M72,187.08c0,7.93-6.54,14.81-14.46,14.58s-14-7.42-14-15.36S49.72,172.84,57.59,173,72,179.11,72,187.08M57.6,179.82c-2.5-.06-4.62,3.18-4.6,7.34s2.09,7.65,4.59,7.72,4.55-3.32,4.58-7.47-2.07-7.52-4.57-7.59m71.31-19.27a211.85,211.85,0,0,1-28.75,8.7l-.37.08a179.88,179.88,0,0,1-28.35,4l1,6.36c3.15-.21,6.33-.51,9.52-.9q0,10.53-.08,21.06,4.78-.58,9.61-1.43,0-10.53,0-21.06c3.09-.54,6.19-1.18,9.3-1.88l.37-.09c3.1-.72,6.22-1.51,9.34-2.39q0,10.54-.08,21.08,4.86-1.37,9.74-3,0-10.53,0-21.06,4.86-1.62,9.73-3.5-.51-3-1-6m3.76,4.37c-.31-1.82-.63-3.64-.94-5.46,7.24-2.87,14.48-6.15,21.66-9.84.34,2,.69,3.92,1,5.89q-6,3.12-12,5.86v4q5.69-2.58,11.34-5.5.53,3,1,5.89-6.15,3.21-12.37,6l0,4.22q6-2.7,11.89-5.78c.35,2,.69,3.93,1,5.89a242.26,242.26,0,0,1-22.62,10.45l0-21.65m60.19-12.74q-5.79,4.38-11.7,8.39c-2.15-.68-4.32-1.4-6.49-2.15-1.27.82-4.24,2.66-4.24,2.66l0,.56.93,5.27q-5.22,3.22-10.49,6.16,0-10.83,0-21.65l-.93-5.33q7.63-4.22,15.16-9c7.79-5,14-4.87,14,.92,0,3.23-2,7.59-5.1,11.7,3,.91,5.88,1.74,8.79,2.51m-13-7.69c0-2.2-2.64-2.33-5.87-.28-.58.38-3.56,2.23-3.56,2.22,0,2.74,0,5.47,0,8.2q1.75-1.08,3.51-2.19c3.29-2.08,5.88-5.73,5.9-7.95m28-14.65v4.36l.87,5.1q-4.87,4.24-9.87,8.23l0-10.24q-5.65-4.12-11.43-8.59,5.07-3.64,10-7.57,3,2.36,5.93,4.62,2.93-7.14,5.81-14.37,4.82-4.23,9.52-8.71-5.37,13.76-10.9,27.17" transform="translate(-9.5)" style="fill: #fff"/>
    <path d="M87.86,160.54V146.45c1.2-.25,2.4-.5,3.6-.78v14.41c-1.2.17-2.4.32-3.6.46M98,158.72c-3.06.55-3.12-1-3.12-3.07v-7.12a30.67,30.67,0,0,0-.13-3.79c1.2-.38,2.39-.79,3.58-1.21a15.67,15.67,0,0,1,.17,2.58v7.75c0,1.84.06,2.31.88,2.16a1.54,1.54,0,0,0,.37-.14c.2.69.39,1.38.59,2.07a7.75,7.75,0,0,1-2.34.77m7.47-1.56c-3.08.71-3.14-.84-3.14-2.92v-7.12a32.74,32.74,0,0,0-.12-3.77l3.6-1.39a16.6,16.6,0,0,1,.16,2.56v7.75c0,1.84.07,2.31.88,2.11a1.2,1.2,0,0,0,.38-.15c.19.68.39,1.36.59,2a8.45,8.45,0,0,1-2.35.89m6.36-13.09a1.51,1.51,0,0,1-2.07-1.42,2.9,2.9,0,0,1,2.14-2.56,1.47,1.47,0,0,1,2,1.4,2.91,2.91,0,0,1-2.12,2.58m-1.8,11.69V145.49c1.22-.43,2.43-.87,3.65-1.33v10.6c-1.22.35-2.43.68-3.65,1m13-4v-6.67c0-1.13-.37-1-.9-.82a3.43,3.43,0,0,0-1.2,1v7.2c-1.22.41-2.44.8-3.66,1.18v-6.63a13.4,13.4,0,0,0-.33-3.4c1.12-.52,2.24-1.07,3.36-1.62a3.61,3.61,0,0,1,.21.9,8,8,0,0,1,3.13-2.06c2.55-.9,3,.33,3,1.77v7.83c-1.22.45-2.44.89-3.66,1.31m11.58-4.2c-3.1,1.31-5,.06-5-3.4a8.43,8.43,0,0,1,5.22-7.65c2.67-1.13,5-.71,5,3a8.6,8.6,0,0,1-5.16,8m.07-8.54c-.76.32-1.13,1-1.13,3.61,0,2,.12,2.86,1.15,2.43.86-.37,1.13-1.38,1.13-3.86,0-2.09-.29-2.55-1.15-2.18m9.76-7.41c-1.13.55-2.07.11-2.07-1a3.82,3.82,0,0,1,2.13-3c1.15-.56,2-.12,2,1a3.81,3.81,0,0,1-2.1,3m-1.8,12.07V133.44c1.22-.69,2.42-1.39,3.63-2.1v10.6c-1.21.61-2.41,1.2-3.63,1.77m10.92-5.34a9.38,9.38,0,0,1-4.64,1.17c.42-1.07.84-2.14,1.27-3.21a7.43,7.43,0,0,0,3.5-.55,2.15,2.15,0,0,0,1.12-1.41c0-.57-.36-.53-1.41-.17l-1.39.47c-1.72.58-2.51,0-2.51-1.52,0-2.15,1.73-4.45,4.39-5.93a9.69,9.69,0,0,1,4.21-1.31L157,128.74a6,6,0,0,0-2.62.71c-.56.31-.93.76-.93,1.1s.25.52,1.12.21l1.32-.46c1.87-.66,2.63-.1,2.63,1.54,0,2.26-2,4.89-4.95,6.53" transform="translate(-9.5)" style="fill: #27318b"/>
    <path d="M215.65,136.84a4.25,4.25,0,1,1,4.24,4.12,4.07,4.07,0,0,1-4.24-4.12m4.24-3.33a3.33,3.33,0,1,0,3.16,3.33,3.16,3.16,0,0,0-3.16-3.33m-.69,5.58h-1v-4.52h1.7c1.18,0,1.84.33,1.84,1.37,0,.83-.47,1.15-1.24,1.2l1.18,2h-1l-1.06-1.9h-.45Zm0-2.65h.85c.54,0,.73-.26.73-.6s-.31-.52-.77-.52h-.81Z" transform="translate(-9.5)" style="fill: #27318b"/>
  </g>
</svg>
