<?xml version="1.0" encoding="utf-8"?>
<!-- Generator: Adobe Illustrator 21.0.2, SVG Export Plug-In . SVG Version: 6.00 Build 0)  -->
<svg version="1.1" id="Calque_1" xmlns="http://www.w3.org/2000/svg" xmlns:xlink="http://www.w3.org/1999/xlink" x="0px" y="0px"
	 viewBox="0 0 113.4 113.4" style="enable-background:new 0 0 113.4 113.4;" xml:space="preserve">
<style type="text/css">
	.st0{fill:#FF7900;}
	.st1{fill:#FFFFFF;}
</style>
<g>
	<g>
		<path class="st0" d="M7.4,0H0v8C1.9,4.9,4.4,2.1,7.4,0z"/>
		<path class="st0" d="M22.2,39.3c10,0,18.1-8.1,18.1-18.1c0-10-8.1-18.1-18.1-18.1c-10,0-18.1,8.1-18.1,18.1
			C4.2,31.2,12.3,39.3,22.2,39.3z M22.2,13.3c6.3,0,11.4,5.2,11.4,11.5c0,6.4-5.1,11.5-11.4,11.5c-6.3,0-11.4-5.2-11.4-11.5
			C10.8,18.5,15.9,13.3,22.2,13.3z"/>
		<path class="st0" d="M37.1,0c6.6,4.7,11,12.4,11,21.2C48,35.4,36.5,47,22.2,47C12.8,47,4.5,41.9,0,34.3v79.1h113.4V0H37.1z"/>
		<path class="st1" d="M22.2,47C36.5,47,48,35.4,48,21.2c0-8.7-4.3-16.5-11-21.2H7.4C4.4,2.1,1.9,4.9,0,8v26.2
			C4.5,41.9,12.8,47,22.2,47z M22.2,3.1c10,0,18.1,8.1,18.1,18.1c0,10-8.1,18.1-18.1,18.1c-10,0-18.1-8.1-18.1-18.1
			C4.2,11.2,12.3,3.1,22.2,3.1z"/>
		<path class="st1" d="M22.2,36.4c6.3,0,11.4-5.2,11.4-11.5c0-6.4-5.1-11.5-11.4-11.5c-6.3,0-11.4,5.2-11.4,11.5
			C10.8,31.2,15.9,36.4,22.2,36.4z"/>
	</g>
	<g>
		<path class="st1" d="M24.5,67h4.6v9.6h4.5v3.9h-9.1V67z"/>
		<path class="st1" d="M35.2,73.7c0-1.1,0.2-2.1,0.6-2.9c0.4-0.9,0.9-1.6,1.6-2.2c0.7-0.6,1.5-1.1,2.4-1.4c0.9-0.3,1.9-0.5,3-0.5
			c1.1,0,2.1,0.2,3,0.5c0.9,0.3,1.7,0.8,2.4,1.4c0.7,0.6,1.2,1.4,1.6,2.2c0.4,0.9,0.6,1.9,0.6,2.9c0,1.1-0.2,2.1-0.6,3
			c-0.4,0.9-0.9,1.7-1.6,2.3c-0.7,0.6-1.5,1.1-2.4,1.5c-0.9,0.3-1.9,0.5-3,0.5c-1.1,0-2.1-0.2-3-0.5c-0.9-0.3-1.7-0.8-2.4-1.5
			c-0.7-0.6-1.2-1.4-1.6-2.3C35.4,75.8,35.2,74.8,35.2,73.7z M40.1,73.7c0,0.4,0.1,0.9,0.2,1.2c0.1,0.4,0.3,0.7,0.6,1
			c0.2,0.3,0.5,0.5,0.8,0.6c0.3,0.1,0.7,0.2,1.1,0.2c0.4,0,0.7-0.1,1.1-0.2c0.3-0.1,0.6-0.4,0.9-0.6c0.2-0.3,0.4-0.6,0.6-1
			c0.1-0.4,0.2-0.8,0.2-1.2c0-0.4-0.1-0.8-0.2-1.2c-0.1-0.4-0.3-0.7-0.6-0.9c-0.2-0.2-0.5-0.4-0.9-0.6c-0.3-0.1-0.7-0.2-1.1-0.2
			c-0.4,0-0.7,0.1-1.1,0.2c-0.3,0.1-0.6,0.3-0.8,0.6c-0.2,0.2-0.4,0.6-0.6,0.9C40.1,72.9,40.1,73.3,40.1,73.7z"/>
		<path class="st1" d="M59.6,80.5h-4.5v-9.7h-3.3V67h11.2v3.8h-3.3V80.5z"/>
		<path class="st1" d="M65.4,67h9.3v3.8h-5V72h4.7v3.5h-4.7v1.3h5.4v3.8h-9.6V67z"/>
		<path class="st1" d="M78.1,67h5.8c0.7,0,1.3,0.1,2,0.2c0.7,0.1,1.2,0.4,1.8,0.7c0.5,0.3,0.9,0.8,1.2,1.4c0.3,0.6,0.5,1.3,0.5,2.1
			c0,0.8-0.2,1.6-0.6,2.2c-0.4,0.6-1,1.1-1.8,1.5l3.4,5.5h-5.2l-2.6-4.8h-0.1v4.8h-4.4V67z M82.5,72.7h0.9c0.2,0,0.3,0,0.5,0
			c0.2,0,0.4-0.1,0.5-0.2c0.2-0.1,0.3-0.2,0.4-0.3c0.1-0.1,0.2-0.3,0.2-0.6c0-0.2,0-0.4-0.1-0.6c-0.1-0.1-0.2-0.2-0.3-0.3
			c-0.1-0.1-0.3-0.1-0.5-0.1c-0.2,0-0.3,0-0.5,0h-1.1V72.7z"/>
		<path class="st1" d="M92.1,67h4.6v13.5h-4.6V67z"/>
		<path class="st1" d="M99.6,67h9.3v3.8h-5V72h4.7v3.5h-4.7v1.3h5.3v3.8h-9.6V67z"/>
		<path class="st1" d="M4.3,86.8h5.8c0.7,0,1.3,0.1,2,0.2c0.7,0.1,1.2,0.4,1.8,0.7c0.5,0.3,0.9,0.8,1.2,1.4c0.3,0.6,0.5,1.3,0.5,2.1
			c0,0.8-0.2,1.6-0.6,2.2c-0.4,0.6-1,1.1-1.8,1.5l3.4,5.5h-5.2l-2.6-4.8H8.7v4.8H4.3V86.8z M8.6,92.5h0.9c0.2,0,0.3,0,0.5,0
			c0.2,0,0.4-0.1,0.5-0.2c0.2-0.1,0.3-0.2,0.4-0.3c0.1-0.1,0.2-0.3,0.2-0.6c0-0.2,0-0.4-0.1-0.6c-0.1-0.1-0.2-0.2-0.3-0.3
			c-0.1-0.1-0.3-0.1-0.5-0.1c-0.2,0-0.3,0-0.5,0H8.6V92.5z"/>
		<path class="st1" d="M17.3,93.4c0-1.1,0.2-2.1,0.6-2.9c0.4-0.9,0.9-1.6,1.6-2.2c0.7-0.6,1.5-1.1,2.4-1.4c0.9-0.3,1.9-0.5,3-0.5
			c1.1,0,2.1,0.2,3,0.5c0.9,0.3,1.7,0.8,2.4,1.4c0.7,0.6,1.2,1.4,1.6,2.2c0.4,0.9,0.6,1.8,0.6,2.9c0,1.1-0.2,2.1-0.6,3
			c-0.4,0.9-0.9,1.7-1.6,2.3c-0.7,0.6-1.5,1.1-2.4,1.5c-0.9,0.3-1.9,0.5-3,0.5c-1.1,0-2.1-0.2-3-0.5c-0.9-0.3-1.7-0.8-2.4-1.5
			c-0.7-0.6-1.2-1.4-1.6-2.3C17.5,95.5,17.3,94.5,17.3,93.4z M22.1,93.4c0,0.4,0.1,0.9,0.2,1.2c0.1,0.4,0.3,0.7,0.6,1
			c0.2,0.3,0.5,0.5,0.8,0.6c0.3,0.1,0.7,0.2,1.1,0.2c0.4,0,0.7-0.1,1.1-0.2c0.3-0.1,0.6-0.4,0.8-0.6c0.2-0.3,0.4-0.6,0.6-1
			c0.1-0.4,0.2-0.8,0.2-1.2c0-0.4-0.1-0.8-0.2-1.2c-0.1-0.4-0.3-0.7-0.6-0.9c-0.2-0.2-0.5-0.4-0.8-0.6c-0.3-0.1-0.7-0.2-1.1-0.2
			c-0.4,0-0.7,0.1-1.1,0.2c-0.3,0.1-0.6,0.3-0.8,0.6c-0.2,0.2-0.4,0.6-0.6,0.9C22.2,92.6,22.1,93,22.1,93.4z"/>
		<path class="st1" d="M38.2,92.6l0.2,7.6h-4.2V86.8h5.9l2.4,7.3h0.1l2.1-7.3h6.1v13.5h-4.4l0.1-7.6l-0.1,0l-2.5,7.6h-3.2L38.2,92.6
			L38.2,92.6z"/>
		<path class="st1" d="M57.9,86.8h4.8l5.3,13.5H63l-0.7-2H58l-0.7,2h-4.8L57.9,86.8z M60.2,91.5l-1.1,3.3h2.2L60.2,91.5z"/>
		<path class="st1" d="M69.5,86.8h4.5l3.8,6.8H78l-0.2-6.8h4.3v13.5h-4.6l-3.7-6.4h-0.1l0.2,6.4h-4.3V86.8z"/>
		<path class="st1" d="M84.6,100.2V86.8h5c1.1,0,2.1,0.1,3.1,0.3c1,0.2,1.8,0.6,2.6,1.1c0.7,0.5,1.3,1.2,1.8,2.1
			c0.4,0.9,0.7,1.9,0.7,3.2c0,1.2-0.2,2.2-0.6,3.1c-0.4,0.9-1,1.6-1.7,2.1c-0.7,0.6-1.5,1-2.5,1.2c-0.9,0.3-1.9,0.4-2.9,0.4H84.6z
			 M89,90.6v5.7h0.8c1.1,0,1.9-0.2,2.5-0.7c0.6-0.5,0.9-1.2,0.9-2.3c0-0.9-0.3-1.6-0.9-2c-0.6-0.5-1.3-0.7-2.3-0.7H89z"/>
		<path class="st1" d="M99.7,86.8h9.3v3.8h-5v1.2h4.7v3.5h-4.7v1.3h5.3v3.8h-9.6V86.8z"/>
	</g>
</g>
</svg>
