<?xml version="1.0" encoding="utf-8"?>
<!-- Generator: Adobe Illustrator 23.0.1, SVG Export Plug-In . SVG Version: 6.00 Build 0)  -->
<svg version="1.1" id="Layer_1" xmlns="http://www.w3.org/2000/svg" xmlns:xlink="http://www.w3.org/1999/xlink" x="0px" y="0px"
	 viewBox="0 0 320 110" style="enable-background:new 0 0 320 110;" xml:space="preserve">
<style type="text/css">
	.st0{fill-rule:evenodd;clip-rule:evenodd;fill:#1A1919;}
	.st1{fill:none;stroke:#1A1919;stroke-width:0.5;}
	.st2{fill-rule:evenodd;clip-rule:evenodd;fill:#FFFFFE;}
	.st3{fill-rule:evenodd;clip-rule:evenodd;fill:#FFFFFF;}
	.st4{fill:none;stroke:#1A1919;stroke-width:0.6791;}
	.st5{fill:none;stroke:#1A1919;stroke-width:1.4387;}
	.st6{fill-rule:evenodd;clip-rule:evenodd;fill:#D02139;}
	.st7{fill-rule:evenodd;clip-rule:evenodd;fill:#000712;}
	.st8{fill:none;stroke:#1A1919;stroke-width:0.6712;}
	.st9{fill:none;stroke:#1A1919;stroke-width:0.6594;}
	.st10{fill:none;stroke:#1A1919;stroke-width:0.6168;}
	.st11{fill:none;stroke:#1A1919;stroke-width:0.6656;}
	.st12{fill:none;stroke:#FFFFFF;stroke-width:1.2127;}
</style>
<title>Powerball-logo</title>
<desc>Created with Sketch.</desc>
<g id="Toolkit">
	<g id="GAME-LOGOS" transform="translate(0.000000, -849.000000)">
		<g transform="translate(30.000000, 949.000000)">
			<g id="Group" transform="translate(2.000000, 56.000000)">
				<g id="powerplay" transform="translate(147.000000, 47.000000)">
					<polygon id="Fill-1" class="st0" points="-8.1,-115.5 69,-115.5 69,-130.4 -8.1,-130.4 					"/>
					<polygon id="Stroke-2" class="st1" points="-8.1,-115.5 69,-115.5 69,-130.4 -8.1,-130.4 					"/>
					<path id="Fill-3" class="st2" d="M-1.1-123.5h0.9c0.7,0,1.3-0.1,1.5-0.4c0.3-0.2,0.4-0.5,0.4-0.9c0-0.4-0.1-0.7-0.4-0.9
						c-0.2-0.3-0.7-0.4-1.4-0.4h-1V-123.5z M-4.8-128.6h6.2c1.4,0,2.3,0.3,3,0.9c0.6,0.6,1,1.6,1,2.7c0,1.3-0.3,2.2-1,2.8
						s-1.9,1-3.4,1h-2v4.4h-3.9V-128.6z"/>
					<path id="Fill-4" class="st2" d="M11.9-123.2c0,1.2,0.2,2.1,0.6,2.6c0.4,0.5,1,0.8,1.8,0.8c0.8,0,1.4-0.2,1.9-0.7
						c0.4-0.5,0.6-1.5,0.6-2.7c0-1.2-0.2-2-0.7-2.5c-0.4-0.5-1-0.7-1.9-0.7c-0.7,0-1.4,0.2-1.8,0.8
						C12.1-125.1,11.9-124.3,11.9-123.2z M8.3-123.2c0-2,0.5-3.5,1.7-4.5c1-1,2.6-1.7,4.5-1.7c2,0,3.6,0.5,4.6,1.6
						c1,1,1.6,2.5,1.6,4.5c0,1.4-0.2,2.5-0.7,3.5c-0.4,0.9-1.2,1.6-2,2.1c-0.8,0.5-2,0.7-3.4,0.7s-2.4-0.2-3.4-0.6
						c-0.8-0.4-1.6-1.2-2.1-2C8.6-120.5,8.3-121.7,8.3-123.2z"/>
					<polyline id="Fill-5" class="st2" points="22.4,-128.6 26,-128.6 27.2,-121.9 29.1,-128.6 32.6,-128.6 34.5,-121.9 
						35.7,-128.6 39.2,-128.6 36.6,-116.5 32.9,-116.5 30.8,-124.1 28.7,-116.5 25.1,-116.5 22.4,-128.6 					"/>
					<polyline id="Fill-6" class="st2" points="42.4,-128.6 52.5,-128.6 52.5,-126 46.2,-126 46.2,-124.1 52,-124.1 52,-121.7 
						46.2,-121.7 46.2,-119.3 52.6,-119.3 52.6,-116.5 42.4,-116.5 42.4,-128.6 					"/>
					<path id="Fill-7" class="st2" d="M59.7-123.7h1.6c0.2,0,0.5,0,1-0.2c0.2,0,0.4-0.2,0.6-0.4c0.1-0.2,0.2-0.4,0.2-0.7
						c0-0.4-0.1-0.7-0.4-0.8c-0.2-0.2-0.7-0.3-1.4-0.3h-1.7V-123.7z M55.9-116.5v-12h6.3c1.2,0,2.1,0.1,2.6,0.3
						c0.6,0.2,1.2,0.5,1.5,1c0.4,0.5,0.5,1.2,0.5,1.9c0,0.6-0.1,1.3-0.4,1.7c-0.3,0.5-0.7,0.8-1.2,1.2c-0.3,0.2-0.7,0.3-1.4,0.5
						c0.4,0.1,0.7,0.3,0.9,0.4c0.1,0.1,0.3,0.3,0.6,0.6s0.4,0.5,0.5,0.7l1.8,3.5h-4.3l-2-3.7c-0.2-0.5-0.5-0.7-0.7-0.9
						c-0.3-0.2-0.6-0.3-0.9-0.3h-0.3v4.8h-3.6V-116.5z"/>
					<rect id="Rectangle" x="69" y="-130.4" class="st3" width="53.8" height="14.9"/>
					<polygon id="Stroke-8" class="st4" points="69,-115.5 122.8,-115.5 122.8,-130.4 69,-130.4 					"/>
					<path id="Fill-10" class="st0" d="M72.3-128.6h2.9c0.8,0,1.5,0,2,0.1c0.5,0.1,0.9,0.2,1.3,0.4c0.6,0.3,1,0.7,1.4,1.3
						c0.3,0.5,0.5,1,0.5,1.7c0,0.6-0.1,1.2-0.4,1.7s-0.7,0.9-1.3,1.3c-0.3,0.2-0.8,0.4-1.3,0.4c-0.5,0.1-1.2,0.1-1.9,0.1h-1.8v5
						h-1.4v-12H72.3z M73.6-127.3v4.6h2c1,0,1.9-0.2,2.4-0.5c0.5-0.4,0.7-0.9,0.7-1.7c0-0.8-0.3-1.4-0.8-1.8
						c-0.5-0.4-1.4-0.5-2.5-0.5h-1.8V-127.3z"/>
					<polyline id="Fill-11" class="st0" points="89.7,-117 83.5,-117 83.5,-128.9 84.9,-128.9 84.9,-118.1 89.7,-118.1 89.7,-117 
											"/>
					<path id="Fill-12" class="st0" d="M101.5-121.8l-2.6-6l-2.6,6H101.5z M94-117h-1.4l5.3-12h1.7l5.3,12h-1.5l-1.7-3.8h-6.2
						L94-117z"/>
					<polyline id="Fill-13" class="st0" points="112.3,-121 112.3,-116.5 110.9,-116.5 110.9,-121.1 106.5,-128.6 108,-128.6 
						111.5,-122.3 115.1,-128.6 116.7,-128.6 112.3,-121 					"/>
					<path id="Fill-14" class="st0" d="M119.4-126.7h0.2c0.1,0,0.3,0,0.3-0.1c0.1,0,0.1-0.1,0.1-0.2s0-0.1-0.1-0.2
						c-0.1,0-0.2-0.1-0.3-0.1h-0.2V-126.7z M118.9-127.7h0.9c0.3,0,0.4,0.1,0.6,0.2c0.1,0.1,0.2,0.2,0.2,0.4c0,0.1,0,0.3-0.1,0.4
						s-0.2,0.2-0.4,0.2c0.1,0,0.1,0.1,0.2,0.1c0.1,0,0.1,0.1,0.2,0.2c0,0,0.1,0.2,0.3,0.6h-0.6c-0.2-0.4-0.3-0.6-0.4-0.7
						c-0.1-0.1-0.1-0.1-0.2-0.1c0,0,0,0-0.1,0v0.8h-0.6V-127.7z M121.4-126.6c0-0.4-0.1-0.8-0.5-1.2c-0.3-0.3-0.7-0.4-1.2-0.4
						s-0.8,0.2-1.2,0.4c-0.3,0.3-0.4,0.7-0.4,1.2s0.2,0.8,0.4,1.2c0.3,0.3,0.7,0.5,1.2,0.5s0.8-0.2,1.2-0.5
						C121.2-125.8,121.4-126.1,121.4-126.6z M121.7-126.6c0,0.3-0.1,0.7-0.3,1s-0.4,0.5-0.7,0.7c-0.3,0.2-0.6,0.3-1,0.3
						c-0.3,0-0.7-0.1-1-0.3c-0.3-0.2-0.5-0.4-0.7-0.7c-0.2-0.3-0.3-0.6-0.3-1c0-0.3,0.1-0.7,0.3-1c0.2-0.3,0.4-0.5,0.7-0.7
						c0.3-0.2,0.6-0.3,1-0.3c0.3,0,0.7,0.1,1,0.3c0.3,0.2,0.5,0.4,0.7,0.7C121.6-127.2,121.7-126.9,121.7-126.6z"/>
				</g>
				<path id="Fill-15" class="st2" d="M29.9-110.9c0,12.6-10.2,22.6-22.8,22.6s-22.8-10.2-22.8-22.6c0-12.6,10.2-22.6,22.8-22.6
					C19.6-133.5,29.9-123.3,29.9-110.9"/>
				<path id="Stroke-16" class="st5" d="M29.9-110.9c0,12.6-10.2,22.6-22.8,22.6s-22.8-10.2-22.8-22.6c0-12.6,10.2-22.6,22.8-22.6
					C19.6-133.5,29.9-123.3,29.9-110.9z"/>
				<path id="Fill-18" class="st2" d="M78.2-110.9c0,12.6-10.2,22.6-22.8,22.6s-22.8-10.2-22.8-22.6c0-12.6,10.2-22.6,22.8-22.6
					S78.2-123.3,78.2-110.9"/>
				<path id="Stroke-19" class="st5" d="M78.2-110.9c0,12.6-10.2,22.6-22.8,22.6s-22.8-10.2-22.8-22.6c0-12.6,10.2-22.6,22.8-22.6
					S78.2-123.3,78.2-110.9z"/>
				<path id="Fill-21" class="st2" d="M127.3-110.9c0,12.6-10.2,22.6-22.8,22.6s-22.8-10.2-22.8-22.6c0-12.6,10.2-22.6,22.8-22.6
					S127.3-123.3,127.3-110.9"/>
				<path id="Stroke-22" class="st5" d="M127.3-110.9c0,12.6-10.2,22.6-22.8,22.6s-22.8-10.2-22.8-22.6c0-12.6,10.2-22.6,22.8-22.6
					S127.3-123.3,127.3-110.9z"/>
				<path id="Fill-24" class="st2" d="M176.3-110.9c0,12.6-10.2,22.6-22.8,22.6s-22.8-10.2-22.8-22.6c0-12.6,10.2-22.6,22.8-22.6
					C166.2-133.5,176.3-123.3,176.3-110.9"/>
				<path id="Stroke-25" class="st5" d="M176.3-110.9c0,12.6-10.2,22.6-22.8,22.6s-22.8-10.2-22.8-22.6c0-12.6,10.2-22.6,22.8-22.6
					C166.2-133.5,176.3-123.3,176.3-110.9z"/>
				<path id="Fill-27" class="st2" d="M223.6-110.9c0,12.6-10.2,22.6-22.8,22.6s-22.7-10.2-22.7-22.6c0-12.6,10.2-22.6,22.7-22.6
					S223.6-123.3,223.6-110.9"/>
				<path id="Stroke-28" class="st5" d="M224-110.9c0,12.6-10.2,22.6-22.8,22.6s-22.8-10.2-22.8-22.6c0-12.6,10.2-22.6,22.8-22.6
					C213.9-133.5,224-123.3,224-110.9z"/>
				<path id="Fill-30" class="st6" d="M271.6-110.9c0,12.6-10.2,22.6-22.7,22.6c-12.6,0-22.8-10.2-22.8-22.6
					c0-12.6,10.2-22.6,22.8-22.6C261.5-133.5,271.6-123.3,271.6-110.9"/>
				<path id="Fill-31" class="st7" d="M9.5-112.3c2,0,4-1.2,4-3.4c0-2.4-3.1-2.8-4.9-2.8c-0.8,0-1.6,0-2.4,0c0,2-0.1,4.3-0.1,6.2
					C7.1-112.3,8.3-112.3,9.5-112.3z M-1.7-98c-1.6-12.6-0.8-19.7,0.7-26.2c4-0.4,6.8-0.1,10.9-0.1c7.1,0.1,11,4.1,11.1,9.1
					c0.1,5.3-3.4,8.9-10.8,9c-1.5,0-2.8,0-4.3,0c0,2.7,0.1,5.5,0.1,8.2C3.3-97.9,1-98-1.7-98z"/>
				<path id="Stroke-32" class="st8" d="M9.5-112.3c2,0,4-1.2,4-3.4c0-2.4-3.1-2.8-4.9-2.8c-0.8,0-1.6,0-2.4,0c0,2-0.1,4.3-0.1,6.2
					C7.1-112.3,8.3-112.3,9.5-112.3z M-1.7-98c-1.6-12.6-0.8-19.7,0.7-26.2c4-0.4,6.8-0.1,10.9-0.1c7.1,0.1,11,4.1,11.1,9.1
					c0.1,5.3-3.4,8.9-10.8,9c-1.5,0-2.8,0-4.3,0c0,2.7,0.1,5.5,0.1,8.2C3.3-97.9,1-98-1.7-98z"/>
				<path id="Fill-33" class="st7" d="M50.2-111.7c0,3.2,1,7.4,5,7.4c3.6,0,5-3.2,5-7.4c0-3.5-1.5-7.2-5.1-7.1
					C51.5-118.8,50.2-114.9,50.2-111.7z M68.8-111.7C68.7-103.4,62.4-98,55.3-98c-7.5-0.1-13.3-5.6-13.4-13.8
					c0-7.5,5.9-13.3,13.3-13.3C63.8-125,68.7-118,68.8-111.7z"/>
				<path id="Stroke-34" class="st9" d="M50.2-111.7c0,3.2,1,7.4,5,7.4c3.6,0,5-3.2,5-7.4c0-3.5-1.5-7.2-5.1-7.1
					C51.5-118.8,50.2-114.9,50.2-111.7z M68.8-111.7C68.7-103.4,62.4-98,55.3-98c-7.5-0.1-13.3-5.6-13.4-13.8
					c0-7.5,5.9-13.3,13.3-13.3C63.8-125,68.7-118,68.8-111.7z"/>
				<path id="Fill-35" class="st7" d="M111.6-108.2C111.6-108.2,111.6-108.3,111.6-108.2c1.4-5.5,2.1-10,1.8-15.2
					c3.4,0.1,3.6,0.1,6.1,0.2c1.6,7.2-0.6,16.4-4.9,25.3c-2.7,0.1-4.6,0-7.1,0.1c-0.6-5.2-1.7-10.5-2.7-15.7c0,0,0,0-0.1,0
					c-1,5.2-2.1,10.5-2.6,15.6c-2.9,0.1-3,0.1-6.5,0c-4.3-8.9-7.1-17.6-5-25.5c3,0.1,3.1,0,5.8,0c-0.3,5.2,0.2,9.8,1.5,15.2
					c0,0,0,0,0.1,0c0.8-5.5,2.5-9.8,3.9-15.3c2.1-0.1,4.2-0.1,6.3,0C109.3-118,110.7-113.7,111.6-108.2"/>
				<path id="Stroke-36" class="st10" d="M111.6-108.2C111.6-108.2,111.6-108.3,111.6-108.2c1.4-5.5,2.1-10,1.8-15.2
					c3.4,0.1,3.6,0.1,6.1,0.2c1.6,7.2-0.6,16.4-4.9,25.3c-2.7,0.1-4.6,0-7.1,0.1c-0.6-5.2-1.7-10.5-2.7-15.7c0,0,0,0-0.1,0
					c-1,5.2-2.1,10.5-2.6,15.6c-2.9,0.1-3,0.1-6.5,0c-4.3-8.9-7.1-17.6-5-25.5c3,0.1,3.1,0,5.8,0c-0.3,5.2,0.2,9.8,1.5,15.2
					c0,0,0,0,0.1,0c0.8-5.5,2.5-9.8,3.9-15.3c2.1-0.1,4.2-0.1,6.3,0C109.3-118,110.7-113.7,111.6-108.2z"/>
				<path id="Fill-37" class="st7" d="M145-98.6c-2-8.4-1.8-16.9,0-25.2c6.7-0.9,11.6-0.8,18.5,0c0.7,1.9,1.3,3.8,1.6,5.8
					c-4.5-0.1-8.5-0.3-12.7-0.2c0,1.3,0,2.5,0,3.8c3.6,0,7.2,0,10.8,0.1c0,2,0,4,0,6c-3.6,0.1-7.2,0.1-10.8,0.1c0,1.4,0,2.7,0,4.2
					c4.4,0.1,8.7-0.1,13.1-0.3c-0.2,2.2-0.4,4-1.2,5.9C157.4-97.6,151.9-97.8,145-98.6"/>
				<path id="Stroke-38" class="st8" d="M145-98.6c-2-8.4-1.8-16.9,0-25.2c6.7-0.9,11.6-0.8,18.5,0c0.7,1.9,1.3,3.8,1.6,5.8
					c-4.5-0.1-8.5-0.3-12.7-0.2c0,1.3,0,2.5,0,3.8c3.6,0,7.2,0,10.8,0.1c0,2,0,4,0,6c-3.6,0.1-7.2,0.1-10.8,0.1c0,1.4,0,2.7,0,4.2
					c4.4,0.1,8.7-0.1,13.1-0.3c-0.2,2.2-0.4,4-1.2,5.9C157.4-97.6,151.9-97.8,145-98.6z"/>
				<path id="Fill-39" class="st7" d="M198-112.7c1.2,0,2.3,0,3.5,0c2.7,0,4.2-0.6,4.1-2.5c0-1.9-1.5-2.8-3.5-2.8
					c-1.4,0-2.6,0-4,0.1C198-116.3,198-114.5,198-112.7z M198-107.4c0,3.1,0.1,6.3,0.2,9.4c-2.8,0.1-4.8-0.1-7.2-0.5
					c-2.6-8.2-1.9-17.5,0.7-25.4c3.9-0.7,6.2-0.6,10.1-0.6c8.1,0.2,10.9,3.5,11.3,8.2c0.2,2.8-1.3,5.1-4.4,6c2.7,1,4.9,1.8,4.6,6.8
					c-0.3,3.2-1.2,4.5-0.2,4.3c0,0.2-0.1,0.5-0.1,0.7c-2.9,0.4-4.9,0.3-7.7,0.5c-0.2-0.6-0.2-1.8-0.1-4.2c0.1-3.6-0.5-5.1-4.5-5.2
					C199.8-107.3,199-107.3,198-107.4z"/>
				<path id="Stroke-40" class="st11" d="M198-112.7c1.2,0,2.3,0,3.5,0c2.7,0,4.2-0.6,4.1-2.5c0-1.9-1.5-2.8-3.5-2.8
					c-1.4,0-2.6,0-4,0.1C198-116.3,198-114.5,198-112.7z M198-107.4c0,3.1,0.1,6.3,0.2,9.4c-2.8,0.1-4.8-0.1-7.2-0.5
					c-2.6-8.2-1.9-17.5,0.7-25.4c3.9-0.7,6.2-0.6,10.1-0.6c8.1,0.2,10.9,3.5,11.3,8.2c0.2,2.8-1.3,5.1-4.4,6c2.7,1,4.9,1.8,4.6,6.8
					c-0.3,3.2-1.2,4.5-0.2,4.3c0,0.2-0.1,0.5-0.1,0.7c-2.9,0.4-4.9,0.3-7.7,0.5c-0.2-0.6-0.2-1.8-0.1-4.2c0.1-3.6-0.5-5.1-4.5-5.2
					C199.8-107.3,199-107.3,198-107.4z"/>
				<path id="Fill-41" class="st2" d="M232.6-110.2c0,0.9,0.2,2,0.3,3c0.4,0,0.9,0,1.4,0.1c0.7,0,1.3-0.2,1.2-1.5
					c-0.1-1.5-0.8-1.6-1.9-1.6C233.4-110.2,232.9-110.2,232.6-110.2z M232.9-115.9c-0.1,0.9-0.3,1.8-0.3,2.7c0.4,0,0.8,0,1.4,0
					c0.6,0,1.2-0.4,1.3-1.5c0.1-1.3-0.4-1.3-1.2-1.3C233.7-115.9,233.4-115.9,232.9-115.9z M231-103.8c-1.7-5.6-1.4-10.5,0-15.7
					c1.5-0.1,2.8-0.1,4.3-0.2c2-0.1,3.4,0.7,2.9,4.1c-0.2,1.7-0.8,2.9-1.5,3.6c1,0.5,1.6,2.1,1.8,3.9c0.3,3.8-0.8,4.9-3.1,4.7
					C233.9-103.5,232.4-103.6,231-103.8z"/>
				<path id="Fill-42" class="st2" d="M244.9-114.7c-0.5,2-0.9,3.9-1.3,5.9c0.8,0,1.7,0,2.5,0C245.6-110.9,245.2-112.8,244.9-114.7z
					 M239.2-103.5c0.1-5.3,1.9-10.7,4.1-16.1c1.3,0,2.5,0,3.8,0c1,5.5,2.8,10.9,4.1,16.4c-1.3,0-2.5,0-3.8,0
					c-0.2-0.7-0.4-1.5-0.5-2.2c-1.3,0-2.6,0-3.9,0c-0.1,0.7-0.1,1.5-0.1,2.1C241.8-103.4,240.5-103.5,239.2-103.5z"/>
				<path id="Fill-43" class="st2" d="M252.8-103.4c0.3-5.5,0.3-10.9,0-16.4c1.2,0,2.4,0,3.6,0c0.5,4.2,0.7,8.3,0.4,12.5
					c1.7,0,3.5,0,5.1-0.1c-0.2,1.3-0.4,2.5-0.7,3.8C258.3-103.4,255.5-103.4,252.8-103.4"/>
				<path id="Fill-44" class="st2" d="M262.2-103.4c1.2-5.5,1.3-10.5,0.1-15.9c0.9,0,2,0.2,2.9,0.2c1.2,4.1,1.2,7.8,0.5,11.8
					c1.4,0,2.4,0,3.8,0c-0.2,1.2-0.8,2.4-1.3,3.6C266-103.5,264.3-103.5,262.2-103.4"/>
				<path id="Stroke-28-Copy" class="st12" d="M271.6-110.9c0,12.6-10.2,22.6-22.7,22.6c-12.6,0-22.8-10.2-22.8-22.6
					c0-12.6,10.2-22.6,22.8-22.6C261.5-133.5,271.6-123.3,271.6-110.9z"/>
			</g>
		</g>
	</g>
</g>
</svg>
