<?xml version="1.0" encoding="utf-8"?>
<!-- Generator: Adobe Illustrator 21.1.0, SVG Export Plug-In . SVG Version: 6.00 Build 0)  -->
<svg version="1.1" id="Layer_1" xmlns="http://www.w3.org/2000/svg" xmlns:xlink="http://www.w3.org/1999/xlink" x="0px" y="0px"
	 viewBox="0 0 173.7 117.7" style="enable-background:new 0 0 173.7 117.7;" xml:space="preserve">
<style type="text/css">
	.st0{fill:#FFFFFF;}
	.st1{fill:#001970;}
	.st2{clip-path:url(#SVGID_2_);fill:url(#SVGID_3_);}
	.st3{fill:none;stroke:#FFFFFF;stroke-width:1.115;stroke-miterlimit:10;}
	.st4{fill:#CF0A2C;}
</style>
<path class="st0" d="M12.7,111.8c0,0,0.7,6,6.7,6h134.9c0,0,6,0,6.7-6L173.7,0H0L12.7,111.8z"/>
<g>
	<path class="st1" d="M122,64.8L122,64.8l-0.5,0l0,0.1l-2.7-0.2l0-0.5c0,0,0-0.1,0-0.2h-0.7l0.2-10l0-0.1c0-0.2,0.1-0.4,0.2-0.5
		c0.3-0.7,1.1-1.2,1.5-1.5c0,0,0-0.1,0-0.1c0-0.3,0-0.7,0-0.9c-0.4-0.4-0.6-1-0.6-1.6c0-0.7,0.4-1.3,0.9-1.7c0.1-2,0-3.1-0.2-5.1
		l0-0.4l0.3-0.2c0.4-0.2,0.8-0.5,1.1-0.8l0.6-0.4l0.3,0.3c0.1,0.1,0.2,0.2,0.2,0.6c0,0,0,0,0,0.1l0,0l0,0.2c0.3,2.3,0.3,3.4,0.2,5.5
		l0,0.2c0.6,0.4,0.9,1.1,0.9,1.9c0,0.6-0.3,1.1-0.7,1.5c0,0.3-0.1,0.7-0.1,1c0,0,0,0,0,0.1c1.2,0.9,1.4,1.8,1.4,2.5c0,0,0,0.2,0,0.3
		l0,0.2c0,0.6-0.1,1.7-0.1,2.9c0,1.5,0,3,0.1,4.1c0,0.2,0,0.4,0,0.5c0,0.1,0,0.1,0,0.2c0,0,0,0.1,0,0.1c0,0.3,0,0.4,0.1,0.4l0,0
		c0,0.1,0,0.2,0,0.3l0.1,0.7l-0.7,0l0,0.3l-0.9-0.1l0,0.2L122,64.8z"/>
	<path class="st0" d="M122.2,41.5c0,0,0.1,0.5,0.1,0.5c0.3,2.5,0.3,3.5,0.2,5.9c0.6,0.2,0.9,0.8,0.9,1.5c0,0.5-0.3,0.9-0.6,1.2
		c0,0.3-0.1,0.9-0.1,1.3c0,0.1,0,0.3,0,0.4c0,0,0,0,0,0c0.3,0.2,1.4,0.9,1.4,2.2c0,0.1,0,0.2,0,0.3c0,0.6-0.1,1.8-0.1,3.2
		c0,1.4,0,2.9,0.1,4.2c0,0.2,0,0.4,0.1,0.6c0,0.1,0,0.1,0,0.2c0,0,0,0.1,0,0.1c0,0.4,0.1,0.5,0.1,0.5c0,0.1,0,0.2,0,0.3
		c-0.2,0-0.5,0-0.7,0c0,0.1,0,0.2,0,0.3c-0.3,0-0.6-0.1-0.9-0.1c0,0.1,0,0.1,0,0.2c-0.4,0-0.8-0.1-1.1-0.1c0,0,0,0,0,0.1
		c-0.2,0-0.3,0-0.5,0c0,0,0,0,0,0.1c-0.5,0-1-0.1-1.5-0.1c0-0.1-0.1-0.7-0.1-0.7h-0.6l0.2-9.3c0-0.2,0.1-0.3,0.1-0.4
		c0.3-0.7,1.2-1.2,1.5-1.4c0-0.1,0-0.2,0-0.4c0-0.4,0-1,0-1.3c-0.4-0.3-0.6-0.8-0.6-1.3c0-0.6,0.3-1.2,0.9-1.4
		c0.1-2.2,0-3.3-0.2-5.5C121.2,42.2,121.7,41.8,122.2,41.5 M122.2,40l-0.7,0.5l-0.3,0.2c-0.4,0.3-0.8,0.5-1.1,0.8l-0.6,0.4l0.1,0.7
		c0.2,1.9,0.3,2.9,0.2,4.7c-0.5,0.5-0.9,1.2-0.9,2c0,0.7,0.2,1.4,0.6,1.9c0,0.2,0,0.3,0,0.5c-0.5,0.3-1.1,0.9-1.5,1.6
		c-0.1,0.2-0.2,0.4-0.2,0.6l0,0.1l0,0.1l-0.2,9.3l0,1.2h0.8l0.1,0.6l1,0.1l0,0l1.4,0.1l1.4,0.1l0-0.1l0.5,0l0-0.1l1.1,0.1l0-0.2
		l0.9,0.1l0-0.4l0.7,0.1l-0.2-1.4c0-0.1,0-0.2,0-0.3l0,0l0,0l0,0c0-0.1,0-0.2,0-0.4c0-0.1,0-0.1,0-0.2c0-0.1,0-0.2,0-0.2
		c0-0.1,0-0.3,0-0.5c-0.1-1.2-0.1-2.6-0.1-4.1c0-1.2,0.1-2.3,0.1-2.9l0-0.2c0-0.1,0-0.2,0-0.2c0,0,0-0.1,0-0.1
		c0-0.8-0.2-1.9-1.3-2.8c0-0.2,0-0.4,0-0.6c0.4-0.5,0.7-1.1,0.7-1.7c0-0.8-0.3-1.6-0.9-2.2c0.1-2.1,0.1-3.1-0.2-5.5l-0.1-0.4l-0.1,0
		c-0.1-0.3-0.1-0.5-0.4-0.7L122.2,40z"/>
	<path class="st1" d="M62.3,56.3c-0.8-6.4-0.8-12.9,0-19.3l0.1-0.5l0.5,0c8.4-0.2,16.9-0.2,25.3-0.2s16.9,0.1,25.3,0.2l0.5,0L114,37
		c0.8,6.4,0.8,12.8,0,19.2l-0.1,0.7l-0.7-0.2c-5.7-1.8-15-2.9-24.9-2.9c-10.1,0-19.6,1.1-25.2,3L62.4,57L62.3,56.3z"/>
	<path class="st0" d="M88.1,36.9c8.4,0,16.8,0.1,25.3,0.2c0.8,6.4,0.8,12.7,0,19.1c-5.6-1.8-14.7-2.9-25.1-2.9h0
		c-10.6,0-19.9,1.2-25.4,3c-0.8-6.4-0.8-12.8,0-19.2C71.3,36.9,79.7,36.9,88.1,36.9 M88.1,35.7c-8.4,0-16.9,0.1-25.3,0.2l-1,0
		l-0.1,1c-0.9,6.5-0.9,13,0,19.5l0.2,1.4l1.3-0.4c5.6-1.9,15-3,25.1-3c9.8,0,19.1,1.1,24.7,2.9l1.3,0.4l0.2-1.4
		c0.8-6.4,0.8-12.9,0-19.4l-0.1-1l-1,0C105,35.8,96.5,35.7,88.1,35.7"/>
</g>
<g>
	<defs>
		<polygon id="SVGID_1_" points="46.6,37.9 88,60.9 128.6,37.1 87.2,12.8 		"/>
	</defs>
	<clipPath id="SVGID_2_">
		<use xlink:href="#SVGID_1_"  style="overflow:visible;"/>
	</clipPath>
	
		<radialGradient id="SVGID_3_" cx="-370.3592" cy="332.0038" r="1" gradientTransform="matrix(24.9339 0 0 -24.9339 9322.1191 8314.959)" gradientUnits="userSpaceOnUse">
		<stop  offset="0" style="stop-color:#1B75BB"/>
		<stop  offset="0.2674" style="stop-color:#1C6AB1"/>
		<stop  offset="0.7421" style="stop-color:#1E4B96"/>
		<stop  offset="1" style="stop-color:#1F3885"/>
	</radialGradient>
	<rect x="46.6" y="12.8" class="st2" width="82" height="48.1"/>
</g>
<g>
	<polygon class="st3" points="46.6,37.9 87.2,12.8 128.6,37.1 88,60.9 	"/>
</g>
<g>
	<polygon class="st0" points="87.6,25.2 90.4,33.7 99.3,33.7 92.1,39 94.9,47.5 87.6,42.2 80.4,47.5 83.1,39 75.9,33.7 84.8,33.7 	
		"/>
	<path class="st4" d="M143.2,80.1c-2.4-1.6-5.5-1.5-5.5-3.4c0-1.2,1-1.7,2.3-1.7c0.4,0,0.9,0.1,1.3,0.1v1.7c0,0.4,0.1,0.5,0.5,0.5
		h2.4c0.4,0,0.4-0.1,0.4-0.5v-3.5c0-1.1-2.9-1.6-4.7-1.6c-3.7,0-6.1,2.5-6.1,5.6c0,2,1,3.2,2,3.9c2.3,1.5,5.6,1.5,5.6,3.5
		c0,1.2-1,1.7-2.1,1.7c-1.1,0-2-0.3-2.4-0.5v-1.7c0-0.5,0-0.6-0.5-0.6h-2.3c-0.4,0-0.5,0.1-0.5,0.5v2h-1.2c-0.2-0.7-0.3-1.3-0.3-2.9
		v-5.9c0-3.6-1.6-5.5-5.9-5.5c-2.6,0-6,0.8-6,1.6c0,0.1,0.1,0.3,0.1,0.4l0.7,2.1c0,0.1,0.2,0.3,0.3,0.3c0.4,0,2.3-1,4.2-1
		c2.2,0,2.4,1,2.4,2.5v1.1c-2.6,0-8.4,0-8.9,5c-0.2-1.7-1.1-2.8-2.3-3.7c-2.4-1.6-5.5-1.5-5.5-3.4c0-1.2,1-1.7,2.3-1.7
		c0.4,0,0.9,0.1,1.3,0.1v1.7c0,0.4,0.1,0.5,0.5,0.5h2.4c0.4,0,0.4-0.1,0.4-0.5v-3.5c0-1.1-2.9-1.6-4.7-1.6c-3.7,0-6.1,2.5-6.1,5.6
		c0,2,1,3.2,2,3.9c2.3,1.5,5.6,1.5,5.6,3.5c0,1.2-1,1.7-2.1,1.7c-1.1,0-2-0.3-2.4-0.5v-1.7c0-0.5,0-0.6-0.5-0.6h-2.3
		c-0.4,0-0.5,0.1-0.5,0.5v2h-1.9v-8.9c0-3-0.8-5.4-4.5-5.4c-2.7,0-4.2,1.5-5.2,2.4c-0.2-0.8-0.3-1.8-1.1-1.8h-4.8
		c-0.4,0-0.5,0.1-0.5,0.5V75c0,0.3,0.1,0.5,0.5,0.5h1.6c0.2,0.7,0.3,1.2,0.3,2.9V86H90c0,0-0.1,0-0.1,0c0,0-0.1,0-0.1,0h-1.5
		c-0.2-0.7-0.3-1.3-0.3-2.9v-5.9c0-3.6-1.6-5.5-5.9-5.5c-2.6,0-6,0.8-6,1.6c0,0.1,0.1,0.3,0.1,0.4l0.7,2.1c0,0.1,0.2,0.3,0.3,0.3
		c0.4,0,2.3-1,4.2-1c2.2,0,2.4,1,2.4,2.5v1.1c-2.7,0-8.9,0-8.9,5.8c0,0.5,0.1,1,0.2,1.5h-1.7L68,79.6l4.8-4.1h1.4
		c0.4,0,0.5-0.1,0.5-0.5v-2.2c0-0.4-0.1-0.5-0.5-0.5h-7.2c-0.4,0-0.5,0.1-0.5,0.5V75c0,0.4,0.1,0.5,0.5,0.5h1.4v0.1L64.2,79V65.1
		c0-0.4-0.1-0.5-0.5-0.5h-5.9c-0.4,0-0.5,0.1-0.5,0.5v2.2c0,0.4,0.1,0.5,0.5,0.5h2.1V86h-2.1c-0.4,0-0.5,0.1-0.5,0.5v2.2
		c0,0.4,0.1,0.5,0.5,0.5H66c0.4,0,0.5-0.1,0.5-0.5v-2.2c0-0.4-0.1-0.5-0.5-0.5h-1.7v-5.2h0.1l5.9,8c0.2,0.3,0.3,0.3,0.7,0.3h6.6
		c0.7,0.4,1.6,0.6,2.6,0.6c2.5,0,3.7-1.4,4.4-2.1c0.1,0.6,0.2,1.5,1,1.5h4.3c0,0,0.1,0,0.1,0c0,0,0.1,0,0.1,0h7.8
		c0.4,0,0.5-0.1,0.5-0.5v-2.2c0-0.4-0.1-0.5-0.5-0.5h-1.7v-9.3c0.4-0.4,1.5-1.4,2.9-1.4c1.7,0,1.9,1.6,1.9,2.9v10.5
		c0,0.4,0.1,0.5,0.5,0.5h8c1.3,0.4,2.8,0.6,3.8,0.6c3.3,0,5.5-2,5.8-4.7c0.2,2.9,2.1,4.7,5.1,4.7c2.5,0,3.7-1.4,4.4-2.1
		c0.1,0.6,0.2,1.5,1,1.5h6.2c1.3,0.4,2.8,0.6,3.8,0.6c3.6,0,5.9-2.4,5.9-5.5C145.5,82.3,144.6,81,143.2,80.1 M83.8,85.3
		c-0.4,0.4-1.3,1.3-2.6,1.3c-1.3,0-2.3-1-2.3-2.3c0-3,4-2.7,4.8-2.7V85.3z M127.9,85.3c-0.4,0.4-1.3,1.3-2.6,1.3
		c-1.3,0-2.3-1-2.3-2.3c0-3,4-2.7,4.8-2.7V85.3z"/>
	<path class="st4" d="M58.7,72.5c0-0.4-0.6-0.8-1.6-0.8c-2.3,0-3.6,1.9-4.2,2.7c-0.2-0.9-0.4-2.1-1.3-2.1h-4.5
		c-0.4,0-0.5,0.1-0.5,0.5V75c0,0.4,0.1,0.5,0.5,0.5h1.6c0.2,0.7,0.3,1.2,0.3,2.9v7.5h-3.7l-5.9-19.6c-0.1-0.5-0.2-0.5-0.8-0.5h-3.6
		c-0.6,0-0.6,0.1-0.8,0.5l-6,19.6h-1c-0.6,0-0.7,0.1-0.7,0.7v1.9c0,0.6,0.1,0.7,0.7,0.7h6.8c0.6,0,0.7-0.1,0.7-0.7v-1.9
		c0-0.6-0.1-0.7-0.7-0.7h-1.1l0.8-3h5.9l0.8,3h-1.1c-0.6,0-0.7,0.1-0.7,0.7v1.9c0,0.6,0.1,0.7,0.7,0.7h7.9h8.2h0.1
		c0.2,0,0.3,0,0.3-0.1c0.2-0.1,0.2-0.3,0.2-0.7v-1.9c0-0.6-0.1-0.7-0.7-0.7h-2.1v-8.6c0.4-0.5,2.3-2,3.3-2c0.8,0,1.4,0.4,1.6,0.4
		c0.1,0,0.3-0.2,0.3-0.3v-2.5C58.7,72.8,58.7,72.6,58.7,72.5 M34.4,79.9l2.3-8.7l2.2,8.7H34.4z"/>
	<path class="st1" d="M31.1,95.7c-0.2-0.1-0.5-0.2-1-0.2c-0.7,0-1.4,0.3-1.4,1.1c0,1.1,1.7,1.3,3,2.3c0.7,0.6,1.3,1.3,1.3,2.4
		c0,1.8-1.3,3.1-3.1,3.1c-1.1,0-3-0.4-3-1v-2.2c0-0.2,0-0.2,0.2-0.2h1.1c0.2,0,0.2,0,0.2,0.2v1.3c0.2,0.1,0.7,0.3,1.4,0.3
		c0.8,0,1.3-0.4,1.3-1.3c0-1.3-1.5-1.4-3-2.3c-0.8-0.5-1.3-1-1.3-2.3c0-2.1,1.5-3,3.2-3c1,0,2.6,0.4,2.6,1v2c0,0.2-0.1,0.2-0.2,0.2
		h-1.1c-0.2,0-0.2,0-0.2-0.2V95.7z"/>
	<path class="st1" d="M39,103.6c0,0,0,0.1,0,0.1c0,0.3-1.2,0.6-2,0.6c-2,0-3.2-1.2-3.2-3.7c0-2.5,1.2-4,3.4-4c0.7,0,1.8,0.2,1.8,0.6
		v2c0,0.2,0,0.2-0.2,0.2h-1c-0.2,0-0.2,0-0.2-0.2v-1.1c-0.1,0-0.2-0.1-0.3-0.1c-1,0-1.5,0.8-1.5,2.4c0,1.6,0.4,2.3,1.5,2.3
		c0.7,0,1.1-0.3,1.3-0.3c0,0,0.1,0,0.1,0.1L39,103.6z"/>
	<path class="st1" d="M47.2,103.9c0,0.2,0,0.2-0.2,0.2h-2.4c-0.2,0-0.2,0-0.2-0.2v-4.5c0-0.6-0.1-1.2-0.8-1.2
		c-0.6,0-1.1,0.4-1.3,0.6v3.9h0.7c0.2,0,0.2,0,0.2,0.2v0.9c0,0.2,0,0.2-0.2,0.2h-3.3c-0.2,0-0.2,0-0.2-0.2V103c0-0.2,0-0.2,0.2-0.2
		h0.7V95h-0.7c-0.2,0-0.2,0-0.2-0.2v-0.9c0-0.2,0-0.2,0.2-0.2h2.4c0.2,0,0.2,0,0.2,0.2v3.6c0.4-0.3,1-0.8,2-0.8c1.5,0,1.9,1,1.9,2.3
		v3.8H47c0.2,0,0.2,0,0.2,0.2V103.9z"/>
	<path class="st1" d="M51.3,104.4c-2,0-3.2-1.5-3.2-3.8c0-2.3,1.2-3.8,3.2-3.8c1.9,0,3.2,1.5,3.2,3.8
		C54.4,102.9,53.2,104.4,51.3,104.4 M52.4,100.5c0-1.4-0.2-2.4-1.2-2.4c-1,0-1.2,1-1.2,2.4c0,1.4,0.2,2.4,1.2,2.4
		C52.3,102.9,52.4,101.9,52.4,100.5"/>
	<path class="st1" d="M55.8,95h-0.7c-0.2,0-0.2,0-0.2-0.2v-0.9c0-0.2,0-0.2,0.2-0.2h2.4c0.2,0,0.2,0,0.2,0.2v7.9
		c0,0.5,0,0.9,0.4,0.9c0.3,0,0.5-0.1,0.6-0.1c0.1,0,0.1,0,0.1,0.1l0.3,1.2c0,0,0,0.1,0,0.1c0,0.2-0.8,0.4-1.5,0.4
		c-1.8,0-1.8-1.5-1.8-2.8V95z"/>
	<path class="st1" d="M65,101.5c0,0.7,0.1,0.9,0.1,1.2h0.6c0.2,0,0.2,0,0.2,0.2v0.9c0,0.2,0,0.2-0.2,0.2h-1.8
		c-0.3,0-0.4-0.4-0.4-0.6c-0.3,0.3-0.8,0.9-1.9,0.9c-1.3,0-2.2-0.9-2.2-2.2c0-2.5,2.6-2.5,3.8-2.5v-0.5c0-0.7-0.1-1.1-1-1.1
		c-0.8,0-1.6,0.4-1.8,0.4c-0.1,0-0.1-0.1-0.1-0.1L60,97.5c0-0.1,0-0.1,0-0.2c0-0.3,1.4-0.7,2.6-0.7c1.8,0,2.5,0.8,2.5,2.3V101.5z
		 M63.2,100.9c-0.4,0-2.1-0.1-2.1,1.2c0,0.6,0.4,1,1,1c0.5,0,0.9-0.4,1.1-0.6V100.9z"/>
	<path class="st1" d="M70.4,103.9c0,0.2,0,0.2-0.2,0.2h-3.4c-0.2,0-0.2,0-0.2-0.2V103c0-0.2,0-0.2,0.2-0.2h0.7v-3.2
		c0-0.7-0.1-0.9-0.1-1.2h-0.7c-0.2,0-0.2,0-0.2-0.2v-0.9c0-0.2,0-0.2,0.2-0.2h1.9c0.4,0,0.4,0.5,0.5,0.9c0.3-0.3,0.8-1.2,1.8-1.2
		c0.4,0,0.8,0.1,0.8,0.3c0,0.1,0,0.1,0,0.1l-0.5,1.2c0,0-0.1,0.1-0.1,0.1c-0.1,0-0.3-0.2-0.7-0.2c-0.5,0-0.9,0.5-1.1,0.7v3.7h0.8
		c0.2,0,0.2,0,0.2,0.2V103.9z"/>
	<path class="st1" d="M75.2,98.1c-0.2,0-0.4,0-0.6,0c-0.6,0-1,0.2-1,0.7c0,0.8,1.3,0.8,2.3,1.4c0.6,0.4,1,0.9,1,1.8
		c0,1.3-0.9,2.3-2.5,2.3c-0.9,0-2.6-0.4-2.6-0.8v-1.6c0-0.2,0-0.2,0.2-0.2h1c0.2,0,0.2,0.1,0.2,0.3v0.7c0.2,0.1,0.6,0.2,1,0.2
		c0.5,0,0.9-0.2,0.9-0.7c0-0.8-1.4-0.8-2.4-1.5c-0.4-0.3-0.9-0.8-0.9-1.6c0-1.3,1-2.4,2.6-2.4c0.8,0,2,0.2,2,0.7v1.5
		c0,0.2,0,0.2-0.2,0.2h-1c-0.2,0-0.2,0-0.2-0.2V98.1z"/>
	<path class="st1" d="M85.4,103.9c0,0.2,0,0.2-0.2,0.2h-2.4c-0.2,0-0.2,0-0.2-0.2v-4.5c0-0.6-0.1-1.2-0.8-1.2
		c-0.6,0-1.1,0.4-1.3,0.6v3.9h0.7c0.2,0,0.2,0,0.2,0.2v0.9c0,0.2,0,0.2-0.2,0.2h-3.3c-0.2,0-0.2,0-0.2-0.2V103c0-0.2,0-0.2,0.2-0.2
		h0.7V95H78c-0.2,0-0.2,0-0.2-0.2v-0.9c0-0.2,0-0.2,0.2-0.2h2.4c0.2,0,0.2,0,0.2,0.2v3.6c0.4-0.3,1-0.8,2-0.8c1.5,0,1.9,1,1.9,2.3
		v3.8h0.7c0.2,0,0.2,0,0.2,0.2V103.9z"/>
	<path class="st1" d="M90.2,103.9c0,0.2,0,0.2-0.2,0.2h-3.7c-0.2,0-0.2,0-0.2-0.2V103c0-0.2,0-0.2,0.2-0.2h0.9v-4.5h-0.9
		c-0.2,0-0.2,0-0.2-0.2v-0.9c0-0.2,0-0.2,0.2-0.2h2.6c0.2,0,0.2,0,0.2,0.2v5.6H90c0.2,0,0.2,0,0.2,0.2V103.9z M88.1,96
		c-0.7,0-1.2-0.5-1.2-1.2c0-0.7,0.5-1.2,1.2-1.2c0.7,0,1.2,0.5,1.2,1.2C89.3,95.4,88.8,96,88.1,96"/>
	<path class="st1" d="M94.5,106.9c0,0.2,0,0.2-0.2,0.2h-3.3c-0.2,0-0.2,0-0.2-0.2v-0.9c0-0.2,0-0.2,0.2-0.2h0.7v-6.2
		c0-0.8,0-1.1-0.1-1.3h-0.7c-0.2,0-0.2,0-0.2-0.2v-0.9c0-0.2,0-0.2,0.2-0.2h2c0.3,0,0.3,0.2,0.4,0.5c0.3-0.2,0.9-0.7,1.9-0.7
		c1.6,0,2.5,1.3,2.5,3.7c0,2.5-0.8,4-2.7,4c-0.8,0-1.2-0.2-1.5-0.4v1.7h0.7c0.2,0,0.2,0,0.2,0.2V106.9z M93.5,102.6
		c0.3,0.1,0.5,0.3,1.1,0.3c1,0,1.3-0.7,1.3-2.4c0-1.5-0.3-2.3-1.2-2.3c-0.6,0-1,0.4-1.2,0.6V102.6z"/>
	<path class="st1" d="M101.7,95.6H101c-0.2,0-0.3,0-0.3-0.3v-0.8c0-0.3,0.1-0.3,0.3-0.3h3.5c0.2,0,0.3,0,0.3,0.3v0.8
		c0,0.3-0.1,0.3-0.3,0.3h-0.8v7h2.1l0.3-1.1c0-0.2,0.1-0.3,0.2-0.3c0.1,0,0.1,0,0.2,0l1,0.2c0.2,0,0.3,0.1,0.3,0.2
		c0,0.1,0,0.1,0,0.2l-0.5,2.1c0,0.2-0.1,0.3-0.3,0.3H101c-0.2,0-0.3,0-0.3-0.3V103c0-0.3,0.1-0.3,0.3-0.3h0.7V95.6z"/>
	<path class="st1" d="M111.4,104.4c-2,0-3.2-1.5-3.2-3.8c0-2.3,1.2-3.8,3.2-3.8c1.9,0,3.2,1.5,3.2,3.8
		C114.6,102.9,113.4,104.4,111.4,104.4 M112.6,100.5c0-1.4-0.2-2.4-1.2-2.4c-1,0-1.2,1-1.2,2.4c0,1.4,0.2,2.4,1.2,2.4
		C112.5,102.9,112.6,101.9,112.6,100.5"/>
	<path class="st1" d="M118.1,101.8c0,0.5,0,0.9,0.5,0.9c0.6,0,0.9-0.3,1.1-0.3c0.1,0,0.1,0,0.1,0.1l0.3,1.2c0,0,0,0.1,0,0.1
		c0,0.3-1.1,0.5-2.1,0.5c-1.9,0-1.9-1.5-1.9-2.8v-3.3h-1c-0.2,0-0.2,0-0.2-0.2v-0.9c0-0.2,0-0.2,0.2-0.2h1v-1.8c0-0.2,0-0.2,0.2-0.3
		l1.3-0.2c0,0,0.1,0,0.2,0c0.1,0,0.1,0.1,0.1,0.2v2h1.7c0.1,0,0.3,0,0.3,0.1c0,0.1,0,0.1,0,0.1l-0.2,0.9c0,0.2-0.1,0.2-0.3,0.2h-1.4
		V101.8z"/>
	<path class="st1" d="M123.3,101.8c0,0.5,0,0.9,0.5,0.9c0.6,0,0.9-0.3,1.1-0.3c0.1,0,0.1,0,0.1,0.1l0.3,1.2c0,0,0,0.1,0,0.1
		c0,0.3-1.1,0.5-2.1,0.5c-1.9,0-1.9-1.5-1.9-2.8v-3.3h-1c-0.2,0-0.2,0-0.2-0.2v-0.9c0-0.2,0-0.2,0.2-0.2h1v-1.8c0-0.2,0-0.2,0.2-0.3
		l1.3-0.2c0,0,0.1,0,0.2,0c0.1,0,0.1,0.1,0.1,0.2v2h1.7c0.1,0,0.3,0,0.3,0.1c0,0.1,0,0.1,0,0.1l-0.2,0.9c0,0.2-0.1,0.2-0.3,0.2h-1.4
		V101.8z"/>
	<path class="st1" d="M127.8,101c0,0.8,0.2,1.8,1.6,1.8c1,0,1.6-0.5,1.8-0.5c0.1,0,0.1,0.1,0.2,0.1l0.4,0.9c0,0,0,0.1,0,0.2
		c0,0.4-1.5,0.9-2.6,0.9c-1.9,0-3.3-1.1-3.3-3.8c0-2.3,1.2-3.9,3.2-3.9c2.5,0,2.9,2.2,2.9,4c0,0.3-0.1,0.4-0.3,0.4H127.8z
		 M130.1,99.7c0-0.6,0-1.6-1-1.6c-1.1,0-1.2,1.2-1.2,1.6H130.1z"/>
	<path class="st1" d="M136.8,103.9c0,0.2,0,0.2-0.2,0.2h-3.4c-0.2,0-0.2,0-0.2-0.2V103c0-0.2,0-0.2,0.2-0.2h0.7v-3.2
		c0-0.7-0.1-0.9-0.1-1.2h-0.7c-0.2,0-0.2,0-0.2-0.2v-0.9c0-0.2,0-0.2,0.2-0.2h1.9c0.4,0,0.4,0.5,0.5,0.9c0.3-0.3,0.8-1.2,1.8-1.2
		c0.4,0,0.8,0.1,0.8,0.3c0,0.1,0,0.1,0,0.1l-0.5,1.2c0,0-0.1,0.1-0.1,0.1c-0.1,0-0.3-0.2-0.7-0.2c-0.5,0-0.9,0.5-1.1,0.7v3.7h0.8
		c0.2,0,0.2,0,0.2,0.2V103.9z"/>
	<path class="st1" d="M143.6,102.6c-0.2,0.9-0.6,2.4-1,3.2c-0.4,1.1-1.3,1.4-2.1,1.4c-0.8,0-2-0.4-2-0.7c0-0.1,0-0.1,0.1-0.2
		l0.4-0.9c0-0.1,0.1-0.1,0.1-0.1c0.1,0,0.6,0.4,1.2,0.4c0.8,0,1-0.5,1.2-1.1l0.1-0.5H141c-0.2,0-0.2-0.1-0.3-0.2l-1.9-5.6h-0.5
		c-0.2,0-0.2,0-0.2-0.2v-0.9c0-0.2,0-0.2,0.2-0.2h1.8c0.2,0,0.2,0.1,0.3,0.2l0.9,3.5c0.2,0.7,0.5,2,0.6,2.5h0
		c0.1-0.6,0.4-2.3,0.5-2.5l0.8-3.5c0-0.2,0.1-0.2,0.3-0.2h1.8c0.2,0,0.2,0,0.2,0.2v0.9c0,0.2,0,0.2-0.2,0.2h-0.5L143.6,102.6z"/>
</g>
</svg>
