<svg width="131" height="53" viewBox="0 0 131 53" xmlns="http://www.w3.org/2000/svg"><g fill="none" fill-rule="evenodd"><g fill="#003B49"><path d="M48.561 19.889v17.073h-4.404v-2.014c-1.23 1.537-3.073 2.493-5.567 2.493-4.54 0-8.298-3.927-8.298-9.015 0-5.088 3.758-9.015 8.298-9.015 2.493 0 4.336.956 5.567 2.493v-2.015h4.405zm-4.404 8.537c0-2.868-2.015-4.815-4.746-4.815-2.699 0-4.714 1.947-4.714 4.815 0 2.868 2.015 4.815 4.713 4.815 2.732 0 4.748-1.947 4.748-4.815zM75.863 26.445v10.517h-4.405v-10.21c0-2.014-1.024-3.244-2.869-3.244-1.946 0-3.175 1.298-3.175 3.86v9.594H61.01v-10.21c0-2.014-1.025-3.244-2.868-3.244-1.879 0-3.21 1.298-3.21 3.86v9.594h-4.406V19.888h4.406V21.7c.956-1.435 2.561-2.288 4.746-2.288 2.118 0 3.69.887 4.644 2.458 1.06-1.537 2.766-2.458 5.088-2.458 3.893 0 6.454 2.765 6.454 7.034M86.899 33.445c1.708 0 3.073-.717 3.824-1.708l3.552 2.05c-1.605 2.322-4.166 3.653-7.445 3.653-5.736 0-9.356-3.927-9.356-9.015 0-5.088 3.653-9.015 9.015-9.015 5.053 0 8.639 3.996 8.639 9.015 0 .65-.068 1.23-.171 1.81H82.084c.614 2.254 2.493 3.21 4.815 3.21zm3.824-6.624c-.546-2.459-2.39-3.449-4.234-3.449-2.357 0-3.961 1.262-4.474 3.45h8.708z"/></g><path fill="#003B49" d="M96.802 36.962h4.404V15.874h-4.404zM102.926 28.426c0-5.088 3.995-9.015 9.015-9.015 5.02 0 9.049 3.927 9.049 9.015 0 5.088-4.03 9.015-9.05 9.015-5.02 0-9.014-3.927-9.014-9.015m13.659 0c0-2.766-2.015-4.712-4.644-4.712-2.595 0-4.611 1.946-4.611 4.712s2.016 4.712 4.61 4.712c2.63 0 4.645-1.946 4.645-4.712M130.819 24.869v-4.234h-3.95v-4.761h-4.404v15.352c0 4.61 2.173 6.42 8.354 5.737v-3.995c-2.527.137-3.95.102-3.95-1.742v-6.357h3.95zM20.262 32.96a6.165 6.165 0 0 1-6.165-6.165 6.165 6.165 0 0 1 6.165-6.166 6.154 6.154 0 0 1 5.256 2.957l4.066-2.465c-1.887-3.194-5.353-5.278-9.342-5.278-6.024 0-10.817 4.747-10.817 10.898 0 6.15 4.793 10.898 10.817 10.898 3.957 0 7.401-2.049 9.297-5.201l-4.02-2.436a6.153 6.153 0 0 1-5.257 2.958"/><path d="M19.897 10.05c2.565 0 4.99.599 7.144 1.66l4.33-7.647S25.281-.462 15.237 1.488C5.905 3.3-.362 11.118.016 20.308c.257 6.243 3.087 9.987 4.742 11.658a16.153 16.153 0 0 1-1.047-5.73c0-8.94 7.247-16.186 16.186-16.186M81.28 42.162a.663.663 0 0 0-.664-.662.663.663 0 1 0 0 1.324.663.663 0 0 0 .664-.662M16.645 47.002c0-1.85 1.504-3.288 3.382-3.288 1.877 0 3.396 1.439 3.396 3.288 0 1.85-1.519 3.288-3.396 3.288-1.878 0-3.382-1.438-3.382-3.288m5.658 0c0-1.264-.989-2.224-2.276-2.224-1.273 0-2.264.96-2.264 2.224 0 1.264.991 2.227 2.264 2.227 1.287 0 2.276-.963 2.276-2.227M24.196 41.707l1.121-.005v2.176h1.708v1.049h-1.708v3.387c0 .951.565.888 1.708.84v.975c-1.928.25-2.829-.252-2.829-1.815v-6.607zM27.98 41.707l1.119-.005v2.176h1.71v1.049H29.1v3.387c0 .951.567.888 1.71.84v.975c-1.93.25-2.829-.252-2.829-1.815v-6.607zM34.772 49.265c.887 0 1.531-.4 1.852-.912l.952.525c-.566.852-1.544 1.412-2.83 1.412-2.07 0-3.447-1.412-3.447-3.287 0-1.85 1.363-3.288 3.37-3.288 1.943 0 3.202 1.549 3.202 3.3 0 .162-.012.324-.038.489h-5.389c.218 1.123 1.132 1.76 2.328 1.76m-2.328-2.711h4.295c-.19-1.24-1.104-1.813-2.07-1.813-1.209 0-2.045.725-2.225 1.813M41.834 43.765v1.137c-.966-.037-2.007.438-2.007 1.914v3.313H38.71v-6.251h1.117v1.049c.413-.876 1.197-1.162 2.007-1.162M48.868 43.878l-2.624 6.638c-.54 1.399-1.543 2.199-2.855 2.11v-1.01c.862.062 1.402-.45 1.736-1.275l.116-.238-2.802-6.225h1.194l2.186 4.9 1.854-4.9h1.195zM16.69 49.027v1.101h-4.938v-8.444h1.162v7.343zM59.075 47.002c0-1.85 1.506-3.288 3.382-3.288 1.878 0 3.396 1.439 3.396 3.288 0 1.85-1.518 3.288-3.396 3.288-1.876 0-3.382-1.438-3.382-3.288m5.658 0c0-1.264-.989-2.224-2.276-2.224-1.273 0-2.264.96-2.264 2.224 0 1.264.991 2.226 2.264 2.226 1.287 0 2.276-.962 2.276-2.226M66.792 50.129h1.119V41.66h-1.119z" fill="#05C3DE"/><g fill="#05C3DE"><path d="M74.791 43.878v6.25h-1.118v-.9c-.478.737-1.184 1.062-2.085 1.062-1.503 0-2.493-.974-2.493-2.576v-3.836h1.117v3.774c0 1.026.605 1.602 1.596 1.602 1.028 0 1.864-.59 1.864-2.064v-3.312h1.12zM76.096 41.707l1.12-.005v2.176h1.71v1.049h-1.71v3.387c0 .951.565.888 1.71.84v.975c-1.929.25-2.83-.252-2.83-1.815v-6.607z"/></g><path fill="#05C3DE" d="M80.057 50.129h1.118v-6.25h-1.118z"/><g fill="#05C3DE"><path d="M82.115 47.002c0-1.85 1.506-3.288 3.383-3.288 1.878 0 3.396 1.439 3.396 3.289s-1.518 3.287-3.396 3.287c-1.877 0-3.383-1.438-3.383-3.288m5.66 0c0-1.264-.991-2.225-2.277-2.225-1.273 0-2.263.961-2.263 2.225 0 1.263.99 2.226 2.263 2.226 1.286 0 2.277-.963 2.277-2.226M95.467 46.29v3.838h-1.119v-3.776c0-1.024-.605-1.6-1.594-1.6-1.029 0-1.865.588-1.865 2.064v3.312h-1.12v-6.25h1.12v.899c.473-.738 1.181-1.063 2.083-1.063 1.504 0 2.495.976 2.495 2.576M101.203 48.414c0 1.163-1.029 1.876-2.405 1.876-1.286 0-2.186-.6-2.56-1.464l.966-.537c.207.601.798.975 1.594.975.681 0 1.275-.237 1.275-.85 0-1.337-3.602-.575-3.602-2.837 0-1.1.977-1.863 2.276-1.863 1.054 0 1.903.487 2.315 1.301l-.939.512c-.244-.563-.809-.8-1.376-.8-.58 0-1.145.274-1.145.84 0 1.335 3.601.548 3.601 2.847M52.313 48.275l.964-.555c.3.927 1.024 1.529 2.253 1.529 1.193 0 1.783-.542 1.783-1.3 0-.868-.747-1.156-1.99-1.542-1.346-.433-2.647-.854-2.647-2.42 0-1.518 1.24-2.385 2.648-2.385 1.386 0 2.386.784 2.856 1.843l-.94.542c-.301-.723-.891-1.301-1.916-1.301-.902 0-1.53.482-1.53 1.253 0 .782.59 1.072 1.772 1.444 1.47.482 2.855.916 2.855 2.542 0 1.482-1.191 2.42-2.916 2.42-1.601 0-2.745-.806-3.192-2.07"/></g></g></svg>