<?xml version="1.0" encoding="utf-8"?>
<!-- Generator: Adobe Illustrator 23.0.1, SVG Export Plug-In . SVG Version: 6.00 Build 0)  -->
<svg version="1.1" id="Layer_1" xmlns="http://www.w3.org/2000/svg" xmlns:xlink="http://www.w3.org/1999/xlink" x="0px" y="0px"
	 viewBox="0 0 320 110" style="enable-background:new 0 0 320 110;" xml:space="preserve">
<style type="text/css">
	.st0{fill-rule:evenodd;clip-rule:evenodd;fill:#FFFFFF;}
	.st1{fill-rule:evenodd;clip-rule:evenodd;fill:#EE2528;}
	.st2{fill:#FFFFFF;}
	.st3{fill-rule:evenodd;clip-rule:evenodd;fill:#34347B;}
	.st4{fill:#EE2528;}
	.st5{fill-rule:evenodd;clip-rule:evenodd;fill:#33347B;}
	.st6{fill:#33347B;}
	.st7{fill-rule:evenodd;clip-rule:evenodd;fill:url(#SVGID_1_);fill-opacity:0.37;}
	.st8{fill-rule:evenodd;clip-rule:evenodd;fill:#F8971D;}
	.st9{fill:#FFD200;}
	.st10{fill-rule:evenodd;clip-rule:evenodd;fill:#FFD200;}
	.st11{fill-rule:evenodd;clip-rule:evenodd;fill:url(#SVGID_2_);}
	.st12{fill-rule:evenodd;clip-rule:evenodd;fill:url(#SVGID_3_);}
	.st13{fill-rule:evenodd;clip-rule:evenodd;fill:url(#SVGID_4_);}
	.st14{fill-rule:evenodd;clip-rule:evenodd;fill:url(#SVGID_5_);}
	.st15{fill-rule:evenodd;clip-rule:evenodd;fill:#27318B;}
	.st16{fill:#27318B;}
	.st17{fill-rule:evenodd;clip-rule:evenodd;}
	.st18{fill-rule:evenodd;clip-rule:evenodd;fill:#EF3E33;}
	.st19{fill-rule:evenodd;clip-rule:evenodd;fill:#D3272F;}
</style>
<title>MegaMillions-logo</title>
<desc>Created with Sketch.</desc>
<g id="Toolkit">
	<g id="GAME-LOGOS" transform="translate(0.000000, -298.000000)">
		<g transform="translate(30.000000, 398.000000)">
			<g id="megamillions" transform="translate(33.000000, 32.000000)">
				<ellipse id="Oval" class="st0" cx="187.9" cy="-47" rx="1.1" ry="1.1"/>
				<ellipse class="st0" cx="200.6" cy="-106" rx="1.6" ry="1.6"/>
				<polygon id="Path" class="st1" points="122.6,-116.8 145.8,-114.4 145.8,-103.5 135.8,-103.5 135.8,-99.1 144.9,-99.1 
					144.9,-88.6 136.2,-88.6 136.2,-83.4 146,-83.4 146,-72.9 123.1,-71.8 				"/>
				<path id="Shape" class="st2" d="M122.6-116.8l23.2,2.4v10.9h-10v4.4h9.1v10.5h-8.7v5.1h9.8v10.5l-22.9,1.1L122.6-116.8z
					 M121.4-118.2v1.3l0.5,45.1v1.2l1.2-0.1l22.9-1.1l1.1-0.1v-12.9h-9.8v-2.7h8.7v-12.9h-9.1v-2h10v-13.1l-1.1-0.1l-23.2-2.4
					L121.4-118.2z"/>
				<path class="st1" d="M164-95.8h14.4c0,0,0.5,10.1-4,16.4c-2.9,4-8.3,6.1-13.2,5.5s-9.2-3.8-11.1-8.5c-1.4-3.3-3.3-10-0.8-19.1
					c0.8-2.9,3.9-7.9,8.5-9.9c2.3-1,8.3-1.8,12.9,0.9c3.8,2.2,6.6,7.9,6.6,7.9l-8.5,4.3c0,0-1.8-3.6-4.9-2.9c0,0-4.4,0.8-5.1,7.7
					c0,0-0.9,7.5,3.9,9.4c2.1,0.8,5.5-0.5,5.5-3.7h-4L164-95.8z"/>
				<path class="st2" d="M163.1-112.4c2.4,0,5.1,0.5,7.5,1.8c3.8,2.2,6.6,7.9,6.6,7.9l-8.5,4.3c0,0-1.5-3-4.1-3
					c-0.3,0-0.5,0-0.8,0.1c0,0-4.4,0.8-5.1,7.7c0,0-0.9,7.5,3.9,9.4c0.4,0.2,0.9,0.2,1.3,0.2c1.9,0,4.2-1.3,4.2-4h-4l-0.2-7.9h14.4
					c0,0,0.5,10.1-4,16.4c-2.6,3.5-7.1,5.6-11.5,5.6c-5.6,0-10.6-3.4-12.8-8.6c-1.4-3.3-3.3-10-0.8-19.1c0.8-2.9,3.9-7.9,8.5-9.9
					C158.9-111.9,160.9-112.4,163.1-112.4L163.1-112.4z M163.1-113.6c-2.2,0-4.5,0.4-5.9,1c-5.2,2.3-8.3,7.8-9.1,10.7
					c-2.4,8.8-0.9,15.7,0.9,19.9c2.1,5,6.7,8.5,12,9.2c0.6,0.1,1.2,0.1,1.8,0.1c2.4,0,4.8-0.6,7-1.6s4.1-2.6,5.5-4.5
					c2-2.8,3.3-6.5,3.9-11.1c0.3-2,0.4-4,0.3-6.1l-0.1-1.1h-10.8l0.5-0.2l8.5-4.3l0.7-0.3v-0.7c0-0.3,0-0.4-0.6-1.5
					c-0.3-0.5-0.8-1.4-1.4-2.3c-1.6-2.4-3.4-4.1-5.1-5.1C168.4-113.2,165.3-113.6,163.1-113.6L163.1-113.6z M163.9-85
					c-0.3,0-0.6,0-0.9-0.1c-3.9-1.5-3.2-8.1-3.2-8.1l0,0c0.2-2.5,1.1-4.4,2.4-5.6c0.5-0.5,1.1-0.8,1.7-1l0,0l0,0
					c0.2,0,0.4-0.1,0.5-0.1c1.8,0,3,2.3,3,2.3l0.4,0.8h-5.3v1.2l0.2,7.9v1.2h3.7C166.1-85.4,164.8-85,163.9-85L163.9-85z"/>
				<polygon class="st3" points="175.5,-69.2 175.5,-51.7 179.7,-52.1 179.7,-61.4 185.1,-52.9 189.1,-53.4 189.1,-70 185.3,-69.7 
					185.3,-60.4 180.4,-69.5 				"/>
				<path class="st2" d="M189.1-70v16.6l-4,0.5l-5.4-8.5v9.3l-4.2,0.4v-17.5l4.9-0.3l4.9,9.1v-9.4L189.1-70z M189.8-70.7l-0.7,0.1
					l-3.8,0.3h-0.6v7.3l-3.6-6.7l-0.2-0.4h-0.4l-4.9,0.3H175v18.9l0.8-0.1l4.2-0.4l0.6-0.1V-59l4.2,6.5l0.2,0.4l0.4-0.1l4-0.5
					l0.6-0.1v-17.9H189.8z"/>
				<polygon class="st1" points="64.4,-122.9 84,-120.9 91.7,-95.5 97.7,-119.4 113.6,-117.7 120.9,-71.6 106.9,-70.9 104.6,-97 
					97.5,-70.4 87.9,-69.9 78.2,-97.7 77.2,-69.3 58.7,-68.4 				"/>
				<path class="st2" d="M64.4-122.9l19.6,2l7.6,25.5l6-24l15.9,1.7l7.4,46.1l-14,0.7L104.6-97l-7.1,26.6L87.9-70l-9.6-27.8l-1,28.4
					l-18.5,0.9L64.4-122.9L64.4-122.9z M63.4-124.2l-0.1,1.2l-5.8,54.5l-0.1,1.4l1.4-0.1l18.5-0.9l1.1-0.1v-1.1l0.8-22.1l7.5,21.8
					l0.3,0.8h0.9l9.6-0.4h0.9l0.2-0.8l5.4-20l1.7,19.3l0.1,1.1l1.2-0.1l14-0.7l1.3-0.1l-0.2-1.3l-7.4-46.1l-0.1-0.9l-0.9-0.1
					l-15.9-1.7l-1-0.1l-0.3,1L91.6-100l-6.4-21.2L85-122l-0.8-0.1l-19.6-2L63.4-124.2L63.4-124.2z"/>
				<path class="st4" d="M186.2-110.1l8.8,1l6.5,33.3l-8.1,0.3v-4.2h-6.6l-0.6,4.7l-7.9,0.4L186.2-110.1z M192-87.8l-1.4-11.1
					l-2.1,11.1H192z"/>
				<path class="st2" d="M186.2-110.1l8.8,1l6.5,33.3l-8.1,0.3v-4.2h-6.6l-0.6,4.7l-7.9,0.4L186.2-110.1z M188.5-87.8l3.5-0.1
					L190.6-99L188.5-87.8z M185.3-111.4l-0.2,1l-8,35.4l-0.3,1.5l1.6-0.1l7.9-0.4h1l0.1-1l0.5-3.6h4.4v4.3h1.2l8.1-0.3l1.4-0.1
					l-0.3-1.4l-6.5-33.3l-0.2-0.9l-0.9-0.1l-8.8-1H185.3L185.3-111.4z M190-89l0.4-2.2l0.3,2.2H190L190-89z"/>
				<path class="st3" d="M201.4-70.2l-1.5,3.6l-1.3-0.6c-0.8-0.3-2.2-0.6-2.7,0.3c-0.4,0.7-0.4,1.7,0.4,2.1c1.6,0.7,3.6,0.2,4.5,2.3
					c0.5,1.1,0.4,2.6,0.1,3.7c-0.1,0.5-0.4,1.1-0.7,1.5c-1.1,1.7-2.9,2.8-5,2.9c0,0-2.4,0.1-4.3-0.7l1.8-4.5c0.8,0.8,2,1.2,3.2,1
					c0.7-0.1,1.1-0.9,0.9-1.5c-0.3-1-0.9-1.4-1.7-1.6c-1.1-0.2-2.7-0.9-3.1-1.9c-0.6-1.5-0.6-2.5,0-3.9c0.3-0.7,0.6-1.3,1.2-1.9
					c0.5-0.5,1.1-0.9,1.7-1.1C195.1-70.5,197.6-71.6,201.4-70.2"/>
				<path class="st2" d="M194.9-53.7c-0.8,0-2.6-0.1-4.1-0.7l-0.6-0.3l2.5-6.1l0.7,0.8c0.7,0.6,1.6,0.9,2.6,0.7
					c0.1,0,0.2-0.1,0.3-0.2s0.1-0.3,0.1-0.4c-0.2-0.6-0.5-0.9-1.2-1.1c-0.7-0.2-3-0.8-3.5-2.3c-0.7-1.7-0.7-3,0-4.4
					c0.3-0.7,0.6-1.4,1.3-2.1c0.6-0.6,1.3-1,1.9-1.3l0,0c0.8-0.4,3.3-1,6.8,0.2l0.7,0.2l-2.1,4.9l-0.7-0.3l-1.2-0.6
					c-0.6-0.3-1.6-0.4-1.8,0c-0.1,0.3-0.2,0.6-0.1,0.9c0,0.1,0.1,0.2,0.2,0.3c0.5,0.2,1,0.3,1.5,0.4c1.2,0.2,2.6,0.5,3.4,2.2
					c0.6,1.4,0.4,3.1,0.1,4.2c-0.2,0.6-0.4,1.2-0.7,1.7c-1.2,1.9-3.3,3.1-5.5,3.3C195.3-53.7,195.2-53.7,194.9-53.7z M191.9-55.5
					c1.1,0.3,2.2,0.4,3.3,0.4c1.8-0.1,3.4-1.1,4.4-2.6c0.3-0.4,0.4-0.9,0.6-1.3c0.4-1.3,0.4-2.5,0-3.3c-0.4-1-1.2-1.2-2.4-1.4
					c-0.6-0.1-1.2-0.3-1.8-0.5c-0.5-0.2-0.8-0.6-1-1.1c-0.2-0.7-0.1-1.4,0.2-2c0.5-0.9,1.8-1.4,3.6-0.6l0,0l0.6,0.3l0.9-2.2
					c-3-0.9-4.9-0.1-5.1-0.1l0,0c-0.6,0.2-1.1,0.6-1.5,1c-0.5,0.5-0.7,1-1.1,1.7c-0.5,1.1-0.5,2,0,3.4c0.3,0.7,1.5,1.3,2.6,1.5
					c1.1,0.3,1.8,0.9,2.2,2c0.2,0.5,0.1,1.1-0.2,1.6c-0.3,0.4-0.7,0.8-1.3,0.8c-1,0.2-2.1,0-3-0.6L191.9-55.5z"/>
				<path class="st3" d="M201.4-70.2l-1.5,3.6l-1.3-0.6c-0.8-0.3-2.2-0.6-2.7,0.3c-0.4,0.7-0.4,1.7,0.4,2.1c1.6,0.7,3.6,0.2,4.5,2.3
					c0.5,1.1,0.4,2.6,0.1,3.7c-0.1,0.5-0.4,1.1-0.7,1.5c-1.1,1.7-2.9,2.8-5,2.9c0,0-2.4,0.1-4.3-0.7l1.8-4.5c0.8,0.8,2,1.2,3.2,1
					c0.7-0.1,1.1-0.9,0.9-1.5c-0.3-1-0.9-1.4-1.7-1.6c-1.1-0.2-2.7-0.9-3.1-1.9c-0.6-1.5-0.6-2.5,0-3.9c0.3-0.7,0.6-1.3,1.2-1.9
					c0.5-0.5,1.1-0.9,1.7-1.1C195.1-70.5,197.6-71.6,201.4-70.2"/>
				<polygon class="st5" points="58,-62.5 70.1,-63.2 75.3,-50.7 79,-63.7 90.1,-64.4 95.3,-42 85.7,-41 83.6,-53.8 79.6,-40.2 
					72.5,-39.3 66.3,-51.6 65.6,-38.5 54.7,-37.2 				"/>
				<path class="st2" d="M90.1-64.4L95.2-42l-9.6,1l-2.1-12.7l-4,13.6l-7,0.8l-6.2-12.2l-0.8,13l-10.8,1.3L58-62.5l12-0.7l5.3,12.5
					l3.7-13L90.1-64.4L90.1-64.4z M90.9-65.5L90-65.4l-11.2,0.7h-0.7L78-64l-2.9,10.2L71-63.6l-0.3-0.7H70l-12,0.7l-0.8,0.1
					l-0.1,0.8l-3.4,25.4L53.5-36l1.3-0.2l10.8-1.3l0.9-0.1v-0.9l0.5-9.2l4.6,8.8l0.3,0.6l0.7-0.1l7.1-0.8l0.7-0.1l0.2-0.6l2.7-9.2
					l1.3,8.3l0.2,1l1-0.1l9.6-1l1.1-0.2l-0.3-1.1l-5.1-22.4L90.9-65.5L90.9-65.5z"/>
				<polygon class="st5" points="98.9,-64.8 107.5,-65.3 107.5,-43.7 98.9,-42.5 				"/>
				<path class="st2" d="M107.5-65.3v21.7l-8.6,1.1v-22.3L107.5-65.3z M108.5-66.4l-1.1,0.1l-8.6,0.5l-1,0.1v24.4l1.2-0.1l8.6-1.1
					l0.9-0.1V-66.4z"/>
				<polygon class="st5" points="145.5,-67.6 152.6,-67.9 152.6,-48.9 145.4,-48.2 				"/>
				<path class="st2" d="M152.6-67.9v19l-7.2,0.8l0.1-19.4L152.6-67.9z M153.7-69h-1.1l-7.1,0.3h-1v1l-0.1,19.4v1.1l1.1-0.1l7.2-0.8
					l0.9-0.1L153.7-69L153.7-69z"/>
				<polygon class="st5" points="112.6,-65.6 120.7,-66.1 120.7,-51.7 127.5,-52.2 127.5,-45.9 112.5,-44.2 				"/>
				<path class="st2" d="M120.7-66.1v14.4l6.8-0.5v6.3l-15,1.7v-21.5L120.7-66.1z M121.7-67.2l-1.1,0.1l-8.1,0.4l-1,0.1v1v21.5v1.1
					l1.1-0.1l14.9-1.7l1-0.1v-8.3l-1.1,0.1l-5.7,0.4C121.7-52.8,121.7-67.2,121.7-67.2z"/>
				<polygon class="st5" points="130.1,-66.6 137.9,-67 137.9,-53.7 144.5,-54.1 144.5,-48 130,-46.3 				"/>
				<path class="st2" d="M137.9-67v13.3l6.6-0.4v6.1L130-46.3v-20.2L137.9-67L137.9-67z M138.9-68.1l-1.1,0.1l-7.9,0.5l-1,0.1v1
					v20.2v1.2l1.1-0.1l14.5-1.7l0.9-0.1V-55l-1.1,0.1l-5.5,0.4L138.9-68.1L138.9-68.1z"/>
				<path class="st6" d="M172.9-57.4c-1.4,5.1-6.4,8.3-11.1,7c-4.7-1.3-7.4-6.5-6.1-11.6c1.4-5.1,6.4-8.3,11.1-7
					C171.5-67.7,174.3-62.5,172.9-57.4z M163.9-62.2l-5.4,1l4.2,2.4l-0.8,5.6l4-3.9l3.8,2.4l-1.5-4.8l2.9-2.9l-3.5,0.1l-2.2-4.5
					L163.9-62.2z"/>
				<path class="st2" d="M164.7-69.3c0.7,0,1.5,0.1,2.2,0.3c4.7,1.3,7.5,6.5,6.1,11.6c-1.2,4.4-4.9,7.3-8.9,7.3
					c-0.7,0-1.5-0.1-2.2-0.3c-4.7-1.3-7.4-6.5-6.1-11.6C157-66.4,160.7-69.3,164.7-69.3z M161.8-53.2l4-3.9l3.8,2.4l-1.5-4.8
					l2.9-2.9l-3.5,0.1l-2.2-4.5l-1.5,4.6l-5.4,1l4.2,2.4L161.8-53.2z M164.7-70c-4.4,0-8.4,3.2-9.6,7.8c-1.5,5.5,1.4,11.1,6.5,12.5
					c0.8,0.2,1.5,0.3,2.3,0.3c4.4,0,8.4-3.2,9.6-7.8c0.8-2.7,0.4-5.6-1-8.1c-1.2-2.1-3.2-3.7-5.6-4.4C166.3-69.9,165.5-70,164.7-70z
					 M160.4-60.9l3.6-0.7l0.4-0.1l0.1-0.3l0.9-3l1.4,3l0.2,0.4h0.4h1.7l-1.7,1.7l-0.3,0.3l0.1,0.4l1,3l-2.2-1.4l-0.5-0.3l-0.4,0.4
					l-2.6,2.5l0.5-3.6l0.1-0.5l-0.4-0.2L160.4-60.9z"/>
				<path class="st0" d="M20.5-97.7c0,13.5,11,24.5,24.5,24.5s24.5-10.9,24.5-24.5s-11-24.5-24.5-24.5
					C31.5-122.2,20.5-111.2,20.5-97.7"/>
				
					<radialGradient id="SVGID_1_" cx="-417.1589" cy="-30.5342" r="0.5305" gradientTransform="matrix(36.8111 32.115 -34.3189 39.5214 14351.9736 14503.7031)" gradientUnits="userSpaceOnUse">
					<stop  offset="0" style="stop-color:#FFFFFF"/>
					<stop  offset="0.6167" style="stop-color:#E2E2E2"/>
					<stop  offset="0.8831" style="stop-color:#999999"/>
					<stop  offset="1" style="stop-color:#777777"/>
				</radialGradient>
				<path class="st7" d="M20.5-97.7c0,13.5,11,24.5,24.5,24.5s24.5-10.9,24.5-24.5s-11-24.5-24.5-24.5
					C31.5-122.2,20.5-111.2,20.5-97.7"/>
				<path class="st8" d="M57.2-95.5c-0.1-1.1-0.4-2.2-1-3.1c-0.5-0.9-1.3-1.7-2.2-2.2c-0.3-0.2-0.6-0.3-0.9-0.4c0-0.1,0-0.2,0-0.4
					c0-0.3-0.1-0.7-0.4-0.9c-0.4-0.4-1-0.6-1.9-0.6c-2.1,0-5.6,0.8-8,1.4c-4.6,1.2-8.2,2.8-9.1,4c-0.4,0.5-0.4,1.3,0.1,1.8
					c0.1,0.1,0.1,0.1,0.2,0.2c-1.3,1.6-1.7,3.8-1.1,5.8c0.4,1.3,1.2,2.5,2.2,3.4c1.9,1.8,4.8,2.5,6,2.7c0.7,1.4,2.3,2.2,4.6,2.2
					c0.9,0,1.9-0.1,2.8-0.4c3.4-1,5.1-2.8,5.9-4.1c0.6-0.9,0.8-1.9,0.7-3c0.3-0.4,0.9-1.2,1.5-2.8C57.1-92.9,57.3-94.2,57.2-95.5z"
					/>
				<path class="st9" d="M35.3-90c0.5,0,1.1,0.2,1.5,0.4c0-0.1,0.1-0.1,0.1-0.2c0.1-0.1,0.3-0.2,0.5-0.2c0.3,0,0.5,0,0.8-0.1
					c0-0.1,8.8-2.4,8.8-2.4l5.6-2.7c0.2-0.1,0.3-0.2,0.5-0.3c0.5-0.3,1-0.6,1.6-0.7v-0.1c0-0.2,0.1-0.4,0.3-0.5
					c0.3-0.2,0.6-0.4,0.9-0.7c-0.1-0.3-0.2-0.6-0.4-0.8c-0.5-1-1.5-1.8-2.5-2.1c-0.1,0.3-0.3,0.6-0.5,0.9c-0.6,0.5-1.3,0.9-2.1,1.1
					c-0.2,0-0.3,0.1-0.5,0.1c0,0,1.3-0.7,1.9-1.3c0.2-0.3,0.4-0.6,0.5-0.9l0.1-0.2c0.1-0.2,0.1-0.5,0.1-0.8c0-0.4-0.5-0.7-1.5-0.7
					c-1.8,0-5.2,0.7-7.8,1.4c-5.1,1.4-8.1,2.9-8.7,3.7c-0.2,0.2-0.2,0.6,0,0.8c0.2,0.2,0.3,0.3,0.5,0.4c0.5,0.3,1,0.6,1.5,0.7
					c1,0.3,3.3-0.1,3.3-0.1s-1.2,1-3.4,0.7c-0.6,0-1.2-0.2-1.7-0.6c-0.5,0.6-0.8,1.2-1,1.9c-0.3,1.2-0.2,2.4,0.2,3.5
					C34.3-89.9,34.8-90,35.3-90z M34.9-96.9c-0.1-0.5,1.2-1.1,1.4-1.2c0.2-0.1-0.7,0.6-0.6,0.8c0,0.2,1.8,0,2.7-0.1
					c0.6-0.1,1.2-0.2,1.8-0.4c0,0,0.7-0.4,3.8-1.4c3.1-0.9,4.4-0.9,4.4-0.9c0.6-0.2,1.1-0.5,1.7-0.8c0.7-0.4,1-0.6,1-0.7
					c0-0.2-0.9-0.4-0.9-0.4c0.5,0,2,0,1.7,0.5c-0.3,0.4-2.2,1.7-7.7,3.3C38.7-96.6,35-96.4,34.9-96.9z"/>
				<path class="st10" d="M38.2-87.2c0,0.6-0.2,1.1-0.5,1.6c0.2,0.1,0.5,0.2,0.7,0.3v-2.4c-0.1,0-0.2,0-0.3,0
					C38.2-87.5,38.2-87.4,38.2-87.2z"/>
				<path class="st10" d="M53.7-87.6c-0.4,1.1-1.2,2.1-2.2,2.8c-2.4,1.6-4.6,1.2-4.6,1.2c1.2-0.2,2.3-0.6,3.3-1.2
					c1.2-0.6,1.8-1.2,2.1-1.7c-2.7,2-4.7,1.9-4.7,1.9s2.6-0.5,5.1-3c0.5-0.5,1-1,1.4-1.6l0,0c0.5-0.6,0.9-1.3,1.3-2.1
					c-0.2,0.2-0.5,0.3-0.7,0.5c-0.2,0.1-0.4,0.1-0.5,0.1c-0.2-0.1-0.5-0.2-0.7-0.2l0,0l0.1,0.5c0,0.3-0.1,0.5-0.3,0.7
					c-0.5,0.3-1.1,0.7-1.6,1c-0.2,0.1-0.4,0.1-0.5,0c0,0.2-0.2,0.4-0.3,0.4c-1.2,0.6-2.3,1.2-3.6,1.6c-0.2,0.1-0.4,0.1-0.6-0.1
					c-0.2-0.1-0.3-0.3-0.3-0.5v-2.3c-0.2,0.1-0.4,0.2-0.6,0.2v2.8c0,0.3-0.2,0.5-0.4,0.6c-0.5,0.2-1,0.3-1.5,0.5
					c-0.2,0.1-0.4,0-0.6-0.1C43.1-85.6,43-85.8,43-86v-2.4l-0.7,0.2h-0.1l-1,0.2v2.7c0,0.3-0.2,0.6-0.5,0.6c-0.2,0-0.4,0.1-0.5,0.1
					c0.5,0.1,1,0.3,1.6,0.3c0.5,0.1,1.2,0.2,1.2,0.2c0.1,0.1,0.3,0.2,0.5,0.3c0.5,0.3,1.4,0.3,1.4,0.3c-0.9,0.1-1.8,0.1-2.6,0.1
					c1.2,1.4,4.1,1.4,6,0.8c2.8-0.8,4.5-2.3,5.5-3.7c0.4-0.5,0.6-1.2,0.6-1.8L53.7-87.6z"/>
				<path class="st8" d="M33.6-106.3L33.6-106.3c-0.2-0.1-0.4-0.3-0.4-0.5c-0.2-0.5-0.1-1.1,0.2-1.8c0.5-1,1.3-1.6,1.8-1.3l0,0
					c0.1,0,0.1,0.1,0.2,0.1l0.4,0.3c0.2,0.1,0.3,0.3,0.4,0.5c0.2,0.4,0.1,1-0.2,1.7c-0.4,0.9-1.2,1.5-1.7,1.2l-0.5-0.1
					C33.7-106.2,33.6-106.2,33.6-106.3z"/>
				<path class="st10" d="M33.7-106.7L33.7-106.7C33.8-106.7,33.8-106.7,33.7-106.7c0.3,0.1,0.9-0.3,1.2-1.1
					c0.2-0.5,0.3-1.1,0.2-1.4c0-0.1-0.1-0.1-0.1-0.2c0,0,0,0-0.1,0c-0.3-0.1-0.8,0.3-1.2,1c-0.2,0.5-0.3,1.1-0.2,1.4
					C33.6-106.9,33.7-106.8,33.7-106.7z"/>
				<path class="st10" d="M35.7-108.8c0-0.1-0.1-0.2-0.2-0.2l0,0v-0.1c0.1,0.4,0,0.9-0.3,1.4c-0.2,0.4-0.5,0.8-0.9,1.1h0.1l0,0
					c0.3,0.1,0.8-0.3,1.1-1C35.8-108,35.8-108.5,35.7-108.8z"/>
				<path class="st8" d="M55.9-103.6l0.2-0.3l0.1-0.1c0.1-0.2,0.2-0.6-0.5-1.2c-0.2-0.1-0.4-0.3-0.6-0.4c-0.3-0.2-0.7-0.3-1.1-0.3
					c-0.6-0.1-0.8,0.2-0.9,0.3c0,0.1-0.1,0.1-0.1,0.2l-0.1,0.3c-0.1,0.2-0.1,0.6,0.5,1.1c0.2,0.1,0.4,0.3,0.6,0.4
					c0.3,0.2,0.7,0.3,1,0.3C55.6-103.2,55.8-103.4,55.9-103.6z"/>
				<path class="st10" d="M55.5-103.9L55.5-103.9h-0.2c-0.3-0.1-0.7-0.2-1-0.3c-0.2-0.1-0.4-0.2-0.6-0.4c-0.1-0.1-0.2-0.2-0.3-0.2
					c0,0-0.1-0.1-0.1-0.2v0.1c-0.1,0.1,0.1,0.3,0.4,0.6c0.2,0.1,0.3,0.2,0.5,0.3c0.3,0.1,0.6,0.2,0.9,0.3
					C55.3-103.7,55.5-103.8,55.5-103.9L55.5-103.9z"/>
				<path class="st10" d="M53.5-105.4c0,0.1,0.1,0.3,0.2,0.4c0.2,0.2,0.5,0.4,0.8,0.6s0.6,0.3,0.9,0.3c0.1,0,0.3,0,0.4-0.1l0,0
					c0.1-0.1-0.1-0.3-0.4-0.6c-0.2-0.1-0.4-0.2-0.5-0.3c-0.3-0.2-0.6-0.3-0.9-0.3C53.6-105.5,53.5-105.5,53.5-105.4L53.5-105.4z"/>
				<path class="st8" d="M28.7-95.3c-0.2,0-0.4-0.1-0.5-0.3L27.8-96c-0.1,0-0.1-0.1-0.2-0.2c-0.1-0.2-0.2-0.6,0.3-1.3
					c0.4-0.4,0.8-0.8,1.3-1.1c0.9-0.5,1.8-0.8,2.3-0.7c0.3,0,0.6,0.3,0.6,0.6l0.2,0.5c0.1,0.2,0.2,0.6-0.3,1.2
					c-0.4,0.4-0.8,0.8-1.2,1.1C30-95.4,29.2-95.2,28.7-95.3z"/>
				<path class="st10" d="M28.1-96.4L28.1-96.4L28.1-96.4c0.2,0.2,0.4,0.2,0.8,0.1c0.5-0.1,1-0.3,1.5-0.6c1-0.6,1.6-1.3,1.5-1.7l0,0
					c0,0,0,0,0-0.1c0-0.1-0.1-0.1-0.2-0.1c-0.4-0.1-1.2,0.2-2,0.6c-0.5,0.3-0.9,0.6-1.2,1C28.1-96.8,28-96.6,28.1-96.4L28.1-96.4z"
					/>
				<path class="st10" d="M32-97.9L32-97.9l-0.1-0.2c-0.2,0.4-0.8,1-1.5,1.5c-0.5,0.3-1,0.5-1.5,0.6c-0.1,0-0.3,0-0.4,0l0.2,0.2
					c0,0.1,0.1,0.1,0.2,0.1c0.4,0.1,1.1-0.1,1.8-0.6c0.4-0.2,0.8-0.6,1.1-0.9C32-97.5,32.1-97.8,32-97.9z"/>
				<path class="st8" d="M59-102.2c-0.4,0.2-0.7,0.2-0.9,0.1l-0.6-0.2c-0.1,0-0.1,0-0.2-0.1c-0.7-0.4-0.3-1.8,0.4-2.8
					c0.3-0.6,0.8-1.1,1.4-1.5c0.5-0.3,0.8-0.2,1-0.1c0.1,0,0.1,0.1,0.2,0.2l0.4,0.4c0.2,0.1,0.4,0.4,0.3,1.2c-0.1,0.5-0.3,1-0.6,1.5
					C59.9-102.9,59.4-102.4,59-102.2z"/>
				<path class="st10" d="M57.6-102.8L57.6-102.8L57.6-102.8c0.4,0.1,1.1-0.4,1.7-1.4s0.8-1.9,0.6-2.1l0,0c0,0,0,0-0.1,0
					c-0.1-0.1-0.3,0-0.5,0.1c-0.4,0.2-0.9,0.7-1.2,1.3C57.4-103.9,57.3-102.9,57.6-102.8z"/>
				<path class="st10" d="M60.3-105.9l-0.2-0.2c0,0.5-0.2,1.2-0.7,2c-0.4,0.7-0.9,1.2-1.3,1.4c0,0-0.1,0-0.1,0.1l0.2,0.1
					c0.1,0.1,0.3,0,0.5-0.1c0.4-0.2,0.8-0.7,1.2-1.2c0.3-0.4,0.5-0.9,0.6-1.3C60.5-105.5,60.5-105.8,60.3-105.9L60.3-105.9z"/>
				<path class="st8" d="M31.5-101.6c-0.6-0.5-0.8-1.1-0.6-1.6l0.2-0.6c0-0.1,0-0.1,0.1-0.2c0.4-0.6,1.4-0.7,2.4-0.1
					c0.2,0.1,0.4,0.2,0.5,0.4c0.6,0.6,0.9,1.2,0.6,1.7c0,0.1-0.1,0.1-0.1,0.2l-0.4,0.5c-0.4,0.6-1.3,0.6-2.3,0.1
					C31.9-101.4,31.7-101.5,31.5-101.6z"/>
				<path class="st10" d="M31.7-103.8C31.6-103.8,31.6-103.8,31.7-103.8L31.7-103.8c-0.2,0.5,0.3,1.1,1,1.5c0.3,0.2,0.7,0.3,1.1,0.3
					c0.3,0,0.5-0.1,0.6-0.2l0,0c0,0,0,0,0-0.1c0.2-0.3-0.1-0.7-0.5-1.1c-0.1-0.1-0.3-0.2-0.5-0.3C32.7-104.1,31.9-104.2,31.7-103.8z
					"/>
				<path class="st10" d="M33.9-101.6l0.1-0.2c-0.1,0-0.2,0-0.3,0c-0.4,0-0.9-0.2-1.2-0.4c-0.2-0.1-0.4-0.2-0.5-0.4
					c-0.2-0.2-0.4-0.5-0.6-0.8l-0.1,0.2c-0.1,0.3,0.1,0.7,0.5,1c0.1,0.1,0.3,0.2,0.4,0.3C33-101.3,33.7-101.3,33.9-101.6z"/>
				
					<radialGradient id="SVGID_2_" cx="-405.8516" cy="-12.2688" r="2.7634" gradientTransform="matrix(15.3276 0.6063 -0.6049 15.3633 6269.3887 312.5204)" gradientUnits="userSpaceOnUse">
					<stop  offset="0.56" style="stop-color:#F8971D"/>
					<stop  offset="0.59" style="stop-color:#EE8722"/>
					<stop  offset="0.64" style="stop-color:#E26E26"/>
					<stop  offset="0.69" style="stop-color:#D85729"/>
					<stop  offset="0.75" style="stop-color:#D1432A"/>
					<stop  offset="0.82" style="stop-color:#CD332B"/>
					<stop  offset="0.89" style="stop-color:#CA282B"/>
					<stop  offset="1" style="stop-color:#C9252C"/>
				</radialGradient>
				<path class="st11" d="M60.5-112.4c-2.7,4.8-26.3-3.1-24.9,15.3c0.8,0.1,2.2-0.1,4-0.4C38.3-113.4,58.7-107,60.5-112.4z"/>
				
					<radialGradient id="SVGID_3_" cx="-405.3015" cy="-11.6875" r="2.8447" gradientTransform="matrix(14.8889 0.589 -0.5876 14.9237 6083.7139 291.0716)" gradientUnits="userSpaceOnUse">
					<stop  offset="0.56" style="stop-color:#FFD200"/>
					<stop  offset="0.57" style="stop-color:#FFCF00"/>
					<stop  offset="0.63" style="stop-color:#FEBB12"/>
					<stop  offset="0.71" style="stop-color:#FBAB19"/>
					<stop  offset="0.78" style="stop-color:#F9A01B"/>
					<stop  offset="0.87" style="stop-color:#F8991D"/>
					<stop  offset="1" style="stop-color:#F8971D"/>
				</radialGradient>
				<path class="st12" d="M60.5-112.4c-1.8,5.4-22.2-1-20.9,14.9c1.1-0.2,2.5-0.5,3.9-0.9C42.1-112.1,59.5-106.3,60.5-112.4z"/>
				
					<radialGradient id="SVGID_4_" cx="-404.0006" cy="-10.3449" r="3.0326" gradientTransform="matrix(13.9658 0.5525 -0.5512 13.9984 5692.5923 245.9564)" gradientUnits="userSpaceOnUse">
					<stop  offset="0.56" style="stop-color:#BFD730"/>
					<stop  offset="0.57" style="stop-color:#B5D334"/>
					<stop  offset="0.62" style="stop-color:#8DC63F"/>
					<stop  offset="0.67" style="stop-color:#67BC45"/>
					<stop  offset="0.72" style="stop-color:#3BB54A"/>
					<stop  offset="0.77" style="stop-color:#00AF4C"/>
					<stop  offset="0.83" style="stop-color:#00AC4E"/>
					<stop  offset="0.9" style="stop-color:#00AA4F"/>
					<stop  offset="1" style="stop-color:#00A94F"/>
				</radialGradient>
				<path class="st13" d="M60.5-112.4c-1,6-18.4,0.3-17,14c0.2-0.1,0.4-0.1,0.6-0.2c1.3-0.4,2.4-0.7,3.3-1
					C46.1-110.7,60.4-105.7,60.5-112.4z"/>
				
					<radialGradient id="SVGID_5_" cx="-401.9758" cy="-8.252" r="3.326" gradientTransform="matrix(12.735 0.5038 -0.5026 12.7648 5171.1147 185.7926)" gradientUnits="userSpaceOnUse">
					<stop  offset="0.56" style="stop-color:#00AEEF"/>
					<stop  offset="0.59" style="stop-color:#0095D8"/>
					<stop  offset="0.63" style="stop-color:#007EC3"/>
					<stop  offset="0.67" style="stop-color:#006AB2"/>
					<stop  offset="0.71" style="stop-color:#005AA5"/>
					<stop  offset="0.76" style="stop-color:#004D9B"/>
					<stop  offset="0.8" style="stop-color:#164194"/>
					<stop  offset="0.85" style="stop-color:#21388F"/>
					<stop  offset="0.91" style="stop-color:#26338C"/>
					<stop  offset="1" style="stop-color:#27318B"/>
				</radialGradient>
				<path class="st14" d="M60.5-112.4c-0.1,6.6-14.4,1.6-13.1,12.7c2-0.7,3.1-1.3,3.8-1.7C49.8-110.2,61.2-105.1,60.5-112.4z"/>
				<path class="st15" d="M60.5-100.4c0.1-0.3,0-0.6-0.3-0.8c-0.3-0.2-0.6-0.1-0.9,0.1c-0.5,0.4-1,0.9-1.5,1.3
					c-0.1,0.1-0.1,0.2-0.2,0.3c-0.2,0.5-0.4,0.9-0.5,1.4c-0.1,0-0.1-0.1-0.2-0.2c-0.2-0.2-0.6-0.2-0.9,0c-0.5,0.4-1,0.8-1.5,1.1
					c-0.2,0.1-0.3,0.3-0.3,0.5v0.1c-0.6,0.1-1.1,0.3-1.6,0.7c-0.8,0.5-1.5,0.9-2.3,1.4c-0.2,0.1-0.3,0.3-0.4,0.5l0,0
					c-0.2-0.1-0.4-0.1-0.6,0c-1.1,0.6-2.2,1.1-3.3,1.5c-0.1,0-0.1,0.1-0.2,0.1c-0.1,0-0.2,0-0.2,0.1c-1.4,0.5-2.9,1-4.4,1.3h-0.1
					c-1.4,0.3-2.8,0.5-4.3,0.6c-0.2,0-0.4,0.1-0.5,0.3L36.2-90c-0.5-0.3-1-0.4-1.5-0.4c-1.6,0-2.9,1.1-2.9,2.7c0,0.1,0,0.2,0,0.3
					h-0.1v-2.7c0-0.3-0.2-0.6-0.5-0.7c-0.5-0.1-1-0.2-1.4-0.3c-0.2-0.1-0.5,0-0.6,0.2c-0.2,0.2-0.3,0.4-0.2,0.6l0.1,0.9v3.3
					c0,0.3,0.2,0.6,0.5,0.7c1,0.3,2,0.4,3,0.6c0.2,0,0.4,0,0.6-0.2l0,0c0.4,0.3,0.9,0.5,1.5,0.5h0.1c0.7,0,1.5-0.3,2-0.8
					c0.5-0.6,0.9-1.3,0.9-2.1c0-0.2,0-0.3,0-0.5c0.1,0,0.1,0,0.2,0v2.5c0,0.2,0.1,0.4,0.2,0.5c0.1,0.1,0.3,0.2,0.5,0.2
					c0.5-0.1,1-0.1,1.5-0.2c0.3-0.1,0.6-0.3,0.6-0.7v-2.7c0.3-0.1,0.6-0.1,0.9-0.2h0.1c0.2-0.1,0.4-0.1,0.6-0.1v2.4
					c0,0.2,0.1,0.4,0.3,0.5c0.2,0.1,0.4,0.2,0.6,0.1c0.5-0.1,1-0.3,1.5-0.5c0.3-0.1,0.5-0.4,0.5-0.7v-2.8c0.2-0.1,0.4-0.1,0.5-0.2
					v2.3c0,0.2,0.1,0.4,0.3,0.6c0.2,0.1,0.4,0.1,0.6,0.1c1.2-0.5,2.4-1,3.6-1.6c0.2-0.1,0.3-0.2,0.3-0.4c0.2,0.1,0.4,0,0.5-0.1
					c0.5-0.3,1.1-0.6,1.6-1c0.2-0.1,0.4-0.4,0.3-0.7L52.8-91c0.2,0.1,0.5,0.2,0.7,0.2c0.2,0.1,0.4,0,0.6-0.1
					c0.6-0.4,1.2-0.9,1.8-1.3c0.2-0.2,0.3-0.4,0.3-0.6c0.2,0.1,0.5,0,0.7-0.1c0.5-0.4,1-0.9,1.5-1.3c0.2-0.2,0.3-0.4,0.2-0.6
					l-0.1-0.7v-0.6C59.4-97.7,60-99.1,60.5-100.4z"/>
				<path class="st2" d="M31.4-86.9c0.5,0.1,1,0.2,1.4,0.2c0.1,0.3,0.1,0.7,0.2,1c-1-0.1-2-0.3-2.9-0.5v-3.3
					C30-89.8,30-90.1,30-90.4c0.5,0.1,1,0.2,1.5,0.3C31.4-89.1,31.4-88,31.4-86.9z M37.2-87.7c0,1.2-1,2.3-2.2,2.3
					c-1.2,0-2.2-1.1-2.2-2.4c0-1.2,1-2.1,2.2-2.1C36.2-89.8,37.2-88.9,37.2-87.7z M35-88.8c-0.4,0-0.7,0.5-0.7,1.1s0.3,1.2,0.7,1.2
					c0.4,0,0.7-0.5,0.7-1.1C35.7-88.3,35.4-88.8,35-88.8z M46-91.8c-1.4,0.6-2.9,1-4.4,1.3c0,0,0,0-0.1,0c-1.4,0.3-2.9,0.5-4.4,0.6
					l0.2,1c0.5,0,1-0.1,1.5-0.1c0,1.1,0,2.2,0,3.3c0.5-0.1,1-0.1,1.5-0.2v-3.3c0.5-0.1,1-0.2,1.4-0.3c0,0,0,0,0.1,0
					c0.5-0.1,1-0.2,1.4-0.4c0,1.1,0,2.2,0,3.3c0.5-0.1,1-0.3,1.5-0.5v-3.3c0.5-0.2,1-0.3,1.5-0.5C46.1-91.2,46-91.5,46-91.8L46-91.8
					z M46.6-91.1c-0.1-0.3-0.1-0.6-0.2-0.8c1.1-0.4,2.3-1,3.3-1.5c0.1,0.3,0.1,0.6,0.2,0.9c-0.6,0.3-1.2,0.6-1.9,0.9v0.6
					c0.6-0.3,1.2-0.5,1.7-0.9c0.1,0.3,0.1,0.6,0.2,0.9c-0.6,0.3-1.3,0.6-1.9,0.9v0.7c0.6-0.3,1.2-0.6,1.8-0.9
					c0.1,0.3,0.1,0.6,0.2,0.9c-1.1,0.6-2.3,1.1-3.5,1.6C46.6-88.9,46.6-90,46.6-91.1z M55.9-93.1c-0.6,0.4-1.2,0.9-1.8,1.3
					c-0.3-0.1-0.7-0.2-1-0.3l-0.7,0.4v0.1c0.1,0.3,0.1,0.5,0.1,0.8c-0.5,0.3-1.1,0.7-1.6,1v-3.3l-0.2-0.8c0.8-0.4,1.6-0.9,2.3-1.4
					c1.2-0.8,2.2-0.8,2.2,0.1c0,0.5-0.3,1.2-0.8,1.8C55-93.3,55.4-93.2,55.9-93.1z M53.8-94.3c0-0.3-0.4-0.4-0.9,0
					c-0.1,0.1-0.5,0.3-0.5,0.3v1.3c0.2-0.1,0.4-0.2,0.5-0.3C53.5-93.3,53.8-93.9,53.8-94.3L53.8-94.3z M58.2-96.5v0.7
					c0.1,0.3,0.1,0.5,0.1,0.8c-0.5,0.4-1,0.9-1.5,1.3v-1.6c-0.6-0.4-1.2-0.9-1.8-1.3c0.5-0.4,1-0.8,1.6-1.2c0.3,0.2,0.6,0.5,0.9,0.7
					c0.3-0.7,0.6-1.5,0.9-2.2c0.5-0.4,1-0.9,1.5-1.4C59.3-99.3,58.7-97.9,58.2-96.5z"/>
				<path class="st16" d="M39.6-91.8V-94c0.2,0,0.4-0.1,0.5-0.1v2.2C40-91.8,39.8-91.8,39.6-91.8z M41.2-92
					c-0.5,0.1-0.5-0.2-0.5-0.5v-1.1c0-0.2,0-0.4,0-0.6c0.2-0.1,0.4-0.1,0.5-0.2c0,0.1,0,0.3,0,0.4v1.2c0,0.3,0,0.4,0.1,0.3
					c0,0,0,0,0.1,0c0,0.1,0.1,0.2,0.1,0.3C41.5-92.1,41.3-92.1,41.2-92L41.2-92z M42.4-92.3c-0.5,0.1-0.5-0.1-0.5-0.4v-1.1
					c0-0.2,0-0.4,0-0.6c0.2-0.1,0.4-0.1,0.5-0.2c0,0.1,0,0.3,0,0.4v1.2c0,0.3,0,0.4,0.1,0.3c0,0,0,0,0.1,0c0,0.1,0.1,0.2,0.1,0.3
					C42.6-92.4,42.5-92.3,42.4-92.3L42.4-92.3z M43.4-94.3c-0.1,0-0.2,0-0.2,0c-0.1,0-0.1-0.1-0.1-0.2c0-0.2,0.1-0.3,0.3-0.4
					c0.1,0,0.2,0,0.2,0c0.1,0,0.1,0.1,0.1,0.2C43.7-94.5,43.5-94.4,43.4-94.3L43.4-94.3z M43.1-92.5v-1.6l0.6-0.2v1.6L43.1-92.5z
					 M45.1-93.1v-1c0-0.2-0.1-0.2-0.1-0.1c-0.1,0-0.1,0.1-0.2,0.2v1.1c-0.2,0.1-0.4,0.1-0.6,0.2v-1c0-0.2,0-0.4-0.1-0.5l0.5-0.3v0.1
					c0.1-0.1,0.3-0.3,0.5-0.3c0.4-0.1,0.5,0.1,0.5,0.3v1.2L45.1-93.1z M46.9-93.8c-0.5,0.2-0.8,0-0.8-0.5s0.3-1,0.8-1.2
					c0.4-0.2,0.8-0.1,0.8,0.5C47.7-94.5,47.4-94,46.9-93.8L46.9-93.8z M46.9-95.1c-0.1,0.1-0.2,0.2-0.2,0.6c0,0.3,0,0.4,0.2,0.4
					s0.2-0.2,0.2-0.6C47.1-95.1,47-95.1,46.9-95.1L46.9-95.1z M48.4-96.2c-0.2,0.1-0.3,0-0.3-0.2s0.1-0.4,0.3-0.5
					c0.2-0.1,0.3,0,0.3,0.2S48.6-96.3,48.4-96.2L48.4-96.2z M48.1-94.4V-96c0.2-0.1,0.4-0.2,0.6-0.3v1.6
					C48.5-94.5,48.3-94.5,48.1-94.4L48.1-94.4z M49.8-95.2c-0.2,0.1-0.5,0.2-0.7,0.2c0.1-0.2,0.1-0.3,0.2-0.5c0.2,0,0.4,0,0.5-0.1
					c0.1,0,0.2-0.1,0.2-0.2s-0.1-0.1-0.2,0c-0.1,0-0.1,0.1-0.2,0.1c-0.3,0.1-0.4,0-0.4-0.2c0-0.3,0.3-0.7,0.7-0.9
					c0.2-0.1,0.4-0.2,0.7-0.2c-0.1,0.2-0.1,0.3-0.2,0.4c-0.1,0-0.3,0-0.4,0.1c-0.1,0-0.1,0.1-0.1,0.2c0,0.1,0,0.1,0.2,0
					c0.1,0,0.1-0.1,0.2-0.1c0.3-0.1,0.4,0,0.4,0.2C50.6-95.8,50.3-95.5,49.8-95.2L49.8-95.2z"/>
				<polyline class="st17" points="121.3,-39.2 117.7,-38.7 114.6,-31.1 111.6,-37.8 107.7,-37.3 105.1,-23 109.1,-23.8 
					110.3,-31.9 110.4,-31.9 113.8,-24.7 115.3,-25 118.7,-33.3 118.8,-33.3 119.8,-25.9 123.4,-26.6 121.3,-39.2 				"/>
				<path class="st2" d="M104.1-22l3-16l5-0.7l2.5,5.6l2.6-6.3l4.8-0.7l2.3,14.1l-5.1,1l-0.7-5.5l-2.5,6.1l-2.5,0.5l-2.6-5.5l-1,6.2
					L104.1-22z M108.4-36.6L106-24l2.4-0.5l1.3-8.2h1.2l3.4,7.1l0.5-0.1l3.5-8.3h1.2l1,7.2l2.1-0.4l-1.9-11.1l-2.4,0.3l-3.6,8.9
					l-3.5-7.9L108.4-36.6z"/>
				<polyline class="st17" points="132.2,-40.7 124.9,-39.7 124.9,-26.9 132.2,-28.3 132.2,-31 128.3,-30.3 128.3,-32.5 132,-33.1 
					132,-35.9 128.3,-35.3 128.3,-37.4 132.2,-38 132.2,-40.7 				"/>
				<path class="st2" d="M124.1-25.9v-14.5l8.9-1.2v4.3l-3.9,0.6v0.6l3.7-0.6v4.3l-3.7,0.6v0.6l3.9-0.7v4.3L124.1-25.9z M125.6-39
					v11.2l5.9-1.1v-1.2l-4,0.7v-3.8l3.7-0.6V-35l-3.7,0.6v-3.7l3.9-0.6v-1.2L125.6-39z"/>
				<path class="st17" d="M140.9-42.2h-0.3c-0.1,0-0.2,0-0.3,0c-0.1,0-0.2,0-0.3,0s-0.2,0-0.3,0c-0.9,0.1-1.8,0.4-2.6,0.8
					c-0.8,0.4-1.5,1-2.1,1.6c-0.6,0.7-1.1,1.5-1.4,2.3c-0.3,0.9-0.5,1.8-0.5,2.8c0,0.8,0.1,1.6,0.4,2.3c0.2,0.7,0.6,1.2,1.1,1.7
					c0.5,0.5,1,0.8,1.7,1c0.7,0.2,1.4,0.3,2.1,0.3c0.1,0,0.2,0,0.3,0s0.2,0,0.3,0s0.2,0,0.3,0l0.3-0.1c0.5-0.1,1-0.2,1.4-0.4
					c0.4-0.2,0.9-0.4,1.3-0.7c0.4-0.3,0.8-0.6,1.1-0.9c0.4-0.4,0.7-0.8,0.9-1.2c0.2-0.4,0.4-0.8,0.6-1.2c0.1-0.4,0.3-0.8,0.3-1.2
					c0.1-0.4,0.1-0.8,0.2-1.2c0-0.4,0.1-0.8,0.1-1.2l-5.9,1v2.4l2.5-0.4c0,0.3-0.1,0.6-0.2,0.9c-0.1,0.3-0.3,0.5-0.5,0.7
					c-0.2,0.2-0.5,0.4-0.7,0.5c-0.3,0.1-0.6,0.2-0.9,0.3h-0.1h-0.1h-0.1h-0.1c-0.4,0-0.8-0.1-1.1-0.2c-0.3-0.2-0.6-0.4-0.8-0.7
					c-0.2-0.3-0.4-0.7-0.5-1.1c-0.1-0.4-0.2-0.8-0.2-1.2c0-0.5,0.1-1,0.2-1.4c0.1-0.5,0.3-0.9,0.6-1.3c0.3-0.4,0.6-0.8,1-1
					c0.4-0.3,0.9-0.5,1.3-0.5h0.1h0.1h0.2c0.2,0,0.5,0,0.7,0.1c0.2,0.1,0.4,0.2,0.6,0.3s0.3,0.3,0.5,0.5c0.1,0.2,0.3,0.4,0.3,0.6
					l2.8-1.6c-0.2-0.4-0.4-0.8-0.7-1.1s-0.6-0.6-0.9-0.8c-0.3-0.2-0.7-0.4-1.1-0.5C141.8-42.1,141.4-42.2,140.9-42.2"/>
				<path class="st2" d="M138.3-28.4c-0.7,0-1.4-0.1-2.1-0.3c-0.7-0.3-1.4-0.7-2-1.2c-0.6-0.6-1-1.2-1.3-2c-0.3-0.8-0.5-1.7-0.5-2.6
					c0-1,0.2-2.1,0.5-3.1l0,0c0.3-0.9,0.9-1.8,1.5-2.5c0.6-0.7,1.4-1.4,2.3-1.8c0.9-0.5,1.9-0.8,2.8-0.9c0.1,0,0.1,0,0.2,0h0.1h0.1
					h0.1h0.1h0.1c0.1,0,0.2,0,0.3,0h0.3c0.5,0,1,0.1,1.5,0.2h0.1c0.5,0.1,0.9,0.3,1.4,0.6c0.4,0.3,0.8,0.6,1.1,1
					c0.3,0.4,0.6,0.8,0.8,1.3l0.3,0.6l-2.4,1.4l2.8-0.4v0.9c0,0.4,0,0.9-0.1,1.3c0,0.4-0.1,0.9-0.2,1.3c-0.1,0.4-0.2,0.9-0.4,1.3
					c-0.2,0.5-0.4,0.9-0.7,1.3c-0.3,0.5-0.6,0.9-1,1.4c-0.4,0.4-0.8,0.7-1.2,1c-0.4,0.3-0.9,0.5-1.4,0.7l0,0c-0.5,0.2-1,0.3-1.5,0.4
					l0,0h-0.1h-0.2c-0.1,0-0.1,0-0.2,0h-0.1l0,0c-0.1,0-0.1,0-0.2,0c0,0,0,0-0.1,0l0,0c-0.1,0-0.3,0-0.4,0L138.3-28.4z M134.5-37.1
					c-0.3,0.8-0.4,1.7-0.4,2.5c0,0.7,0.1,1.4,0.3,2.1c0.2,0.5,0.5,1,0.9,1.4c0.4,0.4,0.9,0.7,1.4,0.9c0.6,0.2,1.2,0.3,1.8,0.3l0,0
					c0.1,0,0.1,0,0.2,0c0.1,0,0.2,0,0.2,0h0.1c0.1,0,0.2,0,0.2,0h0.1h0.1h0.1c0.4-0.1,0.9-0.2,1.3-0.4c0.4-0.2,0.8-0.4,1.1-0.6l0,0
					c0.4-0.2,0.7-0.5,1-0.8c0.3-0.3,0.6-0.7,0.8-1.1c0.2-0.3,0.4-0.7,0.5-1.1c0.1-0.3,0.2-0.7,0.3-1.1c0.1-0.4,0.1-0.7,0.1-1.1
					c0-0.1,0-0.2,0-0.3l-4.1,0.6v0.9l2.6-0.4l-0.1,1c0,0.4-0.1,0.8-0.3,1.2l0,0c-0.2,0.3-0.4,0.7-0.7,0.9c-0.3,0.3-0.6,0.5-0.9,0.7
					c-0.3,0.2-0.7,0.3-1.1,0.4c-0.1,0-0.2,0-0.2,0h-0.1l0,0h-0.3c-0.5,0-1-0.1-1.5-0.3l0,0c-0.4-0.2-0.8-0.6-1.1-0.9
					c-0.3-0.4-0.5-0.8-0.6-1.3c-0.1-0.5-0.2-1-0.2-1.5c0-0.6,0.1-1.1,0.2-1.6c0.1-0.5,0.4-1.1,0.7-1.5c0.3-0.5,0.7-0.9,1.2-1.2
					s1-0.6,1.6-0.7h0.1h0.1c0.1,0,0.1,0,0.2,0h0.2c0.3,0,0.6,0,0.9,0.1l0,0c0.3,0.1,0.6,0.2,0.8,0.4s0.4,0.4,0.6,0.6l0,0l1.5-0.9
					c-0.1-0.1-0.2-0.2-0.3-0.4c-0.2-0.3-0.5-0.5-0.8-0.7s-0.6-0.3-0.9-0.4c-0.4-0.1-0.8-0.1-1.2-0.1h-0.3h-0.1h-0.1h-0.1h-0.1h-0.1
					H140h-0.1l0,0c-0.8,0.1-1.6,0.4-2.4,0.7c-0.7,0.4-1.3,0.9-1.8,1.4C135.2-38.6,134.8-37.9,134.5-37.1L134.5-37.1z M138.5-32.8
					c0.2,0.1,0.5,0.2,0.8,0.2h0.1c0.1,0,0.1,0,0.2,0h0.1h0.1c0.2,0,0.5-0.1,0.7-0.2c0.2-0.1,0.4-0.2,0.5-0.4l0.1-0.1l-2.1,0.4v-4
					l2.6-0.4l-0.1-0.1c-0.1-0.2-0.2-0.3-0.3-0.5c-0.1-0.1-0.2-0.2-0.3-0.3c-0.1-0.1-0.2-0.1-0.3-0.2c-0.2,0-0.3-0.1-0.5-0.1H140
					c-0.1,0-0.1,0-0.2,0c-0.3,0.1-0.7,0.2-1,0.4c-0.3,0.2-0.6,0.5-0.8,0.8l0,0c-0.2,0.3-0.4,0.7-0.5,1.1c-0.1,0.4-0.2,0.8-0.2,1.2
					c0,0.3,0,0.7,0.1,1c0.1,0.3,0.2,0.6,0.4,0.8C138.1-33.1,138.3-32.9,138.5-32.8L138.5-32.8z"/>
				<path d="M149.6-35.9l1.1-3.8l0,0l1.1,3.4L149.6-35.9 M152.2-43.6l-3,0.4L145-30.8l3-0.6l0.7-2.1l3.8-0.7l0.7,1.8l2.8-0.5
					L152.2-43.6"/>
				<path class="st2" d="M143.9-29.8l4.8-14l4.1-0.6l4.3,12l-4.3,0.8l-0.7-1.8l-2.7,0.5l-0.7,2.1L143.9-29.8z M149.8-42.3l-3.6,10.6
					l1.3-0.2l0.7-2.1l4.9-0.9l0.7,1.8l1.3-0.2l-3.3-9.1L149.8-42.3z M148.5-34.9l1.6-5.6h1.2l1.6,4.8L148.5-34.9z M150.7-37.2v0.3
					h0.2L150.7-37.2z"/>
				<path d="M159.4-39.4v-2.7l0.4-0.1c0.1,0,0.2,0,0.2,0c0.1,0,0.2,0,0.2,0c0.1,0,0.1,0,0.2,0h0.2c0.1,0,0.3,0,0.4,0.1
					c0.1,0,0.2,0.1,0.3,0.2s0.2,0.2,0.2,0.4c0.1,0.2,0.1,0.4,0.1,0.6c0,0.3,0,0.5-0.2,0.8c-0.1,0.2-0.2,0.3-0.4,0.5
					c-0.2,0.1-0.4,0.2-0.6,0.2c-0.2,0.1-0.4,0.1-0.7,0.1L159.4-39.4 M161.6-44.8h-0.4c-0.1,0-0.1,0-0.2,0c-0.1,0-0.1,0-0.2,0
					l-3.9,0.5v11l2.5-0.5v-3.6l1.4-0.2c0.5-0.1,1-0.2,1.4-0.5c0.4-0.2,0.8-0.5,1-0.8c0.3-0.4,0.5-0.8,0.6-1.2
					c0.2-0.5,0.2-1.1,0.2-1.7c0-0.5-0.1-0.9-0.2-1.4c-0.1-0.3-0.3-0.7-0.5-0.9c-0.2-0.3-0.5-0.4-0.8-0.6
					C162.3-44.7,161.9-44.8,161.6-44.8"/>
				<path class="st2" d="M156.1-32.1v-12.6l4.5-0.6c0.1,0,0.2,0,0.3,0s0.2,0,0.3,0h0.4c0.5,0,0.9,0.1,1.3,0.3
					c0.4,0.2,0.8,0.4,1.1,0.8c0.3,0.4,0.5,0.8,0.7,1.2c0.2,0.5,0.2,1,0.2,1.6s-0.1,1.3-0.3,1.9c-0.2,0.5-0.4,1.1-0.8,1.5l0,0
					c-0.4,0.4-0.8,0.8-1.3,1l0,0c-0.5,0.2-1.1,0.4-1.6,0.5l0,0l-0.8,0.1v3.5L156.1-32.1z M157.6-43.5v9.4l1-0.2v-3.6l2.1-0.3
					c0.4-0.1,0.8-0.2,1.2-0.4c0.3-0.2,0.6-0.4,0.8-0.6c0.2-0.3,0.4-0.6,0.5-1c0.1-0.5,0.2-1,0.2-1.4c0-0.4,0-0.8-0.2-1.1
					c-0.1-0.2-0.2-0.5-0.3-0.7l0,0c-0.1-0.2-0.3-0.3-0.5-0.3l0,0c-0.2-0.1-0.5-0.2-0.8-0.2h-0.5H161h-0.1l0,0h-0.1L157.6-43.5z
					 M158.6-38.5v-4.3l1.1-0.2c0.1,0,0.1,0,0.2,0l0,0c0.1,0,0.1,0,0.2,0l0,0h0.1h0.1h0.1h0.3c0.2,0,0.4,0,0.6,0.1
					c0.2,0.1,0.4,0.2,0.6,0.4c0.2,0.2,0.3,0.4,0.4,0.7c0.1,0.3,0.1,0.5,0.1,0.8c0,0.4-0.1,0.8-0.2,1.1c-0.1,0.3-0.4,0.5-0.6,0.7
					l-0.1,0.1c-0.2,0.1-0.5,0.3-0.8,0.3c-0.1,0-0.3,0.1-0.4,0.1c-0.1,0-0.2,0-0.3,0.1l0,0L158.6-38.5z M160.2-41.5v1.1h0.1
					c0.1,0,0.2-0.1,0.3-0.1s0.1-0.1,0.1-0.2c0.1-0.1,0.1-0.3,0.1-0.4s0-0.2,0-0.3v-0.1h-0.1h-0.1c-0.1,0-0.1,0-0.2,0H160.2
					L160.2-41.5L160.2-41.5z"/>
				<polyline class="st17" points="167.5,-45.7 165.2,-45.3 165.2,-34.7 170.3,-35.7 170.3,-37.9 167.5,-37.4 167.5,-45.7 				"/>
				<path class="st2" d="M164.6-34v-11.8l3.5-0.5v8.1l2.7-0.5v3.5L164.6-34z M165.8-44.8v9.3l3.9-0.7v-1.1l-2.7,0.5V-45L165.8-44.8z
					"/>
				<polyline class="st17" points="173.2,-46.5 171,-46.2 171,-35.8 173.2,-36.2 173.2,-46.5 				"/>
				<path class="st2" d="M170.4-35.1v-11.5l3.4-0.5v11.3L170.4-35.1z M171.6-45.6v9l1-0.2v-9L171.6-45.6z"/>
				<polyline class="st17" points="179.2,-47.3 174.6,-46.6 174.6,-36.5 179.2,-37.4 179.2,-39.5 176.7,-39.1 176.7,-40.8 
					179,-41.2 179,-43.5 176.7,-43 176.7,-44.7 179.2,-45.1 179.2,-47.3 				"/>
				<path class="st2" d="M174-35.8v-11.3l5.8-0.8v3.4l-2.4,0.4v0.4l2.3-0.4v3.4l-2.3,0.4v0.5l2.4-0.4v3.3L174-35.8z M175.2-46.1v8.8
					l3.4-0.6v-0.9l-2.4,0.4v-2.9l2.3-0.4v-0.9l-2.3,0.4v-2.9l2.4-0.4v-1L175.2-46.1z"/>
				<path d="M182.4-43.3v-2.4h0.2h0.1h0.1h0.2c0.1,0,0.2,0,0.3,0.1c0.1,0,0.2,0.1,0.3,0.2c0.1,0.1,0.2,0.2,0.2,0.3
					c0.1,0.2,0.1,0.3,0.1,0.5c0,0.2,0,0.4-0.1,0.6c-0.1,0.2-0.2,0.3-0.3,0.4c-0.1,0.1-0.3,0.2-0.4,0.2c-0.2,0-0.3,0.1-0.5,0.1H182.4
					 M184-47.9h-0.3c-0.1,0-0.1,0-0.2,0s-0.1,0-0.2,0l-2.9,0.4v9.7l2-0.4v-3.7l0,0l1.8,3.4l2.3-0.5l-2.3-3.5
					c0.3-0.1,0.5-0.3,0.7-0.5c0.2-0.2,0.4-0.4,0.5-0.7s0.2-0.6,0.3-0.9c0.1-0.7,0.1-1.4,0-2.1c-0.1-0.3-0.2-0.6-0.4-0.8
					s-0.4-0.4-0.6-0.5C184.5-47.8,184.2-47.9,184-47.9"/>
				<path class="st2" d="M179.8-36.9v-11l3.5-0.5c0,0,0.1,0,0.2,0c0.1,0,0.1,0,0.2,0h0.3c0.3,0,0.7,0.1,1,0.2s0.6,0.4,0.8,0.6
					c0.2,0.3,0.4,0.6,0.5,1c0.2,0.8,0.2,1.6,0,2.4c-0.1,0.4-0.2,0.7-0.4,1s-0.4,0.6-0.6,0.8c-0.1,0.1-0.2,0.2-0.3,0.2l2.4,3.7
					l-3.6,0.7l-0.9-1.7v1.9L179.8-36.9z M181-46.9v8.5l0.8-0.2v-3.8h1l1.8,3.3l1-0.2l-2.2-3.3l0.7-0.3c0.2-0.1,0.3-0.2,0.5-0.3l0,0
					c0.2-0.2,0.3-0.3,0.4-0.5c0.1-0.2,0.2-0.5,0.3-0.7c0.1-0.3,0.1-0.5,0.1-0.8s0-0.7-0.1-1c-0.1-0.2-0.1-0.4-0.3-0.6l0,0
					c-0.1-0.1-0.2-0.2-0.4-0.3l0,0c-0.2-0.1-0.4-0.1-0.5-0.1h-0.3c0,0-0.1,0-0.2,0h-0.1L181-46.9z M181.8-42.5v-3.7l0.7-0.1h0.1l0,0
					h0.4c0.2,0,0.3,0,0.5,0.1s0.4,0.2,0.5,0.3c0.2,0.1,0.3,0.3,0.3,0.5c0.1,0.2,0.1,0.4,0.1,0.7s-0.1,0.6-0.2,0.9
					c-0.1,0.2-0.3,0.5-0.5,0.6c-0.2,0.1-0.4,0.2-0.6,0.3H183c-0.2,0-0.3,0.1-0.5,0.1h-0.1L181.8-42.5z M183-45.3v1.1
					c0,0,0.1,0,0.1-0.1c0.1,0,0.1-0.1,0.1-0.2c0.1-0.1,0.1-0.3,0.1-0.4s0-0.2,0-0.2v-0.1l0,0l0,0C183.2-45.3,183.1-45.3,183-45.3
					L183-45.3z"/>
				<polyline class="st17" points="121.3,-39.2 117.7,-38.7 114.6,-31.1 111.6,-37.8 107.7,-37.3 105.1,-23 109.1,-23.8 
					110.3,-31.9 110.4,-31.9 113.8,-24.7 115.3,-25 118.7,-33.3 118.8,-33.3 119.8,-25.9 123.4,-26.6 121.3,-39.2 				"/>
				<polyline class="st17" points="132.2,-40.7 124.9,-39.7 124.9,-26.9 132.2,-28.3 132.2,-31 128.3,-30.3 128.3,-32.5 132,-33.1 
					132,-35.9 128.3,-35.3 128.3,-37.4 132.2,-38 132.2,-40.7 				"/>
				<path class="st17" d="M140.9-42.2h-0.3c-0.1,0-0.2,0-0.3,0c-0.1,0-0.2,0-0.3,0s-0.2,0-0.3,0c-0.9,0.1-1.8,0.4-2.6,0.8
					c-0.8,0.4-1.5,1-2.1,1.6c-0.6,0.7-1.1,1.5-1.4,2.3c-0.3,0.9-0.5,1.8-0.5,2.8c0,0.8,0.1,1.6,0.4,2.3c0.2,0.7,0.6,1.2,1.1,1.7
					c0.5,0.5,1,0.8,1.7,1c0.7,0.2,1.4,0.3,2.1,0.3c0.1,0,0.2,0,0.3,0s0.2,0,0.3,0s0.2,0,0.3,0l0.3-0.1c0.5-0.1,1-0.2,1.4-0.4
					c0.4-0.2,0.9-0.4,1.3-0.7c0.4-0.3,0.8-0.6,1.1-0.9c0.4-0.4,0.7-0.8,0.9-1.2c0.2-0.4,0.4-0.8,0.6-1.2c0.1-0.4,0.3-0.8,0.3-1.2
					c0.1-0.4,0.1-0.8,0.2-1.2c0-0.4,0.1-0.8,0.1-1.2l-5.9,1v2.4l2.5-0.4c0,0.3-0.1,0.6-0.2,0.9c-0.1,0.3-0.3,0.5-0.5,0.7
					c-0.2,0.2-0.5,0.4-0.7,0.5c-0.3,0.1-0.6,0.2-0.9,0.3h-0.1h-0.1h-0.1h-0.1c-0.4,0-0.8-0.1-1.1-0.2c-0.3-0.2-0.6-0.4-0.8-0.7
					c-0.2-0.3-0.4-0.7-0.5-1.1c-0.1-0.4-0.2-0.8-0.2-1.2c0-0.5,0.1-1,0.2-1.4c0.1-0.5,0.3-0.9,0.6-1.3c0.3-0.4,0.6-0.8,1-1
					c0.4-0.3,0.9-0.5,1.3-0.5h0.1h0.1h0.2c0.2,0,0.5,0,0.7,0.1c0.2,0.1,0.4,0.2,0.6,0.3s0.3,0.3,0.5,0.5c0.1,0.2,0.3,0.4,0.3,0.6
					l2.8-1.6c-0.2-0.4-0.4-0.8-0.7-1.1s-0.6-0.6-0.9-0.8c-0.3-0.2-0.7-0.4-1.1-0.5C141.8-42.1,141.4-42.2,140.9-42.2"/>
				<path d="M149.6-35.9l1.1-3.8l0,0l1.1,3.4L149.6-35.9 M152.2-43.6l-3,0.4L145-30.8l3-0.6l0.7-2.1l3.8-0.7l0.7,1.8l2.8-0.5
					L152.2-43.6"/>
				<path d="M159.4-39.4v-2.7l0.4-0.1c0.1,0,0.2,0,0.2,0c0.1,0,0.2,0,0.2,0c0.1,0,0.1,0,0.2,0h0.2c0.1,0,0.3,0,0.4,0.1
					c0.1,0,0.2,0.1,0.3,0.2s0.2,0.2,0.2,0.4c0.1,0.2,0.1,0.4,0.1,0.6c0,0.3,0,0.5-0.2,0.8c-0.1,0.2-0.2,0.3-0.4,0.5
					c-0.2,0.1-0.4,0.2-0.6,0.2c-0.2,0.1-0.4,0.1-0.7,0.1L159.4-39.4 M161.6-44.8h-0.4c-0.1,0-0.1,0-0.2,0c-0.1,0-0.1,0-0.2,0
					l-3.9,0.5v11l2.5-0.5v-3.6l1.4-0.2c0.5-0.1,1-0.2,1.4-0.5c0.4-0.2,0.8-0.5,1-0.8c0.3-0.4,0.5-0.8,0.6-1.2
					c0.2-0.5,0.2-1.1,0.2-1.7c0-0.5-0.1-0.9-0.2-1.4c-0.1-0.3-0.3-0.7-0.5-0.9c-0.2-0.3-0.5-0.4-0.8-0.6
					C162.3-44.7,161.9-44.8,161.6-44.8"/>
				<polyline class="st17" points="167.5,-45.7 165.2,-45.3 165.2,-34.7 170.3,-35.7 170.3,-37.9 167.5,-37.4 167.5,-45.7 				"/>
				<polyline class="st17" points="173.2,-46.5 171,-46.2 171,-35.8 173.2,-36.2 173.2,-46.5 				"/>
				<polyline class="st17" points="179.2,-47.3 174.6,-46.6 174.6,-36.5 179.2,-37.4 179.2,-39.5 176.7,-39.1 176.7,-40.8 
					179,-41.2 179,-43.5 176.7,-43 176.7,-44.7 179.2,-45.1 179.2,-47.3 				"/>
				<path d="M182.4-43.3v-2.4h0.2h0.1h0.1h0.2c0.1,0,0.2,0,0.3,0.1c0.1,0,0.2,0.1,0.3,0.2c0.1,0.1,0.2,0.2,0.2,0.3
					c0.1,0.2,0.1,0.3,0.1,0.5c0,0.2,0,0.4-0.1,0.6c-0.1,0.2-0.2,0.3-0.3,0.4c-0.1,0.1-0.3,0.2-0.4,0.2c-0.2,0-0.3,0.1-0.5,0.1H182.4
					 M184-47.9h-0.3c-0.1,0-0.1,0-0.2,0s-0.1,0-0.2,0l-2.9,0.4v9.7l2-0.4v-3.7l0,0l1.8,3.4l2.3-0.5l-2.3-3.5
					c0.3-0.1,0.5-0.3,0.7-0.5c0.2-0.2,0.4-0.4,0.5-0.7s0.2-0.6,0.3-0.9c0.1-0.7,0.1-1.4,0-2.1c-0.1-0.3-0.2-0.6-0.4-0.8
					s-0.4-0.4-0.6-0.5C184.5-47.8,184.2-47.9,184-47.9"/>
				<path class="st18" d="M79.1-33.2l0.3,4.4h0.1c0.1-0.5,0.3-0.9,0.4-1.4l1.2-3.3l2-0.3l0.3,4.3h0.1c0-0.4,0.1-0.8,0.3-1.2L85-34
					l2.7-0.4l-3.5,8L82-26l-0.2-4.1h-0.1c-0.1,0.4-0.2,0.7-0.3,1.1l-1.1,3.2l-2.2,0.4l-1.6-7.4L79.1-33.2z"/>
				<path class="st2" d="M87.6-34.4l-3.5,8L81.9-26l-0.2-4.1h-0.1c-0.1,0.4-0.2,0.7-0.3,1.1l-1.1,3.2L78-25.4l-1.5-7.4l2.7-0.4
					l0.3,4.4h0.1c0.1-0.5,0.3-0.9,0.4-1.4l1.2-3.3l2-0.3l0.3,4.3h0.1c-0.1-0.4,0-0.8,0.2-1.2L85-34L87.6-34.4z M88.4-35.1l-0.9,0.2
					l-2.7,0.4h-0.3l-0.1,0.3L83.6-32l-0.1-1.8v-0.5l-0.6,0.1l-2,0.3h-0.3l-0.1,0.3l-0.8,2.2l-0.1-1.8v-0.6l-0.5,0.1l-2.7,0.4
					l-0.5,0.1l0.1,0.5l1.4,7.4l0.1,0.4H78l2.2-0.4h0.3l0.1-0.3l0.6-1.9l0.1,1.5v0.6l0.6-0.1l2.2-0.4h0.3l0.1-0.4l3.5-8L88.4-35.1
					L88.4-35.1z"/>
				<polygon class="st18" points="88.2,-34.5 90.7,-34.8 89.7,-27.4 87.1,-26.9 				"/>
				<path class="st2" d="M90.7-34.8l-1.1,7.5l-2.5,0.4l1.1-7.5L90.7-34.8z M91.3-35.5l-0.7,0.1L88.1-35l-0.4,0.1l-0.1,0.4L86.5-27
					v0.7l0.7-0.1l2.5-0.5h0.4l0.1-0.4l1.1-7.5L91.3-35.5L91.3-35.5z"/>
				<polygon class="st18" points="91.4,-34.9 96.8,-35.8 96.5,-33.3 95.1,-33.2 94.3,-28.1 91.8,-27.7 92.5,-32.8 91.1,-32.5 				
					"/>
				<path class="st2" d="M96.8-35.8l-0.3,2.5l-1.4,0.2l-0.8,5l-2.5,0.4l0.7-5.1l-1.4,0.3l0.3-2.4L96.8-35.8z M97.4-36.4l-0.7,0.1
					l-5.4,0.8l-0.4,0.1L90.8-35l-0.4,2.4l0.1,0.7l0.7-0.1l0.7-0.1l-0.6,4.4L91.2-27l0.7-0.1l2.5-0.4l0.4-0.1l0.1-0.4l0.6-4.7l1-0.1
					h0.4l0.1-0.4l0.4-2.4V-36.4L97.4-36.4z"/>
				<polygon class="st18" points="97.5,-35.8 100,-36.2 99.6,-33.8 101.2,-34 101.5,-36.4 104,-36.8 102.9,-29.6 100.4,-29.2 
					100.8,-31.7 99.2,-31.5 98.9,-28.9 96.4,-28.5 				"/>
				<path class="st2" d="M104-36.8l-1.1,7.2l-2.5,0.4l0.4-2.5l-1.6,0.3l-0.3,2.5l-2.5,0.4l1.1-7.3l2.5-0.4l-0.4,2.5l1.6-0.2l0.3-2.5
					L104-36.8z M104.6-37.4l-0.7,0.1l-2.4,0.4h-0.4l-0.1,0.4l-0.3,2.1l-0.5,0.1l0.3-1.8l0.1-0.7l-0.7,0.1l-2.5,0.4L97-36.2v0.3
					l-1.1,7.3l-0.1,0.7l0.7-0.1l2.5-0.4l0.4-0.1l0.1-0.4l0.3-2.2l0.5-0.1l-0.3,1.9l-0.1,0.7l0.6-0.1l2.5-0.4l0.4-0.1l0.1-0.4l1-7.1
					L104.6-37.4L104.6-37.4z"/>
				<path class="st8" d="M30.8-122.8c0,0-8.5,4.4-11.2,13.3c0,0-8.2-7.6-14.7-7.6c0,0-10.3-1.6-7.5,10.6c0.1,0.2,0.1,0.4,0.1,0.6
					l1.4,5.3c-1.2-1.1-2.1-2.5-2.6-4.1c-1.4-5-1.2-14.3,2.1-18c6-6.8,15.5-7,23.4-4.3c1.4,0.5,2.8,1.1,4.2,1.8
					C26.6-124.9,30.3-122.6,30.8-122.8"/>
				<path class="st19" d="M0.9-114c-0.4,0.4-0.8,0.7-1.1,1.1c-0.9,1.3-1.6,3.1-2.1,4.6C-5.4-99.5,1.2-89.1,6.1-82
					c2.3,3.3,5.7,8.2,7.6,9.5C10-78.2,5.9-83.6,2.9-89.7C-0.7-96.8-1.1-106.3,0.9-114"/>
				<path class="st8" d="M71.2-84.5c0,0-10.4,16-33.6,13.3c0,0,2.2,3.3,13.3,3.3C50.8-68,68.6-70.2,71.2-84.5"/>
				<path class="st8" d="M21.8-52.6c0,0,20.2,8.3,31.4,8.3v2C53.2-42.1,31.3-42.9,21.8-52.6"/>
				<path class="st8" d="M47.7-52.7c-5.7,0-11.3-1.5-16.5-3.8C22.9-60.2,15.3-66,9-72.6C3.4-78.5-1.4-84.7-4.8-92.2
					c-3-6.4-4.7-14.5-4.1-21.7c1.5-17.6,18.9-18,18.9-18c13.7-1.4,26.5,7.9,26.5,7.9c-0.9,0-1.8,0.2-2.7,0.4c0,0-12.4-7.8-24.7-6.6
					c0,0-14.5,1.2-16.6,16.3c0,0-2.1,16.4,12.6,34.4c0,0,13.2,15.3,24.5,20.1c0,0,4.5,2.1,2.4,0.1l-3.8-2.5c0,0-12.9-9.4-19.4-21.8
					c0,0-5.3-8.9-6.4-17.8c0,0-1.5-11.3,0.8-14.5c0,0,1-0.5,4.5,1.2c0,0,9.8,5.3,12,8.6c0,0-0.4,1.9,0,2.3c0,0-2.4-2.9-6.7-6
					l-6.5-3.8L4.4-114c0,0-0.6,1.1-0.6,6.3c0,0-1.4,10.1,6.5,23.1c0,0,7.2,13.8,24.2,25.2c0,0,4.7,3.8,11.1,5.5
					C45.6-53.9,48.8-52.7,47.7-52.7"/>
				<path class="st19" d="M19.6-118.5c0,0-6.9,9-5.3,21.2c0,0,0.9,6.6,3.7,8.3C18-88.9,12.5-99.1,19.6-118.5"/>
				<path class="st16" d="M59.3-95.4c0-0.3,0.1-0.5,0.4-0.6c0.2-0.1,0.5-0.1,0.7,0.1c0.2,0.2,0.2,0.5,0.1,0.7
					c-0.1,0.2-0.3,0.4-0.6,0.4c-0.2,0-0.3-0.1-0.5-0.2C59.4-95.1,59.3-95.2,59.3-95.4z M60-95.9c-0.1,0-0.3,0.1-0.4,0.2
					c-0.1,0-0.1,0.1-0.1,0.3c0,0.1,0,0.3,0.1,0.4s0.2,0.2,0.3,0.2s0.3-0.1,0.4-0.2c0.1-0.1,0.1-0.2,0.1-0.4c0-0.1,0-0.3-0.1-0.4
					C60.2-95.9,60.1-95.9,60-95.9L60-95.9z M59.9-95.1h-0.2v-0.7H60c0.2,0,0.3,0.1,0.3,0.2s-0.1,0.2-0.2,0.2l0.2,0.3h-0.2l-0.2-0.3
					h-0.1v0.3H59.9z M59.9-95.5L59.9-95.5c0.2,0,0.2,0,0.2-0.1S60-95.7,60-95.7h-0.1V-95.5L59.9-95.5z"/>
				<path class="st4" d="M198.8-106c0-1.1,0.9-1.8,1.8-1.8s1.8,0.7,1.8,1.8s-0.9,1.8-1.8,1.8S198.8-104.9,198.8-106z M200.6-107.5
					c-0.8,0-1.4,0.6-1.4,1.4c0,0.9,0.6,1.4,1.4,1.4c0.4,0,0.7-0.2,1-0.4c0.3-0.2,0.4-0.6,0.4-1C202-106.9,201.4-107.5,200.6-107.5z
					 M200.3-105.1h-0.4v-2h0.7c0.5,0,0.8,0.1,0.8,0.6c0,0.4-0.2,0.5-0.5,0.5l0.5,0.8H201l-0.5-0.8h-0.2L200.3-105.1L200.3-105.1z
					 M200.3-106.2h0.4c0.2,0,0.3-0.1,0.3-0.3s-0.1-0.2-0.3-0.2h-0.3L200.3-106.2L200.3-106.2z"/>
				<path d="M186.6-47c0-0.5,0.3-1,0.7-1.2c0.5-0.2,1-0.1,1.4,0.2c0.4,0.4,0.5,0.9,0.3,1.4c-0.2,0.5-0.6,0.8-1.2,0.8
					C187.2-45.8,186.6-46.3,186.6-47z M187.9-48c-0.3,0-0.5,0.1-0.7,0.3c-0.2,0.2-0.3,0.4-0.3,0.7s0.1,0.5,0.3,0.7s0.4,0.3,0.7,0.3
					s0.5-0.1,0.7-0.3s0.3-0.4,0.3-0.7s-0.1-0.5-0.3-0.7C188.4-47.9,188.1-48,187.9-48z M187.7-46.4h-0.3v-1.3h0.5
					c0.3,0,0.5,0.1,0.5,0.4c0,0.2-0.1,0.3-0.4,0.4l0.3,0.6H188l-0.3-0.5h-0.1v0.4H187.7z M187.7-47.1h0.3c0.2,0,0.2-0.1,0.2-0.2
					s-0.1-0.2-0.2-0.2h-0.2v0.4H187.7z"/>
			</g>
		</g>
	</g>
</g>
</svg>
